<?xml version="1.0" encoding="UTF-8" standalone="no"?>
<svg
   width="83"
   height="23.315001"
   viewBox="0 0 83 23.315"
   fill="none"
   version="1.1"
   id="svg20"
   sodipodi:docname="bmc-button-small.svg"
   inkscape:version="1.4 (e7c3feb100, 2024-10-09)"
   xmlns:inkscape="http://www.inkscape.org/namespaces/inkscape"
   xmlns:sodipodi="http://sodipodi.sourceforge.net/DTD/sodipodi-0.dtd"
   xmlns="http://www.w3.org/2000/svg"
   xmlns:svg="http://www.w3.org/2000/svg"
   xmlns:rdf="http://www.w3.org/1999/02/22-rdf-syntax-ns#"
   xmlns:cc="http://creativecommons.org/ns#">
  <defs
     id="defs20" />
  <sodipodi:namedview
     id="namedview20"
     pagecolor="#505050"
     bordercolor="#ffffff"
     borderopacity="1"
     inkscape:showpageshadow="0"
     inkscape:pageopacity="0"
     inkscape:pagecheckerboard="1"
     inkscape:deskcolor="#d1d1d1"
     inkscape:zoom="2.0917431"
     inkscape:cx="145.8114"
     inkscape:cy="76.730263"
     inkscape:window-width="1920"
     inkscape:window-height="1010"
     inkscape:window-x="0"
     inkscape:window-y="0"
     inkscape:window-maximized="0"
     inkscape:current-layer="svg20">
    <sodipodi:guide
       position="0,48.875999"
       orientation="0,174"
       id="guide20"
       inkscape:locked="false" />
    <sodipodi:guide
       position="174,48.875999"
       orientation="48.875999,0"
       id="guide21"
       inkscape:locked="false" />
    <sodipodi:guide
       position="174,0"
       orientation="0,-174"
       id="guide22"
       inkscape:locked="false" />
    <sodipodi:guide
       position="0,0"
       orientation="-48.875999,0"
       id="guide23"
       inkscape:locked="false" />
  </sodipodi:namedview>
  <path
     d="M 0,3.730337 C 0,1.670133 1.670132,0 3.730335,0 H 79.26967 C 81.32988,0 83,1.670133 83,3.730337 V 19.58427 c 0,2.060219 -1.67012,3.730336 -3.73033,3.730336 H 3.730335 C 1.670132,23.314606 0,21.644489 0,19.58427 Z"
     fill="#ffdd00"
     id="path1"
     style="stroke-width:0.152383" />
  <path
     d="m 16.689297,7.66758 -0.01021,-0.006 -0.02376,-0.0072 c 0.0096,0.008 0.02147,0.01271 0.03396,0.01326 z"
     fill="#0d0c22"
     id="path2"
     style="stroke-width:0.152383" />
  <path
     d="m 16.839393,8.733591 -0.01145,0.0032 z"
     fill="#0d0c22"
     id="path3"
     style="stroke-width:0.152383" />
  <path
     d="m 16.693413,7.665812 c -0.0014,-1.67e-4 -0.0024,-4.72e-4 -0.0038,-9.06e-4 -1.53e-4,8.59e-4 -1.53e-4,0.0017 0,0.0025 0.0014,-1.82e-4 0.0024,-7.63e-4 0.0038,-0.0016 z"
     fill="#0d0c22"
     id="path4"
     style="stroke-width:0.152383" />
  <path
     d="m 16.689449,7.667991 h 0.0019 v -0.0012 z"
     fill="#0d0c22"
     id="path5"
     style="stroke-width:0.152383" />
  <path
     d="m 16.830249,8.73164 0.01722,-0.0098 0.0064,-0.0036 0.0058,-0.0062 c -0.01083,0.0047 -0.02089,0.01138 -0.02943,0.01967 z"
     fill="#0d0c22"
     id="path6"
     style="stroke-width:0.152383" />
  <path
     d="m 16.718704,7.690971 -0.01689,-0.01606 -0.01145,-0.0062 c 0.0062,0.01085 0.01631,0.01885 0.02833,0.02228 z"
     fill="#0d0c22"
     id="path7"
     style="stroke-width:0.152383" />
  <path
     d="m 12.477137,18.034992 c -0.0135,0.0058 -0.02528,0.01494 -0.03435,0.02651 l 0.01064,-0.0069 c 0.0072,-0.0066 0.01746,-0.01448 0.02371,-0.01966 z"
     fill="#0d0c22"
     id="path8"
     style="stroke-width:0.152383" />
  <path
     d="m 14.940487,17.550413 c 0,-0.01524 -0.0074,-0.0125 -0.0056,0.04175 0,-0.0044 0.0019,-0.0088 0.0024,-0.0131 9.54e-4,-0.0096 0.0019,-0.01905 0.0029,-0.02865 z"
     fill="#0d0c22"
     id="path9"
     style="stroke-width:0.152383" />
  <path
     d="m 14.686082,18.034992 c -0.01345,0.0058 -0.02528,0.01494 -0.0343,0.02651 l 0.01064,-0.0069 c 0.0072,-0.0066 0.01746,-0.01448 0.02366,-0.01966 z"
     fill="#0d0c22"
     id="path10"
     style="stroke-width:0.152383" />
  <path
     d="m 10.741269,18.150345 c -0.01021,-0.0088 -0.02275,-0.01478 -0.03611,-0.01691 0.01083,0.0053 0.02166,0.01051 0.02891,0.01448 z"
     fill="#0d0c22"
     id="path11"
     style="stroke-width:0.152383" />
  <path
     d="m 10.35144,17.77655 c -0.0014,-0.01585 -0.0064,-0.03109 -0.01426,-0.04495 0.0055,0.01432 0.01016,0.02911 0.01383,0.04419 z"
     fill="#0d0c22"
     id="path12"
     style="stroke-width:0.152383" />
  <path
     d="m 12.973406,11.089479 c -0.535975,0.229443 -1.144213,0.489591 -1.932507,0.489591 -0.329773,-6.68e-4 -0.657928,-0.0459 -0.975589,-0.134493 l 0.545214,5.597639 c 0.01927,0.233907 0.125884,0.45212 0.298576,0.611056 0.172697,0.159088 0.398882,0.247317 0.633643,0.247165 0,0 0.77304,0.04023 1.030994,0.04023 0.277611,0 1.110077,-0.04023 1.110077,-0.04023 0.234718,0 0.460855,-0.08823 0.633519,-0.247165 0.17265,-0.159088 0.279209,-0.377149 0.298504,-0.611056 l 0.583943,-6.185594 c -0.260953,-0.08913 -0.524316,-0.148345 -0.821218,-0.148345 -0.513488,-1.98e-4 -0.927205,0.176642 -1.405156,0.381202 z"
     fill="#ffffff"
     id="path13"
     style="stroke-width:0.152383" />
  <path
     d="m 8.378693,8.701393 0.0093,0.0086 0.006,0.0036 c -0.0048,-0.0046 -0.0097,-0.0087 -0.01526,-0.01224 z"
     fill="#0d0c22"
     id="path14"
     style="stroke-width:0.152383" />
  <path
     d="M 17.721998,8.184783 17.640018,7.770667 C 17.566268,7.399096 17.399098,7.048006 17.017685,6.91371 16.895474,6.87076 16.756655,6.85229 16.662936,6.763369 16.569226,6.674439 16.541489,6.536334 16.519852,6.408256 16.479782,6.17319 16.441982,5.937926 16.400837,5.703271 16.365347,5.501531 16.337147,5.274892 16.244645,5.089823 16.124266,4.841301 15.874355,4.695973 15.625818,4.59982 15.498427,4.55228 15.368446,4.51206 15.236543,4.479376 14.615655,4.315564 13.962865,4.255342 13.324104,4.221026 12.557432,4.178726 11.788709,4.191466 11.023849,4.259166 10.454565,4.310946 9.854966,4.37359 9.313978,4.5705 9.116242,4.64258 8.912506,4.729084 8.762152,4.881849 8.577677,5.069539 8.517454,5.359813 8.652148,5.593859 c 0.09575,0.166219 0.257954,0.283645 0.429978,0.36133 0.224077,0.1001 0.458094,0.176262 0.698159,0.227234 0.668455,0.147751 1.360809,0.205763 2.043713,0.230449 0.756903,0.03055 1.515041,0.0058 2.268328,-0.07407 0.186292,-0.02046 0.372241,-0.04503 0.55786,-0.07366 0.218595,-0.03352 0.358908,-0.319379 0.294483,-0.518514 -0.07709,-0.238067 -0.284241,-0.330412 -0.518516,-0.29448 -0.03454,0.0054 -0.06885,0.01044 -0.103378,0.01546 l -0.0249,0.0036 c -0.07937,0.01003 -0.158726,0.0194 -0.238086,0.0281 -0.163935,0.01766 -0.328265,0.03212 -0.493006,0.04335 -0.368949,0.02569 -0.738919,0.03754 -1.108675,0.03814 -0.36333,0 -0.72687,-0.01024 -1.089403,-0.03412 -0.165413,-0.01085 -0.330412,-0.02462 -0.495014,-0.04136 -0.07488,-0.0078 -0.149553,-0.01606 -0.224234,-0.0253 l -0.07106,-0.009 -0.01546,-0.0022 -0.07368,-0.01065 c -0.150554,-0.02267 -0.301108,-0.04878 -0.450046,-0.08029 -0.01503,-0.0033 -0.02848,-0.01169 -0.03811,-0.02369 -0.0096,-0.01201 -0.01488,-0.02696 -0.01488,-0.04235 0,-0.01539 0.0052,-0.03032 0.01488,-0.04233 0.0096,-0.01201 0.02309,-0.02037 0.03811,-0.02371 h 0.0029 c 0.129084,-0.0275 0.259161,-0.05099 0.389628,-0.07147 0.0435,-0.0068 0.08714,-0.01352 0.130883,-0.02007 h 0.0014 c 0.08171,-0.0054 0.16381,-0.02007 0.245107,-0.02971 0.707332,-0.07357 1.418866,-0.09865 2.129628,-0.07506 0.345055,0.01003 0.68993,0.03031 1.033388,0.06524 0.07387,0.0076 0.147353,0.01566 0.220818,0.02469 0.0281,0.0034 0.05641,0.0074 0.08471,0.01085 l 0.05701,0.0082 c 0.16622,0.02475 0.331557,0.0548 0.496021,0.09014 0.24371,0.05298 0.556596,0.07025 0.665092,0.337238 0.03444,0.08471 0.05013,0.178852 0.06918,0.267783 l 0.02437,0.113404 c 4.77e-4,0.0021 9.54e-4,0.0041 0.0014,0.0062 0.05745,0.267646 0.114898,0.535292 0.172344,0.802953 0.0043,0.01976 0.0043,0.0402 3.06e-4,0.06001 -0.0038,0.01981 -0.01202,0.03858 -0.02361,0.05513 -0.01159,0.01656 -0.02652,0.03055 -0.04374,0.0411 -0.01722,0.01055 -0.03659,0.01742 -0.05654,0.02021 h -0.0019 l -0.03506,0.0048 -0.03473,0.0046 c -0.110018,0.01432 -0.220194,0.0277 -0.330426,0.04015 -0.217193,0.02475 -0.43472,0.04617 -0.652595,0.06423 -0.432921,0.03601 -0.866711,0.05963 -1.301383,0.07086 -0.221476,0.0059 -0.442886,0.0086 -0.664238,0.0082 C 11.738138,7.144808 10.857871,7.093586 9.982688,6.992118 9.887938,6.980868 9.7932,6.968838 9.698447,6.956578 9.771907,6.965978 9.645057,6.949378 9.619367,6.945748 9.559147,6.937348 9.498922,6.928558 9.438699,6.919448 9.236546,6.889138 9.035615,6.851808 8.833877,6.819089 8.589971,6.778939 8.356718,6.799019 8.136114,6.919448 7.955021,7.018548 7.80846,7.170515 7.715962,7.355051 7.620822,7.551777 7.592516,7.765967 7.549958,7.977337 7.507408,8.188723 7.441156,8.416155 7.466248,8.633148 c 0.05399,0.468319 0.381399,0.848926 0.852324,0.934032 0.443024,0.08029 0.888472,0.145343 1.335107,0.200734 1.754506,0.214891 3.527028,0.240598 5.287019,0.07669 0.143332,-0.01339 0.286465,-0.02798 0.429325,-0.04377 0.04465,-0.0049 0.08991,2.28e-4 0.13227,0.01505 0.04236,0.01481 0.08092,0.03892 0.112761,0.07055 0.03186,0.03165 0.05638,0.07002 0.07147,0.112306 0.01507,0.04229 0.02056,0.08742 0.01598,0.132101 l -0.04465,0.433179 c -0.08975,0.875349 -0.179509,1.750638 -0.269263,2.62585 -0.09371,0.919113 -0.188024,1.838166 -0.282897,2.757066 -0.02676,0.258899 -0.05353,0.517645 -0.0803,0.776392 -0.02571,0.254632 -0.02929,0.517493 -0.07769,0.769229 -0.07627,0.395739 -0.344264,0.638943 -0.735294,0.727782 -0.358254,0.08152 -0.724218,0.124345 -1.091612,0.127697 -0.407287,0.0021 -0.814397,-0.01585 -1.221684,-0.01371 -0.434796,0.0024 -0.96736,-0.03764 -1.302999,-0.3613 C 10.30124,17.688831 10.260494,17.24372 10.220339,16.858953 10.166809,16.349536 10.113746,15.84012 10.06116,15.330704 L 9.7661,12.498663 9.575195,10.666119 c -0.0033,-0.03031 -0.0064,-0.06022 -0.0094,-0.09073 -0.0229,-0.218593 -0.177649,-0.432585 -0.421535,-0.421552 -0.208783,0.0092 -0.446044,0.186684 -0.421554,0.421552 l 0.14152,1.358587 0.292665,2.810339 c 0.08338,0.79832 0.166554,1.596655 0.24953,2.395142 0.01608,0.152993 0.0311,0.306442 0.04797,0.459283 0.09173,0.835973 0.73008,1.286417 1.520584,1.4132 0.461704,0.07436 0.934642,0.0896 1.403158,0.09722 0.600605,0.0096 1.20724,0.03276 1.798013,-0.07604 0.875412,-0.160611 1.532214,-0.745153 1.625928,-1.651984 0.02681,-0.261642 0.05364,-0.523589 0.0803,-0.785383 0.08899,-0.866145 0.177835,-1.732336 0.266674,-2.598588 l 0.290137,-2.830408 0.133182,-1.297161 c 0.0065,-0.06432 0.03382,-0.124802 0.07741,-0.172483 0.04374,-0.04768 0.101642,-0.08005 0.165032,-0.09228 0.250364,-0.04879 0.489604,-0.132085 0.667744,-0.322595 0.283431,-0.303318 0.339814,-0.698767 0.239546,-1.097432 z M 8.305667,8.46462 c 0.0038,-0.0018 -0.0033,0.03091 -0.0062,0.04617 -4.77e-4,-0.02309 4.77e-4,-0.04357 0.0062,-0.04617 z m 0.02428,0.187888 c 0.0019,-0.0014 0.008,0.0066 0.01426,0.01626 -0.0094,-0.0088 -0.01545,-0.01545 -0.01445,-0.01626 z m 0.0239,0.03151 c 0.0086,0.01466 0.01326,0.02389 0,0 z m 0.04797,0.03895 h 0.0014 c 0,0.0014 0.0024,0.0028 0.0029,0.0042 -0.0014,-0.0015 -0.0029,-0.003 -0.0043,-0.0042 z M 16.80312,8.664738 C 16.71321,8.750258 16.577594,8.790012 16.443802,8.809883 14.94225,9.032697 13.418848,9.145506 11.900868,9.095723 10.814484,9.058593 9.739524,8.937945 8.663978,8.785989 8.558587,8.771129 8.444376,8.751869 8.371904,8.674186 8.235397,8.527639 8.302444,8.232549 8.337984,8.05551 8.370514,7.893314 8.432734,7.677113 8.625636,7.654027 c 0.301109,-0.03532 0.650797,0.09173 0.94869,0.136901 0.358651,0.05474 0.718642,0.09856 1.079974,0.131491 1.542054,0.140513 3.110014,0.11863 4.645257,-0.08692 0.279777,-0.03761 0.558637,-0.0813 0.83643,-0.13108 0.247626,-0.04437 0.521912,-0.127667 0.671556,0.128672 0.102552,0.174631 0.116114,0.408295 0.100268,0.605616 -0.0049,0.08597 -0.04236,0.166844 -0.104995,0.22603 z"
     fill="#0d0c22"
     id="path15"
     style="stroke-width:0.152383" />
  <path
     fill-rule="evenodd"
     clip-rule="evenodd"
     d="m 25.910606,12.836702 c -0.08762,0.167332 -0.208158,0.313072 -0.361608,0.43673 -0.15345,0.123751 -0.332348,0.224506 -0.536996,0.302084 -0.204499,0.07776 -0.410368,0.129937 -0.617305,0.156528 -0.20709,0.0267 -0.408083,0.02438 -0.602675,-0.0073 -0.194898,-0.03148 -0.360688,-0.09576 -0.496922,-0.192917 l 0.153602,-1.594185 c 0.14111,-0.04847 0.318787,-0.09826 0.533189,-0.149229 0.21425,-0.0509 0.434596,-0.08738 0.661191,-0.109168 0.226594,-0.02188 0.440691,-0.0193 0.642906,0.0073 0.202057,0.02668 0.361603,0.09096 0.478481,0.192917 0.06339,0.05818 0.11703,0.121266 0.160762,0.189229 0.04389,0.06798 0.07055,0.138349 0.08046,0.211127 0.02423,0.203812 -0.0073,0.389445 -0.09509,0.556883 z M 23.682309,9.440816 c 0.102247,-0.06307 0.225374,-0.11895 0.368916,-0.16753 0.1437,-0.04838 0.291053,-0.08247 0.442065,-0.101853 0.15086,-0.01931 0.298214,-0.0219 0.442061,-0.0073 0.143547,0.01458 0.270328,0.05458 0.379892,0.120063 0.109565,0.06557 0.191091,0.16023 0.244726,0.283889 0.05349,0.123842 0.06812,0.28037 0.04374,0.469599 -0.01937,0.150448 -0.07924,0.277886 -0.178898,0.382161 -0.09981,0.104444 -0.22172,0.191714 -0.365262,0.262099 -0.1437,0.07046 -0.295929,0.126235 -0.456543,0.167332 -0.160915,0.04137 -0.315581,0.07176 -0.464004,0.09106 -0.148574,0.01949 -0.277644,0.03168 -0.387204,0.03639 -0.109565,0.0049 -0.181489,0.0073 -0.215624,0.0073 z m 3.017336,2.365793 c -0.07787,-0.169755 -0.182557,-0.319 -0.314064,-0.447732 -0.131508,-0.128551 -0.287548,-0.221916 -0.467662,-0.280187 0.07787,-0.06309 0.154671,-0.162547 0.230248,-0.298488 0.07543,-0.135758 0.139889,-0.28389 0.193529,-0.444029 0.05349,-0.160231 0.09021,-0.321482 0.109564,-0.484106 C 26.47063,9.68952 26.46328,9.549983 26.42946,9.433425 26.34641,9.142343 26.216274,8.914226 26.038444,8.749195 25.860614,8.584256 25.653677,8.470197 25.41748,8.407034 c -0.236345,-0.06289 -0.496764,-0.07637 -0.781722,-0.03999 -0.284957,0.03637 -0.57601,0.107948 -0.873002,0.214708 0,-0.0242 0.0024,-0.04968 0.0073,-0.07638 0.0048,-0.02659 0.0072,-0.05458 0.0072,-0.08376 0,-0.07276 -0.03644,-0.135759 -0.109564,-0.18923 -0.07299,-0.05338 -0.156956,-0.08486 -0.251891,-0.09466 -0.09509,-0.0096 -0.187585,0.0109 -0.277793,0.06188 -0.09006,0.05097 -0.152233,0.144535 -0.186211,0.280186 -0.03902,0.436837 -0.07802,0.890649 -0.116882,1.361284 -0.03902,0.470803 -0.08046,0.946421 -0.12419,1.42693 -0.04389,0.480403 -0.08777,0.957225 -0.131507,1.430343 -0.04389,0.473211 -0.08777,0.928135 -0.131507,1.364865 0.01464,0.13105 0.05105,0.233009 0.109565,0.305787 0.05836,0.07286 0.126632,0.116543 0.204499,0.13105 0.07787,0.01458 0.159541,0.0011 0.244726,-0.04009 0.08518,-0.0411 0.159546,-0.112855 0.222936,-0.214708 0.194745,0.10676 0.414027,0.175926 0.657532,0.207515 0.24351,0.03148 0.49052,0.03148 0.741648,0 0.250669,-0.03159 0.497838,-0.09097 0.741343,-0.178425 0.243509,-0.08729 0.465229,-0.196529 0.664849,-0.327486 0.199772,-0.13105 0.367699,-0.280385 0.504234,-0.447717 0.13623,-0.16753 0.226442,-0.348272 0.270175,-0.542301 0.04389,-0.199012 0.05608,-0.397933 0.03659,-0.596961 -0.01951,-0.19892 -0.06827,-0.383258 -0.146133,-0.553272 z"
     fill="#0d0c23"
     id="path16"
     style="stroke-width:0.152383" />
  <path
     fill-rule="evenodd"
     clip-rule="evenodd"
     d="m 33.827361,15.650044 c -0.02666,0.160155 -0.06461,0.328843 -0.113219,0.506064 -0.04876,0.176917 -0.105906,0.338443 -0.171586,0.484121 -0.06583,0.145526 -0.13882,0.263013 -0.219125,0.352919 -0.08046,0.08975 -0.167011,0.127392 -0.259508,0.112916 -0.07299,-0.0099 -0.119315,-0.05592 -0.138667,-0.138364 -0.01965,-0.08259 -0.01965,-0.184535 0,-0.30568 0.01937,-0.121449 0.05699,-0.258594 0.113066,-0.411434 0.05608,-0.15284 0.124342,-0.304614 0.204652,-0.454863 0.08046,-0.150555 0.171734,-0.294862 0.273981,-0.433226 0.102252,-0.138181 0.209375,-0.253535 0.321377,-0.345696 0.02438,0.02909 0.03535,0.101868 0.03291,0.218411 -0.0024,0.116466 -0.01708,0.25483 -0.04389,0.414832 z m 2.476834,-3.159251 c -0.06583,-0.07278 -0.146137,-0.113967 -0.241224,-0.12375 -0.09493,-0.0097 -0.191239,0.04368 -0.288459,0.160139 -0.06339,0.116451 -0.143852,0.228102 -0.241225,0.334862 -0.09737,0.106851 -0.198398,0.203828 -0.303088,0.291189 -0.104838,0.08727 -0.204652,0.162623 -0.299587,0.225618 -0.09493,0.06316 -0.169296,0.109244 -0.222783,0.138333 -0.01951,-0.155232 -0.03063,-0.322671 -0.03291,-0.5023 -0.0024,-0.179538 0.0014,-0.361468 0.01097,-0.545897 0.01445,-0.262084 0.04494,-0.526499 0.09128,-0.793489 0.04632,-0.266884 0.113219,-0.528983 0.200989,-0.786281 0,-0.135758 -0.03186,-0.246205 -0.09508,-0.331175 -0.06339,-0.08486 -0.140041,-0.138333 -0.230101,-0.160139 -0.09021,-0.02179 -0.182557,-0.0097 -0.27764,0.03639 -0.09493,0.04617 -0.17646,0.129937 -0.24473,0.251112 -0.05836,0.160231 -0.125411,0.339753 -0.200841,0.538689 -0.07558,0.199013 -0.160763,0.401636 -0.255697,0.607856 -0.09509,0.206403 -0.200994,0.406528 -0.317871,0.600572 -0.116878,0.194213 -0.244726,0.366542 -0.383546,0.516884 -0.138825,0.150448 -0.289837,0.268194 -0.452884,0.353071 -0.163358,0.08495 -0.339661,0.122547 -0.529684,0.112855 -0.08777,-0.02429 -0.151165,-0.08977 -0.190022,-0.19662 -0.03902,-0.106668 -0.06217,-0.240216 -0.06933,-0.400356 -0.0073,-0.160139 0,-0.336065 0.0218,-0.527794 0.02194,-0.191622 0.0512,-0.382146 0.08778,-0.571375 0.0364,-0.189321 0.07665,-0.368858 0.120378,-0.538689 0.04388,-0.169831 0.08518,-0.313072 0.124195,-0.429522 0.05851,-0.140665 0.05851,-0.258503 0,-0.353072 -0.05836,-0.09466 -0.138667,-0.15764 -0.240919,-0.189321 -0.102248,-0.03148 -0.209528,-0.0302 -0.321525,0.0037 -0.112002,0.03398 -0.19246,0.109152 -0.241072,0.225603 -0.0829,0.199119 -0.158478,0.422238 -0.226595,0.669739 -0.06811,0.247515 -0.122974,0.503595 -0.164268,0.76801 -0.04145,0.264583 -0.06476,0.526682 -0.06949,0.786282 -3.05e-4,0.0169 4.58e-4,0.03296 4.58e-4,0.04977 -0.106211,0.282137 -0.207395,0.495382 -0.303546,0.638074 -0.124195,0.184505 -0.264388,0.264582 -0.420123,0.240201 -0.06842,-0.02909 -0.113219,-0.09698 -0.135161,-0.203828 -0.02209,-0.106668 -0.02924,-0.237702 -0.02209,-0.393133 0.0074,-0.155156 0.02576,-0.331082 0.05486,-0.527702 0.02938,-0.196529 0.06567,-0.400341 0.109565,-0.611468 0.04389,-0.211203 0.09021,-0.423335 0.13882,-0.636946 0.04876,-0.213519 0.0925,-0.414939 0.13166,-0.604259 -0.0049,-0.169831 -0.05486,-0.299586 -0.149944,-0.389446 -0.09478,-0.08968 -0.227663,-0.124862 -0.398028,-0.105555 -0.116877,0.04856 -0.203431,0.111742 -0.259356,0.18932 -0.05608,0.07756 -0.101179,0.17713 -0.135161,0.298381 -0.01965,0.06318 -0.04877,0.189321 -0.08777,0.378642 -0.03902,0.189138 -0.08884,0.406451 -0.149791,0.651452 -0.0608,0.2452 -0.132728,0.501112 -0.215471,0.767996 -0.08274,0.266899 -0.175392,0.508502 -0.277487,0.724322 -0.102405,0.215927 -0.214402,0.389445 -0.336159,0.520495 -0.121753,0.130958 -0.25326,0.184429 -0.394518,0.160139 -0.07802,-0.01458 -0.127853,-0.09466 -0.149795,-0.240201 -0.02194,-0.145648 -0.02542,-0.325079 -0.01097,-0.538689 0.01465,-0.213519 0.04389,-0.447732 0.08762,-0.70244 0.04389,-0.2548 0.08884,-0.496205 0.135161,-0.724399 0.04632,-0.228026 0.08899,-0.429537 0.128001,-0.604168 0.03888,-0.174738 0.06568,-0.291189 0.08031,-0.349369 0,-0.140741 -0.03186,-0.253504 -0.09494,-0.338565 -0.06339,-0.08479 -0.140041,-0.138257 -0.230254,-0.160139 -0.09021,-0.02179 -0.182705,-0.0097 -0.277487,0.03639 -0.09509,0.04617 -0.176613,0.129937 -0.244878,0.251097 -0.02438,0.131049 -0.05608,0.282792 -0.09493,0.455031 -0.03902,0.172223 -0.07665,0.349368 -0.113224,0.53139 -0.03659,0.182022 -0.0707,0.360355 -0.102247,0.535078 -0.03172,0.174737 -0.05486,0.327577 -0.06949,0.458627 -0.0098,0.101868 -0.02075,0.226914 -0.03277,0.374862 -0.01235,0.148132 -0.01846,0.304568 -0.01846,0.469508 0,0.165137 0.01221,0.328873 0.03673,0.491405 0.02423,0.162638 0.06812,0.311882 0.131354,0.44764 0.06324,0.135941 0.152229,0.247501 0.266821,0.334862 0.114287,0.08736 0.259204,0.135849 0.434596,0.145648 0.180119,0.0096 0.337223,-0.0036 0.471321,-0.04009 0.133792,-0.03639 0.255549,-0.09346 0.365262,-0.171127 0.109564,-0.07749 0.209374,-0.169739 0.299587,-0.27659 0.08991,-0.106668 0.178898,-0.223119 0.266516,-0.349369 0.0829,0.184521 0.190022,0.327578 0.321529,0.429523 0.131508,0.101867 0.270327,0.162638 0.416465,0.181945 0.145979,0.01929 0.294707,-0.0011 0.445719,-0.06188 0.15086,-0.06059 0.287242,-0.163736 0.408995,-0.309383 0.08031,-0.0893 0.155887,-0.190799 0.2269,-0.302999 0.03015,0.05254 0.06217,0.10324 0.09829,0.150067 0.119315,0.155431 0.281298,0.262099 0.485951,0.32037 0.219124,0.05827 0.433221,0.06807 0.642749,0.02918 0.209374,-0.03878 0.409147,-0.109244 0.599016,-0.211112 0.190023,-0.101959 0.366484,-0.224415 0.529836,-0.367654 0.163052,-0.143149 0.305531,-0.292302 0.427283,-0.447717 -0.0049,0.111651 -0.0073,0.217298 -0.0073,0.316667 0,0.09955 -0.0024,0.207424 -0.0072,0.323966 -0.243658,0.169938 -0.473758,0.37375 -0.690446,0.611468 -0.21684,0.237717 -0.406862,0.491313 -0.569914,0.760666 -0.1632,0.269261 -0.291049,0.542331 -0.383393,0.818906 -0.09265,0.276728 -0.137756,0.535169 -0.135319,0.775477 0.0024,0.240156 0.05958,0.449988 0.171739,0.629495 0.111849,0.179659 0.294554,0.308119 0.547814,0.385834 0.263167,0.08259 0.494332,0.08488 0.694257,0.0073 0.199624,-0.07771 0.373643,-0.206326 0.522218,-0.385834 0.148574,-0.179507 0.270327,-0.396653 0.365414,-0.651437 0.09494,-0.254785 0.170365,-0.520541 0.226442,-0.797116 0.05593,-0.276575 0.09128,-0.548579 0.105907,-0.815295 0.01464,-0.26699 0.01464,-0.504891 0,-0.713503 0.418901,-0.174646 0.762221,-0.395464 1.030111,-0.662455 0.267885,-0.266701 0.489452,-0.548289 0.664844,-0.84437 0.05349,-0.07278 0.07177,-0.160139 0.05486,-0.262007 -0.01722,-0.101945 -0.05851,-0.189321 -0.12419,-0.262084 z"
     fill="#0d0c23"
     id="path17"
     style="stroke-width:0.152383" />
  <path
     fill-rule="evenodd"
     clip-rule="evenodd"
     d="m 45.520472,12.02508 c 0.01465,-0.11156 0.03659,-0.229306 0.06568,-0.353056 0.02924,-0.123751 0.06583,-0.243905 0.109717,-0.360356 0.04374,-0.116451 0.09493,-0.217115 0.15345,-0.302084 0.05836,-0.08488 0.120532,-0.145541 0.186211,-0.182022 0.06583,-0.0363 0.132571,-0.0327 0.200994,0.01089 0.07299,0.04378 0.117941,0.135942 0.135161,0.276591 0.01693,0.140924 0,0.29128 -0.0512,0.45142 -0.0512,0.16023 -0.142478,0.310571 -0.273986,0.451327 -0.131507,0.140833 -0.309337,0.232903 -0.533341,0.276591 -0.0097,-0.06778 -0.0073,-0.15764 0.0073,-0.269307 z m 2.531391,0.298396 c -0.0803,-0.02411 -0.156956,-0.02659 -0.230101,-0.0072 -0.07299,0.0194 -0.119315,0.07037 -0.138667,0.152947 -0.03916,0.155232 -0.101337,0.314168 -0.186517,0.476715 -0.08518,0.162638 -0.189869,0.316667 -0.313911,0.462315 -0.12419,0.145541 -0.264384,0.274198 -0.420119,0.385757 -0.15604,0.111651 -0.319087,0.191713 -0.489604,0.240202 -0.170518,0.05347 -0.31178,0.05947 -0.423625,0.01819 -0.112155,-0.0411 -0.200993,-0.111559 -0.266673,-0.21102 -0.06583,-0.09946 -0.113371,-0.219614 -0.142479,-0.360355 -0.02924,-0.140756 -0.04632,-0.286297 -0.0512,-0.436837 0.27764,0.01949 0.524803,-0.03018 0.741648,-0.149229 0.216534,-0.118767 0.40046,-0.276605 0.551473,-0.473133 0.150859,-0.196514 0.265452,-0.417332 0.343319,-0.66244 0.07787,-0.245002 0.121753,-0.488906 0.131507,-0.731606 0.0049,-0.228118 -0.0291,-0.420944 -0.102252,-0.578675 -0.07299,-0.157656 -0.171733,-0.280385 -0.295928,-0.367655 -0.124037,-0.08736 -0.266669,-0.138348 -0.427278,-0.15284 -0.160615,-0.0146 -0.323968,0.0073 -0.48961,0.06548 -0.199772,0.06796 -0.36892,0.178319 -0.50774,0.331266 -0.13882,0.15284 -0.254476,0.330061 -0.346974,0.53139 -0.0925,0.20142 -0.165642,0.418535 -0.219129,0.651453 -0.05364,0.232993 -0.09265,0.462315 -0.116878,0.688025 -0.02194,0.202517 -0.03368,0.39618 -0.03778,0.583108 -0.01049,0.02373 -0.02056,0.04654 -0.03167,0.07194 -0.07558,0.172422 -0.163353,0.341049 -0.263015,0.505988 -0.09981,0.165046 -0.210744,0.30338 -0.332344,0.414939 -0.121757,0.111667 -0.248384,0.150448 -0.379891,0.116467 -0.07802,-0.01931 -0.120537,-0.109259 -0.127849,-0.269307 -0.0073,-0.160231 9.54e-4,-0.359151 0.02542,-0.596961 0.02438,-0.237717 0.05242,-0.495092 0.08412,-0.771698 0.03153,-0.27659 0.04742,-0.54099 0.04742,-0.793397 0,-0.218411 -0.04145,-0.428227 -0.12419,-0.629738 -0.08289,-0.201237 -0.196119,-0.368768 -0.339661,-0.502209 -0.1437,-0.133549 -0.310558,-0.222114 -0.500428,-0.265696 -0.190022,-0.04378 -0.394517,-0.0146 -0.613647,0.08727 -0.219277,0.101959 -0.393453,0.245092 -0.52237,0.429521 -0.129218,0.184521 -0.247316,0.37855 -0.354444,0.582378 -0.03902,-0.155339 -0.09615,-0.299585 -0.171733,-0.433134 -0.07543,-0.133441 -0.167927,-0.249908 -0.277487,-0.34946 -0.109718,-0.09937 -0.232844,-0.177038 -0.368921,-0.232917 -0.136382,-0.05568 -0.280235,-0.08366 -0.431247,-0.08366 -0.14598,0 -0.281146,0.02798 -0.405336,0.08366 -0.124195,0.05588 -0.237413,0.127362 -0.339813,0.214723 -0.102252,0.08745 -0.19475,0.185633 -0.277645,0.294876 -0.08274,0.109168 -0.155887,0.217222 -0.219125,0.323891 -0.0099,-0.126159 -0.02075,-0.236514 -0.03277,-0.331281 -0.01235,-0.09455 -0.0343,-0.174631 -0.06583,-0.24011 -0.03167,-0.06557 -0.07665,-0.115247 -0.135161,-0.149244 -0.05851,-0.03389 -0.141262,-0.05097 -0.248385,-0.05097 -0.05364,0 -0.10728,0.01089 -0.160767,0.03269 -0.05364,0.0219 -0.101179,0.05228 -0.142478,0.09106 -0.04145,0.03898 -0.07299,0.08616 -0.09493,0.141945 -0.02194,0.05579 -0.02791,0.120154 -0.01827,0.192917 0.0049,0.05347 0.01827,0.11767 0.04021,0.192932 0.0218,0.07526 0.0425,0.173625 0.06202,0.294785 0.01951,0.121358 0.03535,0.268194 0.04756,0.440433 0.01221,0.17233 0.01569,0.383441 0.01097,0.633349 -0.005,0.25 -0.02318,0.542286 -0.05486,0.877148 -0.03172,0.334877 -0.08168,0.723118 -0.149792,1.164663 -0.0097,0.101945 0.02924,0.184521 0.11703,0.247593 0.08762,0.06298 0.187432,0.09937 0.29943,0.109151 0.112002,0.0097 0.218061,-0.0098 0.317871,-0.05818 0.09981,-0.04867 0.157108,-0.133534 0.171586,-0.2548 0.01464,-0.228103 0.04265,-0.470712 0.08412,-0.72801 0.04131,-0.257101 0.0925,-0.511901 0.15345,-0.764308 0.0608,-0.2523 0.130133,-0.492502 0.208153,-0.720711 0.07787,-0.228102 0.164421,-0.429431 0.259356,-0.604168 0.09509,-0.174723 0.193681,-0.314184 0.295929,-0.418536 0.102247,-0.104352 0.209374,-0.156542 0.321529,-0.156542 0.13623,0 0.242136,0.06179 0.317718,0.185541 0.07543,0.123842 0.128918,0.282869 0.160763,0.476807 0.03153,0.194227 0.04617,0.406634 0.04388,0.637052 -0.0024,0.23051 -0.01235,0.452517 -0.02924,0.666036 -0.01708,0.213611 -0.03659,0.404044 -0.05851,0.571482 -0.02194,0.167439 -0.03778,0.282777 -0.04742,0.345758 0,0.111666 0.0425,0.200139 0.127696,0.26571 0.08518,0.06546 0.180115,0.104352 0.284957,0.116451 0.104838,0.01219 0.203279,-0.0073 0.295929,-0.05827 0.0925,-0.05099 0.146132,-0.136962 0.160762,-0.258411 0.04861,-0.349368 0.115661,-0.699926 0.200841,-1.051793 0.08518,-0.351852 0.18271,-0.66724 0.29227,-0.946329 0.109564,-0.27909 0.231317,-0.507192 0.365262,-0.684322 0.133945,-0.177039 0.276423,-0.26571 0.427435,-0.26571 0.07787,0 0.137604,0.05347 0.178899,0.160139 0.04145,0.10676 0.06217,0.252316 0.06217,0.436745 0,0.135941 -0.01097,0.275478 -0.03277,0.418626 -0.02209,0.143149 -0.04756,0.291189 -0.0768,0.444029 -0.02924,0.152932 -0.05486,0.309384 -0.0768,0.469523 -0.0218,0.160231 -0.03277,0.327563 -0.03277,0.502301 0,0.121342 0.01221,0.262083 0.03659,0.422222 0.02423,0.160048 0.0704,0.311883 0.138668,0.454925 0.06827,0.14324 0.161983,0.264506 0.281451,0.363967 0.119319,0.09946 0.271395,0.149244 0.45639,0.149244 0.277792,0 0.523587,-0.05948 0.737989,-0.178334 0.21425,-0.118859 0.398176,-0.274107 0.551626,-0.46582 0.0079,-0.01008 0.01522,-0.02078 0.02299,-0.03075 0.01173,0.02834 0.02209,0.05836 0.03535,0.08532 0.10469,0.213519 0.247169,0.378459 0.427436,0.495016 0.18012,0.116451 0.392084,0.180727 0.635742,0.192917 0.243357,0.01201 0.508809,-0.03287 0.796356,-0.134737 0.214097,-0.07767 0.400461,-0.174737 0.558786,-0.291189 0.158177,-0.116451 0.300655,-0.258395 0.427283,-0.425834 0.126785,-0.167439 0.242288,-0.360355 0.347131,-0.578675 0.104837,-0.218502 0.210591,-0.468318 0.317718,-0.749907 0.01951,-0.07747 0.0014,-0.146653 -0.05471,-0.207409 -0.05607,-0.06059 -0.12419,-0.103072 -0.204648,-0.127453 z"
     fill="#0d0c23"
     id="path18"
     style="stroke-width:0.152383" />
  <path
     fill-rule="evenodd"
     clip-rule="evenodd"
     d="m 52.022506,11.511503 c -0.02438,0.14324 -0.05714,0.301063 -0.09859,0.473211 -0.04145,0.17233 -0.09371,0.350664 -0.157104,0.535093 -0.06324,0.184414 -0.141262,0.350648 -0.233755,0.498597 -0.0925,0.148132 -0.198556,0.265695 -0.317718,0.353072 -0.119472,0.08736 -0.256918,0.12375 -0.412806,0.109151 -0.07802,-0.0096 -0.137756,-0.06298 -0.179051,-0.160139 -0.04145,-0.09696 -0.06324,-0.220803 -0.06583,-0.37125 -0.0024,-0.150357 0.01097,-0.315388 0.04021,-0.495001 0.02924,-0.179447 0.07421,-0.355465 0.135314,-0.527795 0.0608,-0.172147 0.135013,-0.331174 0.222635,-0.476821 0.08777,-0.145542 0.188802,-0.258396 0.303241,-0.338458 0.11444,-0.08008 0.240004,-0.117564 0.376234,-0.112855 0.136382,0.0049 0.282519,0.07276 0.438407,0.203812 -0.0099,0.06318 -0.02681,0.166326 -0.0512,0.309383 z m 2.597214,0.556884 c -0.0756,-0.03879 -0.153446,-0.04719 -0.233751,-0.0254 -0.08031,0.02179 -0.137603,0.09586 -0.171585,0.222022 -0.01951,0.135942 -0.06339,0.295989 -0.131508,0.480404 -0.06826,0.184428 -0.152381,0.359257 -0.252038,0.524105 -0.09996,0.165032 -0.214403,0.302176 -0.343472,0.411328 -0.12907,0.109259 -0.266674,0.159042 -0.412653,0.149153 -0.121906,-0.0096 -0.207243,-0.07148 -0.255698,-0.185527 -0.04892,-0.114058 -0.07437,-0.257116 -0.0768,-0.429537 -0.0024,-0.172147 0.01464,-0.366268 0.05105,-0.582271 0.03659,-0.215927 0.08046,-0.43065 0.131508,-0.644352 0.0512,-0.213428 0.103616,-0.418535 0.157256,-0.615064 0.05349,-0.196513 0.09722,-0.362747 0.131507,-0.498597 0.03888,-0.121358 0.02666,-0.224414 -0.03659,-0.309474 -0.06339,-0.08479 -0.142479,-0.145557 -0.237414,-0.181931 -0.09509,-0.03639 -0.191391,-0.0461 -0.288763,-0.0291 -0.09737,0.017 -0.160615,0.06918 -0.18987,0.156452 -0.287395,-0.247501 -0.563818,-0.380958 -0.829118,-0.400341 -0.265604,-0.0194 -0.51033,0.03887 -0.73433,0.174722 -0.224157,0.135849 -0.422561,0.332378 -0.595363,0.589677 -0.172955,0.257283 -0.312996,0.537485 -0.420271,0.840773 -0.107127,0.303273 -0.174023,0.612748 -0.200841,0.928135 -0.02681,0.315463 -0.0061,0.603056 0.06217,0.862656 0.06827,0.259599 0.188653,0.472006 0.361608,0.636854 0.172802,0.165031 0.407926,0.247607 0.705076,0.247607 0.131507,0 0.258134,-0.0267 0.379892,-0.08008 0.121599,-0.05347 0.233754,-0.116543 0.336002,-0.189321 0.102252,-0.07278 0.192307,-0.149244 0.270479,-0.229306 0.07772,-0.08008 0.138672,-0.146744 0.182558,-0.200216 0.03396,0.174723 0.09006,0.322854 0.168079,0.444121 0.07771,0.121251 0.166706,0.220894 0.266516,0.298381 0.09981,0.07758 0.204652,0.134645 0.314212,0.171126 0.109565,0.03639 0.215624,0.05458 0.317719,0.05458 0.229032,0 0.443129,-0.07767 0.643059,-0.233009 0.19962,-0.155141 0.378671,-0.345757 0.536996,-0.571376 0.158177,-0.22571 0.288618,-0.463427 0.390708,-0.713427 0.1024,-0.249893 0.17052,-0.471915 0.20465,-0.666127 0.0342,-0.07278 0.0279,-0.149153 -0.0183,-0.229215 -0.0463,-0.08008 -0.10712,-0.139461 -0.1827,-0.178425 z"
     fill="#0d0c23"
     id="path19"
     style="stroke-width:0.152383" />
  <path
     fill-rule="evenodd"
     clip-rule="evenodd"
     d="m 67.77054,16.087231 c -0.0413,0.164879 -0.10591,0.304614 -0.19369,0.418596 -0.0876,0.113983 -0.19718,0.173412 -0.32869,0.178441 -0.0827,0.0047 -0.14613,-0.03901 -0.19002,-0.13105 -0.0437,-0.09234 -0.0742,-0.211202 -0.0913,-0.356728 -0.0171,-0.145678 -0.0244,-0.308271 -0.022,-0.487778 0.002,-0.179508 0.01,-0.356729 0.022,-0.531421 0.012,-0.174631 0.0268,-0.337361 0.0439,-0.487702 0.0169,-0.150539 0.0303,-0.266808 0.0401,-0.349369 0.16564,0.01939 0.30339,0.09087 0.41281,0.214708 0.10956,0.123751 0.19367,0.270511 0.25203,0.440433 0.0585,0.169831 0.0925,0.353117 0.10241,0.549539 0.01,0.196574 -0.006,0.3773 -0.0476,0.542331 z m -2.64477,0 c -0.0413,0.164879 -0.1059,0.304614 -0.19352,0.418596 -0.0876,0.113983 -0.19734,0.173412 -0.32885,0.178441 -0.0827,0.0047 -0.14598,-0.03901 -0.18987,-0.13105 -0.0439,-0.09234 -0.0744,-0.211202 -0.0913,-0.356728 -0.0172,-0.145678 -0.0245,-0.308271 -0.022,-0.487778 0.002,-0.179508 0.01,-0.356729 0.022,-0.531421 0.012,-0.174631 0.0267,-0.337361 0.0437,-0.487702 0.0171,-0.150539 0.0303,-0.266808 0.0402,-0.349369 0.16549,0.01939 0.30324,0.09087 0.41265,0.214708 0.10972,0.123751 0.19368,0.270511 0.2522,0.440433 0.0585,0.169831 0.0925,0.353117 0.10225,0.549539 0.01,0.196574 -0.006,0.3773 -0.0476,0.542331 z m -2.71394,-4.134686 c -0.005,0.11636 -0.016,0.219524 -0.0331,0.309292 -0.0171,0.08995 -0.0401,0.146837 -0.0693,0.171127 -0.0536,-0.02918 -0.11947,-0.104261 -0.19734,-0.22571 -0.0779,-0.121251 -0.13867,-0.258487 -0.1827,-0.411343 -0.0438,-0.15284 -0.0573,-0.303181 -0.0401,-0.451313 0.0169,-0.147948 0.0937,-0.263119 0.2301,-0.345772 0.0535,-0.02909 0.0998,-0.01819 0.13882,0.03279 0.039,0.05097 0.0705,0.124939 0.0951,0.222007 0.0242,0.09716 0.0411,0.208719 0.051,0.334878 0.01,0.126234 0.0122,0.2475 0.007,0.364042 z m -0.64671,1.452241 c -0.0756,0.07997 -0.1597,0.149138 -0.25205,0.207425 -0.0927,0.05827 -0.18758,0.101944 -0.28495,0.131049 -0.0975,0.02918 -0.18515,0.03637 -0.26301,0.02179 -0.21913,-0.0436 -0.38721,-0.138349 -0.50409,-0.28389 -0.11688,-0.145556 -0.19124,-0.316591 -0.22278,-0.513104 -0.0317,-0.19662 -0.0282,-0.406543 0.011,-0.629754 0.0389,-0.22321 0.10454,-0.430634 0.19719,-0.622362 0.0925,-0.191729 0.20464,-0.35676 0.336,-0.495001 0.13151,-0.138349 0.2752,-0.224415 0.43109,-0.258503 -0.0585,0.2475 -0.0779,0.503595 -0.0585,0.768011 0.0195,0.26449 0.0829,0.513195 0.19001,0.746097 0.0681,0.140939 0.1498,0.269398 0.24474,0.385849 0.0951,0.116558 0.21074,0.216019 0.34712,0.298488 -0.039,0.08256 -0.0963,0.163827 -0.17173,0.243904 z m 8.08392,-1.379462 c 0.0146,-0.11156 0.0364,-0.229413 0.0658,-0.353163 0.0291,-0.123659 0.0657,-0.243798 0.10941,-0.360264 0.0439,-0.116543 0.0951,-0.217207 0.1536,-0.302084 0.0585,-0.08486 0.12038,-0.145633 0.18621,-0.182022 0.0658,-0.03639 0.13273,-0.03277 0.20085,0.0109 0.0731,0.04378 0.11809,0.135941 0.13516,0.27659 0.0171,0.140848 0,0.291189 -0.0511,0.45142 -0.0512,0.16014 -0.14248,0.310587 -0.27398,0.451237 -0.13136,0.140924 -0.30934,0.233008 -0.53335,0.276682 -0.01,-0.06787 -0.007,-0.157641 0.007,-0.269292 z m 2.94435,0 c 0.0146,-0.11156 0.0364,-0.229413 0.0657,-0.353163 0.0292,-0.123659 0.0658,-0.243798 0.10972,-0.360264 0.0437,-0.116543 0.0948,-0.217207 0.15329,-0.302084 0.0585,-0.08486 0.12069,-0.145633 0.18637,-0.182022 0.0658,-0.03639 0.13272,-0.03277 0.20084,0.0109 0.0731,0.04378 0.1181,0.135941 0.13516,0.27659 0.0171,0.140848 0,0.291189 -0.051,0.45142 -0.0512,0.16014 -0.14248,0.310587 -0.27399,0.451237 -0.13151,0.140924 -0.30934,0.233008 -0.53334,0.276682 -0.01,-0.06787 -0.007,-0.157641 0.007,-0.269292 z m 2.73603,0.425834 c -0.0561,-0.06059 -0.12419,-0.103072 -0.2045,-0.127453 -0.0804,-0.0242 -0.15711,-0.02659 -0.23025,-0.0072 -0.073,0.01938 -0.11947,0.07037 -0.13882,0.15284 -0.039,0.155339 -0.10103,0.314275 -0.18621,0.476715 -0.0853,0.16273 -0.19002,0.316774 -0.31421,0.462315 -0.1242,0.145542 -0.26424,0.27429 -0.41997,0.385849 -0.15604,0.111652 -0.31909,0.191729 -0.48946,0.24011 -0.17067,0.05356 -0.31192,0.05957 -0.42393,0.01828 -0.112,-0.04119 -0.20084,-0.111559 -0.26667,-0.21102 -0.0657,-0.09955 -0.11306,-0.219614 -0.14248,-0.360447 -0.0291,-0.140649 -0.0463,-0.286205 -0.051,-0.436729 0.27764,0.01948 0.52481,-0.03021 0.74149,-0.149244 0.21669,-0.118859 0.40062,-0.276697 0.55178,-0.473211 0.15086,-0.196436 0.2653,-0.417255 0.34317,-0.662348 0.0779,-0.245108 0.12175,-0.488921 0.13166,-0.731621 0.005,-0.228102 -0.0294,-0.421035 -0.1024,-0.578766 -0.073,-0.15764 -0.17159,-0.280293 -0.29578,-0.367564 -0.12435,-0.08745 -0.26667,-0.138348 -0.42759,-0.152931 -0.16061,-0.0146 -0.32381,0.0074 -0.48945,0.06548 -0.19978,0.06805 -0.36892,0.178425 -0.50759,0.331265 -0.13882,0.152932 -0.25463,0.330153 -0.34713,0.531391 -0.0927,0.201511 -0.16564,0.418535 -0.21928,0.651544 -0.0536,0.232918 -0.0925,0.462315 -0.11672,0.687933 -0.0238,0.218959 -0.0366,0.428517 -0.0395,0.629099 -0.0185,0.03998 -0.0381,0.08017 -0.0593,0.12061 -0.0853,0.162731 -0.19002,0.316774 -0.31421,0.462315 -0.12404,0.145542 -0.26423,0.27429 -0.41997,0.38585 -0.15589,0.111651 -0.31909,0.191728 -0.48946,0.24011 -0.17066,0.05356 -0.31177,0.05957 -0.42377,0.01828 -0.11215,-0.04119 -0.201,-0.111559 -0.26667,-0.211019 -0.0657,-0.09955 -0.11322,-0.219615 -0.14248,-0.360448 -0.0292,-0.140649 -0.0463,-0.286205 -0.0512,-0.436729 0.27764,0.01948 0.52481,-0.0302 0.74165,-0.149244 0.21654,-0.118859 0.40046,-0.276697 0.55147,-0.473211 0.15102,-0.196436 0.26546,-0.417255 0.34332,-0.662348 0.0779,-0.245108 0.12191,-0.488921 0.13151,-0.731621 0.005,-0.228102 -0.0291,-0.421034 -0.1021,-0.578766 -0.0731,-0.15764 -0.17189,-0.280293 -0.29608,-0.367564 -0.12419,-0.08745 -0.26652,-0.138348 -0.42728,-0.152931 -0.16077,-0.0146 -0.32397,0.0074 -0.48945,0.06548 -0.19993,0.06805 -0.36908,0.178425 -0.50775,0.331265 -0.13882,0.152932 -0.25463,0.330153 -0.34712,0.531391 -0.0925,0.201511 -0.16549,0.418535 -0.21913,0.651544 -0.0536,0.232918 -0.0927,0.462315 -0.11688,0.687933 -0.0139,0.127255 -0.023,0.25064 -0.0299,0.3718 -0.0471,0.03991 -0.093,0.08008 -0.14187,0.119514 -0.16792,0.135941 -0.34469,0.258396 -0.52968,0.367654 -0.18515,0.109244 -0.37761,0.199013 -0.57708,0.269383 -0.19992,0.07037 -0.40442,0.112855 -0.61379,0.127362 l 0.45303,-4.833621 c 0.0292,-0.101959 0.0146,-0.191622 -0.0439,-0.269292 -0.0584,-0.07767 -0.13394,-0.131049 -0.22644,-0.160139 -0.0925,-0.02918 -0.19124,-0.0267 -0.29593,0.0072 -0.10484,0.03407 -0.19108,0.111742 -0.25935,0.232902 -0.0342,0.184521 -0.0695,0.436822 -0.10591,0.7571 -0.0366,0.320279 -0.0731,0.669739 -0.10956,1.048289 -0.0366,0.37855 -0.0731,0.769199 -0.10956,1.171947 -0.0366,0.402932 -0.0683,0.778998 -0.0951,1.128367 -0.001,0.01551 -0.002,0.02955 -0.003,0.04488 -0.0427,0.03602 -0.084,0.07231 -0.12815,0.107963 -0.16793,0.135941 -0.3447,0.258396 -0.52969,0.367655 -0.18515,0.109243 -0.37745,0.199012 -0.57707,0.269382 -0.19978,0.07037 -0.40443,0.112855 -0.6138,0.127362 l 0.45303,-4.833621 c 0.0292,-0.101959 0.0147,-0.191621 -0.0437,-0.269291 -0.0585,-0.07767 -0.1341,-0.13105 -0.2266,-0.160139 -0.0925,-0.02918 -0.19123,-0.0267 -0.29592,0.0072 -0.10469,0.03407 -0.19109,0.111742 -0.25936,0.232902 -0.0341,0.18452 -0.0693,0.436821 -0.10575,0.7571 -0.0367,0.320278 -0.0731,0.669738 -0.10972,1.048288 -0.0366,0.37855 -0.073,0.769199 -0.10956,1.171948 -0.0364,0.402931 -0.0683,0.778997 -0.0949,1.128366 -4.7e-4,0.007 -9.5e-4,0.01338 -0.002,0.0204 -0.0765,0.03537 -0.15986,0.06641 -0.25053,0.09245 -0.0925,0.02678 -0.19718,0.04256 -0.31406,0.04738 0.0195,-0.08747 0.0352,-0.184521 0.0474,-0.291281 0.0122,-0.106668 0.0221,-0.218319 0.0294,-0.334877 0.007,-0.116359 0.01,-0.232902 0.007,-0.349368 -0.002,-0.116542 -0.009,-0.223211 -0.0183,-0.32037 -0.0245,-0.208521 -0.0695,-0.406345 -0.13516,-0.593258 -0.0658,-0.186745 -0.15467,-0.343182 -0.26667,-0.469523 -0.11215,-0.126157 -0.25204,-0.211111 -0.42027,-0.254708 -0.16793,-0.04369 -0.36404,-0.02918 -0.5879,0.0436 -0.33143,-0.0436 -0.62964,-0.01321 -0.89509,0.09105 -0.26546,0.104458 -0.4957,0.256003 -0.69045,0.454924 -0.19475,0.199119 -0.35429,0.433134 -0.47848,0.702532 -0.12419,0.269291 -0.20709,0.545988 -0.24839,0.829786 -0.0175,0.120322 -0.026,0.24011 -0.0287,0.359609 -0.0754,0.153861 -0.15802,0.288324 -0.24899,0.401179 -0.12907,0.160139 -0.26301,0.291189 -0.40183,0.393057 -0.13882,0.101944 -0.27643,0.179614 -0.41266,0.232994 -0.13653,0.05347 -0.25829,0.08986 -0.36541,0.109167 -0.12663,0.02429 -0.24839,0.02677 -0.36526,0.0073 -0.11688,-0.01931 -0.22416,-0.07519 -0.32138,-0.167438 -0.078,-0.06789 -0.13776,-0.17713 -0.17905,-0.327578 -0.0415,-0.150433 -0.0657,-0.321376 -0.073,-0.513196 -0.007,-0.191728 0,-0.391944 0.0218,-0.600572 0.0219,-0.208612 0.0596,-0.406436 0.11322,-0.593258 0.0536,-0.186836 0.1216,-0.35426 0.20465,-0.502407 0.0826,-0.147842 0.18012,-0.253504 0.29227,-0.316576 0.0631,0.0098 0.10225,0.04729 0.11688,0.112764 0.0146,0.06557 0.0181,0.14324 0.0108,0.233009 -0.007,0.08985 -0.0181,0.182022 -0.0328,0.27659 -0.0147,0.09466 -0.0219,0.173626 -0.0219,0.236605 0.0244,0.13105 0.0718,0.233009 0.14248,0.305772 0.0705,0.07278 0.14979,0.115354 0.23741,0.127362 0.0876,0.01219 0.17402,-0.0084 0.25951,-0.06188 0.085,-0.05329 0.15437,-0.138242 0.20816,-0.254799 0.005,0.0049 0.012,0.0073 0.0218,0.0073 l 0.1024,-0.924447 c 0.0291,-0.12625 0.01,-0.237809 -0.0585,-0.334862 -0.0683,-0.09707 -0.15832,-0.152932 -0.27032,-0.167439 -0.14126,-0.203827 -0.33251,-0.311775 -0.57357,-0.323966 -0.24107,-0.0121 -0.48824,0.06676 -0.7415,0.236606 -0.15589,0.111742 -0.29349,0.265695 -0.4128,0.462223 -0.11948,0.19662 -0.2167,0.414939 -0.29213,0.65514 -0.0757,0.240202 -0.12921,0.493904 -0.16076,0.760803 -0.0317,0.266884 -0.0378,0.52659 -0.0184,0.7788 0.0195,0.252483 0.0646,0.490292 0.13531,0.713411 0.0706,0.223317 0.16915,0.410139 0.29593,0.560495 0.10713,0.13105 0.22873,0.22699 0.36511,0.287669 0.13638,0.06068 0.27886,0.09818 0.42744,0.112763 0.14857,0.01451 0.29593,0.0084 0.44206,-0.01819 0.14614,-0.02659 0.28495,-0.06418 0.41646,-0.112855 0.17037,-0.06298 0.34591,-0.143148 0.52603,-0.240201 0.18012,-0.09698 0.35307,-0.213519 0.51871,-0.34946 0.0872,-0.07148 0.17097,-0.149427 0.25204,-0.233009 0.0369,0.09125 0.0782,0.179537 0.12785,0.26219 0.13151,0.218319 0.30919,0.395541 0.53334,0.53139 0.22385,0.13585 0.49921,0.201237 0.82546,0.196529 0.35079,-0.0049 0.6746,-0.09337 0.97175,-0.265695 0.29714,-0.172147 0.54065,-0.425926 0.73067,-0.760712 0.2845,0 0.56443,-0.04672 0.83963,-0.139537 -0.002,0.02936 -0.005,0.0603 -0.007,0.08866 -0.0194,0.257207 -0.0292,0.431838 -0.0292,0.52409 -0.005,0.16014 -0.0157,0.357872 -0.0328,0.593182 -0.0171,0.235402 -0.028,0.482917 -0.0329,0.742456 -0.005,0.25966 0.005,0.52176 0.0292,0.786296 0.0244,0.264385 0.0754,0.504693 0.15345,0.720772 0.0777,0.215775 0.1885,0.399092 0.33235,0.549646 0.14354,0.15025 0.33235,0.240156 0.56625,0.269261 0.24839,0.03383 0.46264,-0.0098 0.64291,-0.13105 0.18011,-0.121449 0.32625,-0.287546 0.43841,-0.498597 0.11199,-0.211203 0.19093,-0.455016 0.2374,-0.731591 0.0462,-0.276727 0.0596,-0.554522 0.0402,-0.833687 -0.0197,-0.279029 -0.0709,-0.54224 -0.15361,-0.78965 -0.0827,-0.247591 -0.19733,-0.451419 -0.34331,-0.61165 0.0878,-0.02411 0.1923,-0.07019 0.31421,-0.138242 0.1216,-0.06789 0.24701,-0.144352 0.37624,-0.229321 0.0317,-0.02086 0.0629,-0.04285 0.0946,-0.06428 -0.0119,0.171964 -0.018,0.294602 -0.018,0.36645 -0.005,0.16014 -0.0157,0.357872 -0.0329,0.593182 -0.0169,0.235402 -0.0279,0.482917 -0.0328,0.742456 -0.005,0.25966 0.005,0.52176 0.0292,0.786296 0.0242,0.264385 0.0754,0.504693 0.1533,0.720772 0.0779,0.215775 0.1888,0.399092 0.33234,0.549646 0.1437,0.15025 0.3325,0.240156 0.56641,0.269261 0.24823,0.03383 0.46248,-0.0098 0.64275,-0.13105 0.18027,-0.121449 0.32641,-0.287546 0.43841,-0.498597 0.112,-0.211203 0.19109,-0.455016 0.23741,-0.731591 0.0463,-0.276727 0.0596,-0.554522 0.0402,-0.833687 -0.0195,-0.279029 -0.0707,-0.54224 -0.15329,-0.78965 -0.0831,-0.247591 -0.19734,-0.451419 -0.34363,-0.61165 0.0878,-0.02411 0.19246,-0.07019 0.31421,-0.138242 0.12176,-0.06789 0.24717,-0.144352 0.37639,-0.229321 0.0671,-0.04413 0.13364,-0.08966 0.20023,-0.13649 0.025,0.237337 0.0789,0.445508 0.16488,0.620611 0.10484,0.21361 0.24717,0.37855 0.42743,0.495092 0.18012,0.11636 0.39209,0.180727 0.63575,0.192826 0.24351,0.01201 0.50881,-0.03278 0.79635,-0.134737 0.21425,-0.07758 0.40046,-0.174631 0.55879,-0.291098 0.15818,-0.116542 0.30065,-0.258487 0.42743,-0.425834 0.007,-0.0097 0.0142,-0.02022 0.0213,-0.03 0.0226,0.06796 0.0476,0.133259 0.0773,0.193755 0.10484,0.21361 0.24731,0.37855 0.42743,0.495092 0.18012,0.11636 0.39208,0.180727 0.63559,0.192826 0.24351,0.01201 0.50896,-0.03278 0.79635,-0.134737 0.21441,-0.07758 0.40062,-0.174631 0.55895,-0.291098 0.15817,-0.116542 0.30065,-0.258487 0.42743,-0.425834 0.12663,-0.167515 0.24214,-0.360447 0.34698,-0.578766 0.10468,-0.21841 0.21059,-0.468228 0.31787,-0.749801 0.0194,-0.07758 9.5e-4,-0.146745 -0.0549,-0.207423 z"
     fill="#0d0c23"
     id="path20"
     style="stroke-width:0.152383" />
  <metadata
     id="metadata23">
    <rdf:RDF>
      <cc:Work
         rdf:about="" />
    </rdf:RDF>
  </metadata>
</svg>
