<?xml version="1.0" encoding="UTF-8" standalone="no"?>
<svg
   width="174"
   height="48.875999"
   viewBox="0 0 174 48.875999"
   fill="none"
   version="1.1"
   id="svg20"
   sodipodi:docname="bmc-button-medium.svg"
   inkscape:version="1.4 (e7c3feb100, 2024-10-09)"
   xmlns:inkscape="http://www.inkscape.org/namespaces/inkscape"
   xmlns:sodipodi="http://sodipodi.sourceforge.net/DTD/sodipodi-0.dtd"
   xmlns="http://www.w3.org/2000/svg"
   xmlns:svg="http://www.w3.org/2000/svg"
   xmlns:rdf="http://www.w3.org/1999/02/22-rdf-syntax-ns#"
   xmlns:cc="http://creativecommons.org/ns#">
  <defs
     id="defs20" />
  <sodipodi:namedview
     id="namedview20"
     pagecolor="#505050"
     bordercolor="#ffffff"
     borderopacity="1"
     inkscape:showpageshadow="0"
     inkscape:pageopacity="0"
     inkscape:pagecheckerboard="1"
     inkscape:deskcolor="#d1d1d1"
     inkscape:zoom="2.0917431"
     inkscape:cx="145.8114"
     inkscape:cy="76.730263"
     inkscape:window-width="1920"
     inkscape:window-height="1010"
     inkscape:window-x="0"
     inkscape:window-y="0"
     inkscape:window-maximized="0"
     inkscape:current-layer="svg20">
    <sodipodi:guide
       position="0,48.875999"
       orientation="0,174"
       id="guide20"
       inkscape:locked="false" />
    <sodipodi:guide
       position="174,48.875999"
       orientation="48.875999,0"
       id="guide21"
       inkscape:locked="false" />
    <sodipodi:guide
       position="174,0"
       orientation="0,-174"
       id="guide22"
       inkscape:locked="false" />
    <sodipodi:guide
       position="0,0"
       orientation="-48.875999,0"
       id="guide23"
       inkscape:locked="false" />
  </sodipodi:namedview>
  <path
     d="M 0,7.820224 C 0,3.501243 3.50124,0 7.82022,0 H 166.17978 C 170.49879,0 174,3.501243 174,7.820224 V 41.05618 c 0,4.319013 -3.50121,7.820222 -7.82022,7.820222 H 7.82022 C 3.50124,48.876402 0,45.375193 0,41.05618 Z"
     fill="#ffdd00"
     id="path1"
     style="stroke-width:0.319454" />
  <path
     d="m 34.9872,16.074203 -0.0214,-0.01262 -0.0498,-0.01517 c 0.0201,0.01687 0.045,0.02664 0.0712,0.02779 z"
     fill="#0d0c22"
     id="path2"
     style="stroke-width:0.319454" />
  <path
     d="m 35.30186,18.308973 -0.024,0.0067 z"
     fill="#0d0c22"
     id="path3"
     style="stroke-width:0.319454" />
  <path
     d="m 34.99583,16.070498 c -0.003,-3.52e-4 -0.005,-9.91e-4 -0.008,-0.0019 -3.2e-4,0.0018 -3.2e-4,0.0035 0,0.0053 0.003,-3.83e-4 0.005,-0.0016 0.008,-0.0034 z"
     fill="#0d0c22"
     id="path4"
     style="stroke-width:0.319454" />
  <path
     d="m 34.98752,16.075066 h 0.004 v -0.0025 z"
     fill="#0d0c22"
     id="path5"
     style="stroke-width:0.319454" />
  <path
     d="m 35.28269,18.304884 0.0361,-0.02061 0.0134,-0.0076 0.0121,-0.01303 c -0.0227,0.0099 -0.0438,0.02386 -0.0617,0.04124 z"
     fill="#0d0c22"
     id="path6"
     style="stroke-width:0.319454" />
  <path
     d="m 35.04885,16.123239 -0.0354,-0.03367 -0.024,-0.01303 c 0.0131,0.02275 0.0342,0.03952 0.0594,0.0467 z"
     fill="#0d0c22"
     id="path7"
     style="stroke-width:0.319454" />
  <path
     d="m 26.15689,37.808295 c -0.0283,0.01214 -0.053,0.03131 -0.072,0.05558 l 0.0223,-0.01437 c 0.0151,-0.01374 0.0366,-0.03035 0.0497,-0.04121 z"
     fill="#0d0c22"
     id="path8"
     style="stroke-width:0.319454" />
  <path
     d="m 31.32102,36.792432 c 0,-0.03195 -0.0156,-0.0262 -0.0118,0.08753 0,-0.0093 0.004,-0.01853 0.005,-0.02747 0.002,-0.02013 0.004,-0.03993 0.006,-0.06006 z"
     fill="#0d0c22"
     id="path9"
     style="stroke-width:0.319454" />
  <path
     d="m 30.78769,37.808295 c -0.0282,0.01214 -0.053,0.03131 -0.0719,0.05558 l 0.0223,-0.01437 c 0.0151,-0.01374 0.0366,-0.03035 0.0496,-0.04121 z"
     fill="#0d0c22"
     id="path10"
     style="stroke-width:0.319454" />
  <path
     d="m 22.51784,38.050121 c -0.0214,-0.01853 -0.0477,-0.03099 -0.0757,-0.03546 0.0227,0.01118 0.0454,0.02204 0.0606,0.03035 z"
     fill="#0d0c22"
     id="path11"
     style="stroke-width:0.319454" />
  <path
     d="m 21.70061,37.266501 c -0.003,-0.03322 -0.0135,-0.06517 -0.0299,-0.09424 0.0116,0.03003 0.0213,0.06102 0.029,0.09264 z"
     fill="#0d0c22"
     id="path12"
     style="stroke-width:0.319454" />
  <path
     d="m 27.19726,23.247822 c -1.12361,0.481001 -2.39871,1.026373 -4.05128,1.026373 -0.69133,-0.0014 -1.37927,-0.09622 -2.04521,-0.28195 l 1.14298,11.734809 c 0.0404,0.490361 0.2639,0.947819 0.62593,1.281009 0.36204,0.33351 0.83621,0.518473 1.32836,0.518154 0,0 1.62059,0.08434 2.16136,0.08434 0.58198,0 2.32715,-0.08434 2.32715,-0.08434 0.49206,0 0.96613,-0.184964 1.3281,-0.518154 0.36194,-0.333509 0.58533,-0.790648 0.62578,-1.281009 L 31.8646,22.759665 c -0.54706,-0.186849 -1.09917,-0.310988 -1.72159,-0.310988 -1.07647,-4.16e-4 -1.94378,0.37031 -2.94575,0.799145 z"
     fill="#ffffff"
     id="path13"
     style="stroke-width:0.319454" />
  <path
     d="m 17.56497,18.241473 0.0194,0.01808 0.0126,0.0076 c -0.01,-0.0096 -0.0204,-0.01827 -0.032,-0.02565 z"
     fill="#0d0c22"
     id="path14"
     style="stroke-width:0.319454" />
  <path
     d="m 37.15214,17.158461 -0.17187,-0.868147 c -0.15461,-0.778956 -0.50506,-1.514977 -1.30465,-1.796512 -0.2562,-0.09005 -0.54722,-0.128771 -0.74369,-0.315173 -0.19646,-0.186433 -0.2546,-0.475954 -0.29996,-0.744454 -0.084,-0.492789 -0.16324,-0.985994 -0.2495,-1.477921 C 34.30807,11.53333 34.24894,11.058206 34.05503,10.67023 33.80267,10.149233 33.27876,9.84457 32.75773,9.642995 32.49067,9.543325 32.21818,9.459022 31.94166,9.390499 30.64004,9.047086 29.27154,8.920838 27.93245,8.848897 c -1.60724,-0.08868 -3.21878,-0.06197 -4.82222,0.07996 -1.19344,0.108551 -2.45043,0.239878 -3.58455,0.652676 -0.41453,0.151102 -0.84164,0.332455 -1.15684,0.652708 -0.38673,0.393471 -0.51298,1.001998 -0.23061,1.492647 0.20074,0.34846 0.54077,0.594631 0.9014,0.757488 0.46975,0.209849 0.96034,0.369512 1.46361,0.476369 1.40134,0.309743 2.85278,0.431359 4.28441,0.48311 1.58676,0.06405 3.17611,0.01214 4.75529,-0.155286 0.39054,-0.0429 0.78036,-0.0944 1.16949,-0.154424 0.45826,-0.07028 0.75241,-0.669543 0.61735,-1.087005 -0.16162,-0.499082 -0.59588,-0.692671 -1.08701,-0.617344 -0.0724,0.01137 -0.14433,0.02188 -0.21672,0.03242 l -0.0522,0.0076 c -0.16638,0.02102 -0.33275,0.04067 -0.49912,0.05891 -0.34367,0.03702 -0.68817,0.06734 -1.03353,0.09088 -0.77346,0.05386 -1.54906,0.07871 -2.32421,0.07996 -0.76168,0 -1.5238,-0.02147 -2.28381,-0.07153 -0.34677,-0.02275 -0.69267,-0.05162 -1.03774,-0.0867 -0.15698,-0.01642 -0.31352,-0.03367 -0.47008,-0.05303 l -0.14896,-0.01894 -0.0324,-0.0046 -0.15446,-0.02233 c -0.31562,-0.04753 -0.63124,-0.102257 -0.94347,-0.16832 -0.0315,-0.007 -0.0597,-0.0245 -0.0799,-0.04967 -0.0202,-0.02517 -0.0312,-0.05651 -0.0312,-0.08878 0,-0.03227 0.011,-0.06357 0.0312,-0.08874 0.0202,-0.02517 0.0484,-0.04271 0.0799,-0.04971 h 0.006 c 0.27061,-0.05766 0.5433,-0.106889 0.81681,-0.149824 0.0912,-0.01428 0.18267,-0.02834 0.27438,-0.04207 h 0.003 c 0.17129,-0.01137 0.34341,-0.04207 0.51384,-0.06229 1.48284,-0.154233 2.97449,-0.206815 4.46452,-0.157363 0.72337,0.02102 1.44636,0.06354 2.16638,0.136758 0.15487,0.016 0.30891,0.03284 0.46292,0.05175 0.0589,0.0072 0.11826,0.01559 0.17758,0.02275 l 0.11951,0.01725 c 0.34846,0.05188 0.69507,0.114875 1.03985,0.188957 0.51091,0.111074 1.16684,0.147268 1.39429,0.706982 0.0722,0.177585 0.1051,0.374943 0.14503,0.561376 l 0.0511,0.237738 c 10e-4,0.0043 0.002,0.0087 0.003,0.01306 0.12043,0.561089 0.24087,1.122177 0.3613,1.683297 0.009,0.04143 0.009,0.08427 6.4e-4,0.125801 -0.008,0.04153 -0.0252,0.08089 -0.0495,0.115579 -0.0243,0.03472 -0.0556,0.06405 -0.0917,0.08616 -0.0361,0.02211 -0.0767,0.03651 -0.11852,0.04236 h -0.004 l -0.0735,0.01009 -0.0728,0.0097 c -0.23064,0.03003 -0.46161,0.05808 -0.6927,0.08418 -0.45532,0.05188 -0.91134,0.09679 -1.36809,0.13465 -0.90757,0.07549 -1.81696,0.125002 -2.7282,0.148546 -0.4643,0.01236 -0.92846,0.01811 -1.3925,0.01725 -1.84699,-0.0014 -3.69237,-0.108774 -5.52709,-0.321498 -0.19864,-0.02358 -0.39724,-0.04881 -0.59588,-0.0745 0.15401,0.01981 -0.11193,-0.01514 -0.16579,-0.02271 -0.12625,-0.01767 -0.2525,-0.03603 -0.37875,-0.05514 -0.42379,-0.06354 -0.84502,-0.141805 -1.26794,-0.210392 -0.51132,-0.08418 -1.00031,-0.04207 -1.46278,0.210392 -0.37964,0.207741 -0.68689,0.526332 -0.8808,0.913191 -0.19946,0.412414 -0.25879,0.861438 -0.34801,1.304552 -0.0892,0.443146 -0.22809,0.919931 -0.17548,1.374833 0.11319,0.981777 0.79956,1.779676 1.7868,1.958091 0.92875,0.16832 1.86258,0.304695 2.7989,0.420816 3.67812,0.450494 7.39401,0.504386 11.08363,0.160781 0.30048,-0.02808 0.60054,-0.05865 0.90003,-0.09175 0.0936,-0.01029 0.18848,4.79e-4 0.27729,0.03156 0.0888,0.03105 0.16963,0.08159 0.23639,0.147907 0.0668,0.06635 0.1182,0.146789 0.14983,0.235437 0.0316,0.08865 0.0431,0.183271 0.0335,0.276935 l -0.0936,0.908111 c -0.18816,1.835069 -0.37632,3.670011 -0.56448,5.504793 -0.19646,1.926816 -0.39417,3.853505 -0.59306,5.779874 -0.0561,0.542752 -0.11223,1.085184 -0.16835,1.627616 -0.0539,0.533807 -0.0614,1.084865 -0.16286,1.612602 -0.15989,0.829621 -0.72171,1.339469 -1.54146,1.525711 -0.75104,0.170907 -1.51824,0.260674 -2.28844,0.267702 -0.85383,0.0045 -1.70729,-0.03322 -2.56112,-0.02875 -0.9115,0.0051 -2.02796,-0.07891 -2.73159,-0.757425 -0.61817,-0.595781 -0.70359,-1.528905 -0.78777,-2.335525 -0.11222,-1.067934 -0.22346,-2.135867 -0.3337,-3.2038 L 20.47351,26.202015 20.0733,22.360298 c -0.007,-0.06354 -0.0135,-0.126248 -0.0198,-0.190203 -0.048,-0.458256 -0.37242,-0.906865 -0.8837,-0.883736 -0.43769,0.01936 -0.93508,0.391362 -0.88374,0.883736 l 0.29668,2.848121 0.61354,5.891555 c 0.1748,1.673586 0.34916,3.347204 0.52311,5.021141 0.0337,0.320731 0.0652,0.642421 0.10056,0.962833 0.19231,1.752522 1.53053,2.696827 3.18773,2.962613 0.96791,0.155893 1.95937,0.187838 2.94156,0.203811 1.2591,0.02013 2.53084,0.06868 3.76933,-0.159407 1.8352,-0.336704 3.21211,-1.562128 3.40857,-3.463197 0.0562,-0.548502 0.11245,-1.097643 0.16835,-1.646464 0.18656,-1.815774 0.37281,-3.631645 0.55905,-5.447643 l 0.60824,-5.933627 0.2792,-2.719349 c 0.0137,-0.134841 0.0709,-0.261633 0.16228,-0.36159 0.0917,-0.09996 0.21308,-0.167809 0.34597,-0.193461 0.52486,-0.102289 1.0264,-0.276902 1.39985,-0.676283 0.59418,-0.635872 0.71238,-1.464887 0.50218,-2.300641 z m -19.74026,0.586645 c 0.008,-0.0038 -0.007,0.06479 -0.013,0.09679 -10e-4,-0.0484 0.001,-0.09133 0.013,-0.09679 z m 0.0509,0.393886 c 0.004,-0.0029 0.0168,0.0139 0.0299,0.03409 -0.0198,-0.01853 -0.0324,-0.03239 -0.0303,-0.03409 z m 0.0501,0.06606 c 0.0181,0.03073 0.0278,0.05009 0,0 z m 0.10057,0.08165 h 0.003 c 0,0.0029 0.005,0.0059 0.006,0.0088 -0.003,-0.0032 -0.006,-0.0062 -0.009,-0.0088 z m 17.61237,-0.122063 c -0.18848,0.179277 -0.47279,0.262623 -0.75327,0.30428 -3.14783,0.467105 -6.34147,0.703596 -9.52374,0.599231 -2.27748,-0.07785 -4.53101,-0.330763 -6.78577,-0.649322 -0.22094,-0.03115 -0.46037,-0.07153 -0.6123,-0.234383 -0.28617,-0.307218 -0.14561,-0.92584 -0.0711,-1.296982 0.0682,-0.340026 0.19864,-0.793267 0.60303,-0.841664 0.63124,-0.07405 1.36432,0.192311 1.98882,0.286997 0.75187,0.114748 1.50655,0.206623 2.26404,0.275657 3.23274,0.294568 6.51979,0.248694 9.73825,-0.182217 0.58652,-0.07884 1.17112,-0.170428 1.75348,-0.274794 0.51912,-0.09302 1.09413,-0.267638 1.40784,0.269747 0.21499,0.366094 0.24342,0.855944 0.2102,1.269604 -0.0102,0.180236 -0.0888,0.34977 -0.22011,0.473846 z"
     fill="#0d0c22"
     id="path15"
     style="stroke-width:0.319454" />
  <path
     fill-rule="evenodd"
     clip-rule="evenodd"
     d="m 54.31862,26.910677 c -0.18369,0.350792 -0.43638,0.656318 -0.75807,0.915554 -0.32169,0.259429 -0.69673,0.470651 -1.12575,0.633285 -0.42871,0.163017 -0.86029,0.272398 -1.29411,0.328143 -0.43414,0.05597 -0.8555,0.05111 -1.26344,-0.0153 -0.40858,-0.066 -0.75614,-0.200745 -1.04174,-0.404428 l 0.32201,-3.342028 c 0.29582,-0.101618 0.6683,-0.205984 1.11777,-0.312841 0.44915,-0.106698 0.91108,-0.183175 1.38611,-0.228857 0.47503,-0.04587 0.92386,-0.04047 1.34778,0.0153 0.42359,0.05594 0.75806,0.190682 1.00308,0.404428 0.13289,0.121968 0.24534,0.254222 0.33702,0.396698 0.092,0.142508 0.14791,0.290032 0.16868,0.442603 0.0508,0.427269 -0.0153,0.816428 -0.19934,1.167443 z m -4.67137,-7.119088 c 0.21435,-0.132222 0.47247,-0.249365 0.77339,-0.351207 0.30125,-0.101427 0.61016,-0.172888 0.92674,-0.213523 0.31626,-0.04048 0.62517,-0.04591 0.92673,-0.0153 0.30093,0.03057 0.56671,0.114429 0.7964,0.251698 0.22969,0.137461 0.4006,0.335905 0.51304,0.595142 0.11213,0.25962 0.1428,0.587763 0.0917,0.98446 -0.0406,0.315397 -0.16612,0.582556 -0.37504,0.801158 -0.20924,0.218953 -0.46481,0.401905 -0.76573,0.54946 -0.30125,0.147716 -0.62038,0.264636 -0.95709,0.350792 -0.33734,0.08673 -0.66158,0.150431 -0.97273,0.190906 -0.31147,0.04086 -0.58205,0.06641 -0.81173,0.07628 -0.22969,0.01026 -0.38047,0.01527 -0.45203,0.01527 z m 6.3255,4.959614 c -0.16324,-0.355872 -0.38271,-0.668745 -0.6584,-0.938619 -0.27569,-0.269491 -0.60281,-0.46522 -0.9804,-0.587379 0.16324,-0.132254 0.32425,-0.340762 0.48269,-0.625746 0.15813,-0.284601 0.29326,-0.595142 0.40571,-0.930856 0.11213,-0.335906 0.18912,-0.673951 0.22969,-1.014872 0.0406,-0.340761 0.0252,-0.633285 -0.0457,-0.877635 -0.17411,-0.610221 -0.44692,-1.088443 -0.81972,-1.434411 -0.3728,-0.345776 -0.80662,-0.584887 -1.30178,-0.717301 -0.49547,-0.131839 -1.04141,-0.16011 -1.63879,-0.08383 -0.59738,0.07625 -1.20754,0.226301 -1.83015,0.450111 0,-0.05073 0.005,-0.104142 0.0153,-0.160111 0.01,-0.05574 0.015,-0.114428 0.015,-0.175603 0,-0.152539 -0.0764,-0.284602 -0.22969,-0.396698 -0.15302,-0.111904 -0.32904,-0.177904 -0.52806,-0.198444 -0.19934,-0.02013 -0.39325,0.02284 -0.58236,0.12973 -0.1888,0.106857 -0.31914,0.303001 -0.39037,0.587379 -0.0818,0.915778 -0.16356,1.867143 -0.24503,2.853775 -0.0818,0.986984 -0.16867,1.984063 -0.26035,2.991396 -0.092,1.007109 -0.18401,2.006712 -0.27569,2.998551 -0.092,0.992032 -0.184,1.945728 -0.27569,2.861282 0.0307,0.274731 0.10702,0.488477 0.22969,0.641048 0.12235,0.152731 0.26547,0.244318 0.42871,0.27473 0.16324,0.03057 0.33446,0.0023 0.51304,-0.08405 0.17857,-0.08616 0.33447,-0.236587 0.46736,-0.45011 0.40826,0.223809 0.86796,0.368809 1.37844,0.435032 0.51049,0.066 1.02832,0.066 1.55478,0 0.5255,-0.06622 1.04366,-0.190714 1.55414,-0.374049 0.51049,-0.182983 0.9753,-0.411999 1.39378,-0.686537 0.4188,-0.27473 0.77084,-0.587795 1.05707,-0.938587 0.28559,-0.351207 0.47471,-0.730111 0.56639,-1.136872 0.092,-0.417206 0.11756,-0.834221 0.0767,-1.251459 -0.0409,-0.417015 -0.14311,-0.803458 -0.30635,-1.159872 z"
     fill="#0d0c23"
     id="path16"
     style="stroke-width:0.319454" />
  <path
     fill-rule="evenodd"
     clip-rule="evenodd"
     d="m 70.91519,32.808526 c -0.0559,0.335746 -0.13545,0.689381 -0.23735,1.060905 -0.10223,0.370886 -0.22202,0.709507 -0.35971,1.014905 -0.138,0.305078 -0.29102,0.551376 -0.45937,0.739854 -0.16867,0.188158 -0.35012,0.267063 -0.54403,0.236715 -0.15302,-0.02076 -0.25013,-0.117239 -0.2907,-0.290064 -0.0412,-0.173144 -0.0412,-0.386858 0,-0.640824 0.0406,-0.254604 0.11947,-0.542112 0.23703,-0.862524 0.11756,-0.320412 0.26067,-0.638588 0.42903,-0.953569 0.16867,-0.315621 0.36002,-0.618143 0.57437,-0.908207 0.21436,-0.289681 0.43893,-0.531507 0.67373,-0.724713 0.0511,0.06098 0.0741,0.213555 0.069,0.457873 -0.005,0.244159 -0.0358,0.534223 -0.092,0.869649 z m 5.1924,-6.623009 c -0.138,-0.152571 -0.30636,-0.238919 -0.5057,-0.259428 -0.19901,-0.02035 -0.40091,0.09156 -0.60472,0.335714 -0.13289,0.244126 -0.30157,0.47819 -0.5057,0.701999 -0.20413,0.224001 -0.41592,0.427302 -0.63539,0.610444 -0.21978,0.182951 -0.42903,0.340921 -0.62805,0.472983 -0.19901,0.132414 -0.35491,0.229017 -0.46704,0.29 -0.0409,-0.325427 -0.0642,-0.676443 -0.069,-1.053015 -0.005,-0.37638 0.003,-0.757776 0.023,-1.14441 0.0303,-0.549429 0.0942,-1.103745 0.19136,-1.663459 0.0971,-0.559491 0.23735,-1.108952 0.42135,-1.648349 0,-0.284601 -0.0668,-0.516141 -0.19933,-0.694269 -0.1329,-0.177903 -0.29358,-0.29 -0.48238,-0.335713 -0.18912,-0.04568 -0.38271,-0.02032 -0.58204,0.07628 -0.19902,0.0968 -0.36993,0.272398 -0.51305,0.526428 -0.12235,0.335905 -0.26291,0.712254 -0.42104,1.1293 -0.15845,0.417207 -0.33702,0.841984 -0.53604,1.274301 -0.19934,0.4327 -0.42136,0.852238 -0.66638,1.25903 -0.24502,0.407144 -0.51304,0.768414 -0.80406,1.083587 -0.29103,0.315397 -0.60761,0.562238 -0.94942,0.740174 -0.34246,0.178096 -0.71206,0.256905 -1.11042,0.236588 -0.18401,-0.05092 -0.3169,-0.188191 -0.39836,-0.412191 -0.0818,-0.223618 -0.13034,-0.503587 -0.14535,-0.839301 -0.0153,-0.335714 0,-0.704523 0.0457,-1.10646 0.046,-0.401713 0.10734,-0.801125 0.18401,-1.197823 0.0763,-0.396889 0.16068,-0.773269 0.25236,-1.1293 0.092,-0.356031 0.17858,-0.656318 0.26036,-0.900444 0.12267,-0.294888 0.12267,-0.541921 0,-0.740174 -0.12235,-0.198445 -0.2907,-0.330475 -0.50506,-0.39689 -0.21435,-0.066 -0.43925,-0.06332 -0.67404,0.0078 -0.2348,0.07124 -0.40347,0.228825 -0.50538,0.472951 -0.17378,0.41743 -0.33223,0.885174 -0.47503,1.404031 -0.14279,0.518888 -0.2578,1.05573 -0.34437,1.610046 -0.0869,0.554667 -0.13577,1.104128 -0.14567,1.648349 -6.4e-4,0.03543 9.6e-4,0.0691 9.6e-4,0.104333 -0.22266,0.591469 -0.43478,1.038512 -0.63635,1.337649 -0.26036,0.386794 -0.55426,0.554667 -0.88074,0.503554 -0.14343,-0.06098 -0.23735,-0.2033 -0.28335,-0.427301 -0.0463,-0.223617 -0.0613,-0.498316 -0.0463,-0.824158 0.0156,-0.325268 0.054,-0.694077 0.115,-1.106268 0.0616,-0.411999 0.13768,-0.839269 0.22969,-1.281872 0.092,-0.442762 0.18911,-0.887474 0.29102,-1.335284 0.10222,-0.447618 0.19391,-0.869872 0.27601,-1.266761 -0.0102,-0.356031 -0.11501,-0.628046 -0.31434,-0.816428 -0.1987,-0.187998 -0.47727,-0.26176 -0.83442,-0.221285 -0.24502,0.101809 -0.42647,0.234255 -0.54371,0.396889 -0.11756,0.162602 -0.21211,0.371333 -0.28335,0.625522 -0.0412,0.132445 -0.10223,0.396889 -0.18401,0.793778 -0.0818,0.396506 -0.18624,0.852079 -0.31402,1.365696 -0.12746,0.514033 -0.27825,1.050524 -0.45171,1.610015 -0.17346,0.559523 -0.36769,1.066017 -0.58172,1.518459 -0.21468,0.452665 -0.44947,0.816427 -0.70472,1.091157 -0.25524,0.274539 -0.53093,0.386635 -0.82706,0.335714 -0.16356,-0.03057 -0.26803,-0.198444 -0.31403,-0.503554 -0.046,-0.305334 -0.0533,-0.681491 -0.023,-1.129301 0.0307,-0.447618 0.092,-0.938619 0.18369,-1.472585 0.092,-0.534159 0.18624,-1.040237 0.28335,-1.518619 0.0971,-0.47803 0.18656,-0.900476 0.26834,-1.26657 0.0815,-0.366317 0.13769,-0.610444 0.16836,-0.732411 0,-0.295047 -0.0668,-0.531443 -0.19902,-0.709762 -0.1329,-0.177744 -0.29358,-0.28984 -0.4827,-0.335714 -0.18911,-0.04568 -0.38302,-0.02032 -0.58172,0.07629 -0.19934,0.09679 -0.37025,0.272398 -0.51336,0.526395 -0.0511,0.27473 -0.11756,0.592842 -0.19902,0.953921 -0.0818,0.361046 -0.16069,0.732411 -0.23736,1.113998 -0.0767,0.381588 -0.14822,0.755444 -0.21435,1.12173 -0.0665,0.366317 -0.115,0.686729 -0.14567,0.961459 -0.0205,0.213555 -0.0435,0.475699 -0.0687,0.785856 -0.0259,0.310541 -0.0387,0.638492 -0.0387,0.984269 0,0.346192 0.0256,0.689445 0.077,1.030174 0.0508,0.340953 0.1428,0.653826 0.27537,0.938427 0.13257,0.284985 0.31913,0.518857 0.55936,0.701999 0.23959,0.183143 0.54339,0.284793 0.91108,0.305334 0.3776,0.02013 0.70695,-0.0076 0.98807,-0.08405 0.28048,-0.07629 0.53573,-0.195921 0.76573,-0.358747 0.22969,-0.162442 0.43893,-0.355839 0.62805,-0.57984 0.18848,-0.223617 0.37504,-0.467744 0.55872,-0.732411 0.17379,0.386826 0.39836,0.686729 0.67405,0.900444 0.27569,0.213554 0.56671,0.340953 0.87307,0.381427 0.30603,0.04044 0.61782,-0.0023 0.9344,-0.12973 0.31626,-0.127015 0.60217,-0.343253 0.85741,-0.648586 0.16836,-0.1872 0.3268,-0.399988 0.47567,-0.635202 0.0632,0.110148 0.13034,0.21643 0.20605,0.314598 0.25013,0.325843 0.58971,0.54946 1.01874,0.671619 0.45937,0.122159 0.9082,0.1427 1.34745,0.06118 0.43893,-0.0813 0.85773,-0.229017 1.25577,-0.442572 0.39836,-0.213746 0.76829,-0.470459 1.11074,-0.770745 0.34182,-0.300095 0.64051,-0.612776 0.89575,-0.938587 -0.0102,0.234064 -0.0153,0.455541 -0.0153,0.663857 0,0.208699 -0.005,0.43484 -0.015,0.679158 -0.5108,0.356255 -0.99318,0.783524 -1.44744,1.281872 -0.45458,0.498347 -0.85294,1.029982 -1.19476,1.594648 -0.34213,0.564475 -0.61015,1.136936 -0.80374,1.716744 -0.19423,0.580128 -0.28879,1.121921 -0.28368,1.625699 0.005,0.503459 0.12491,0.943347 0.36003,1.319663 0.23448,0.376636 0.6175,0.645936 1.14843,0.808857 0.5517,0.173144 1.03631,0.177936 1.45543,0.01533 0.41849,-0.162922 0.7833,-0.43254 1.09477,-0.808857 0.31147,-0.376316 0.56671,-0.831538 0.76605,-1.365664 0.19902,-0.534127 0.35715,-1.091254 0.47471,-1.671062 0.11724,-0.579808 0.19135,-1.150033 0.22202,-1.709173 0.0307,-0.559714 0.0307,-1.058445 0,-1.495777 0.87818,-0.366126 1.59791,-0.829046 2.15951,-1.388761 0.56159,-0.559108 1.02608,-1.149426 1.39377,-1.770125 0.11213,-0.152571 0.15046,-0.335713 0.115,-0.549268 -0.0361,-0.213715 -0.12267,-0.396889 -0.26035,-0.549429 z"
     fill="#0d0c23"
     id="path17"
     style="stroke-width:0.319454" />
  <path
     fill-rule="evenodd"
     clip-rule="evenodd"
     d="m 95.42846,25.209203 c 0.0307,-0.233872 0.0767,-0.480713 0.13769,-0.740142 0.0613,-0.259428 0.138,-0.511317 0.23001,-0.755444 0.0917,-0.244126 0.19902,-0.455157 0.32169,-0.633285 0.12235,-0.177935 0.25268,-0.30511 0.39037,-0.381587 0.138,-0.07609 0.27792,-0.06856 0.42136,0.02284 0.15302,0.09178 0.24725,0.284985 0.28335,0.57984 0.0355,0.295431 0,0.610636 -0.10733,0.94635 -0.10734,0.335905 -0.29869,0.651078 -0.57438,0.946157 -0.27569,0.295239 -0.64849,0.488253 -1.11809,0.579841 -0.0204,-0.142093 -0.0153,-0.330475 0.0153,-0.564571 z m 5.30677,0.625554 c -0.16835,-0.05054 -0.32904,-0.05574 -0.48238,-0.01511 -0.15302,0.04067 -0.25013,0.147524 -0.2907,0.320636 -0.0821,0.325427 -0.21244,0.658617 -0.39101,0.999379 -0.17858,0.340952 -0.39804,0.663856 -0.65808,0.96919 -0.26035,0.30511 -0.55425,0.574825 -0.88073,0.808697 -0.32712,0.234063 -0.66893,0.401904 -1.0264,0.503555 -0.35747,0.112096 -0.65361,0.124682 -0.88808,0.03814 -0.23512,-0.08616 -0.42136,-0.233872 -0.55905,-0.442379 -0.138,-0.208507 -0.23767,-0.460397 -0.29869,-0.755444 -0.0613,-0.295079 -0.0971,-0.600189 -0.10733,-0.915778 0.58204,0.04086 1.10019,-0.06328 1.55478,-0.312841 0.45394,-0.248982 0.83952,-0.579872 1.1561,-0.991871 0.31626,-0.411968 0.55649,-0.874888 0.71973,-1.388729 0.16324,-0.513618 0.25524,-1.024935 0.27569,-1.533729 0.0102,-0.478222 -0.061,-0.882459 -0.21436,-1.213125 C 98.49171,21.574841 98.2847,21.317553 98.02434,21.134602 97.76431,20.95146 97.4653,20.84457 97.1286,20.81419 c -0.33671,-0.0306 -0.67916,0.01527 -1.02641,0.13727 -0.4188,0.142476 -0.7734,0.373824 -1.06442,0.69446 -0.29102,0.320412 -0.53348,0.691936 -0.72739,1.113998 -0.19391,0.422254 -0.34725,0.877412 -0.45938,1.365697 -0.11245,0.488444 -0.19423,0.96919 -0.24502,1.442365 -0.046,0.424554 -0.0706,0.830547 -0.0792,1.222421 -0.022,0.04974 -0.0431,0.09756 -0.0664,0.150814 -0.15845,0.361462 -0.34245,0.714969 -0.55138,1.060746 -0.20924,0.346 -0.4418,0.636 -0.69672,0.869872 -0.25525,0.234096 -0.52071,0.315397 -0.7964,0.244158 -0.16356,-0.04047 -0.25269,-0.229048 -0.26802,-0.56457 -0.0153,-0.335906 0.002,-0.75292 0.0533,-1.25146 0.0511,-0.498347 0.1099,-1.037904 0.17634,-1.617777 0.0661,-0.57984 0.0994,-1.134124 0.0994,-1.663267 0,-0.457873 -0.0869,-0.897728 -0.26035,-1.320174 -0.17378,-0.42187 -0.41114,-0.773078 -0.71206,-1.052823 -0.30125,-0.279969 -0.65105,-0.465636 -1.04909,-0.557 -0.39836,-0.09178 -0.82706,-0.0306 -1.28644,0.182952 -0.45969,0.213746 -0.82483,0.513809 -1.09509,0.900443 -0.27089,0.386827 -0.51847,0.793587 -0.74305,1.220888 -0.0818,-0.325651 -0.20157,-0.628046 -0.36002,-0.908015 -0.15813,-0.279745 -0.35204,-0.523904 -0.58172,-0.732603 -0.23001,-0.208315 -0.48813,-0.371141 -0.7734,-0.488285 -0.28591,-0.116728 -0.58748,-0.17538 -0.90406,-0.17538 -0.30603,0 -0.58939,0.05865 -0.84974,0.17538 -0.26036,0.117144 -0.49771,0.267 -0.71238,0.450143 -0.21436,0.183334 -0.40827,0.389158 -0.58205,0.618174 -0.17346,0.228857 -0.3268,0.455381 -0.45937,0.678999 -0.0208,-0.264476 -0.0435,-0.495824 -0.0687,-0.694492 -0.0259,-0.198221 -0.0719,-0.366094 -0.138,-0.503363 -0.0664,-0.137461 -0.16068,-0.241603 -0.28335,-0.312873 -0.12267,-0.07105 -0.29614,-0.106857 -0.52071,-0.106857 -0.11245,0 -0.2249,0.02284 -0.33703,0.06852 -0.11245,0.04591 -0.21211,0.109605 -0.29869,0.190906 -0.0869,0.08172 -0.15301,0.180619 -0.19902,0.297571 -0.046,0.116952 -0.0585,0.251889 -0.0383,0.404428 0.0102,0.112096 0.0383,0.246682 0.0843,0.40446 0.0457,0.157779 0.0891,0.363986 0.13001,0.617983 0.0409,0.254413 0.0741,0.562239 0.0997,0.923317 0.0256,0.36127 0.0329,0.803841 0.023,1.327745 -0.0105,0.524096 -0.0486,1.13684 -0.115,1.838839 -0.0665,0.702032 -0.17123,1.515936 -0.31402,2.441584 -0.0204,0.213715 0.0613,0.386827 0.24534,0.519049 0.18368,0.13203 0.39293,0.208315 0.62772,0.228824 0.2348,0.02035 0.45714,-0.02051 0.66638,-0.121967 0.20925,-0.102034 0.32936,-0.279937 0.35971,-0.534159 0.0307,-0.47819 0.0894,-0.986792 0.17634,-1.526189 0.0866,-0.538982 0.19391,-1.073141 0.32169,-1.602284 0.12746,-0.528919 0.27281,-1.032474 0.43637,-1.510888 0.16324,-0.47819 0.34469,-0.900252 0.54371,-1.266569 0.19934,-0.366286 0.40603,-0.65865 0.62038,-0.877412 0.21435,-0.218762 0.43893,-0.328174 0.67405,-0.328174 0.28559,0 0.50761,0.129538 0.66606,0.388966 0.15813,0.25962 0.27026,0.593002 0.33702,0.999571 0.0661,0.407175 0.0968,0.852462 0.092,1.335508 -0.005,0.483237 -0.0259,0.948649 -0.0613,1.396267 -0.0358,0.447811 -0.0767,0.847032 -0.12267,1.198047 -0.046,0.351016 -0.0792,0.59281 -0.0994,0.724841 0,0.234095 0.0891,0.41957 0.2677,0.557031 0.17857,0.137237 0.37759,0.218762 0.59738,0.244126 0.21978,0.02556 0.42615,-0.0153 0.62038,-0.122159 0.19391,-0.106889 0.30635,-0.287125 0.33702,-0.541729 0.10191,-0.732411 0.24247,-1.467315 0.42104,-2.204965 0.17858,-0.737618 0.38303,-1.398791 0.61271,-1.983871 0.22969,-0.585079 0.48493,-1.063269 0.76573,-1.434602 0.2808,-0.371141 0.57949,-0.557031 0.89607,-0.557031 0.16324,0 0.28847,0.112096 0.37504,0.335713 0.0869,0.22381 0.13034,0.528952 0.13034,0.915586 0,0.284985 -0.023,0.577509 -0.0687,0.877603 -0.0463,0.300095 -0.0997,0.610444 -0.161,0.930856 -0.0613,0.320604 -0.115,0.648587 -0.16101,0.984301 -0.0457,0.335905 -0.0687,0.686697 -0.0687,1.053015 0,0.254381 0.0256,0.549428 0.0767,0.885142 0.0508,0.335522 0.14759,0.653826 0.2907,0.953697 0.14312,0.300286 0.33958,0.554507 0.59003,0.763015 0.25014,0.208507 0.56895,0.312873 0.95677,0.312873 0.58236,0 1.09764,-0.124683 1.54711,-0.373857 0.44915,-0.249174 0.83473,-0.574633 1.15642,-0.976538 0.0166,-0.02112 0.0319,-0.04357 0.0482,-0.06447 0.0246,0.05942 0.0463,0.12235 0.0741,0.178862 0.21947,0.447618 0.51816,0.793395 0.89607,1.037745 0.3776,0.244126 0.82196,0.378872 1.33276,0.404428 0.51017,0.02517 1.06666,-0.06891 1.66947,-0.282461 0.44883,-0.162825 0.83952,-0.366317 1.17143,-0.610444 0.3316,-0.244126 0.63029,-0.541697 0.89575,-0.892713 0.26579,-0.351016 0.50793,-0.755444 0.72772,-1.213125 0.21978,-0.458065 0.44148,-0.981777 0.66606,-1.572095 0.0409,-0.16241 0.003,-0.307442 -0.11469,-0.434809 -0.11755,-0.127014 -0.26035,-0.216078 -0.42902,-0.267191 z"
     fill="#0d0c23"
     id="path18"
     style="stroke-width:0.319454" />
  <path
     fill-rule="evenodd"
     clip-rule="evenodd"
     d="m 109.05923,24.132549 c -0.0511,0.300286 -0.11979,0.631144 -0.20669,0.992031 -0.0869,0.36127 -0.19646,0.735127 -0.32935,1.121761 -0.13258,0.386603 -0.29614,0.735095 -0.49004,1.045253 -0.19391,0.310541 -0.41625,0.556999 -0.66606,0.740174 -0.25046,0.183143 -0.5386,0.259428 -0.8654,0.228824 -0.16356,-0.02012 -0.28879,-0.13203 -0.37536,-0.335713 -0.0869,-0.203269 -0.13258,-0.462889 -0.13801,-0.778285 -0.005,-0.315205 0.023,-0.661173 0.0843,-1.037713 0.0613,-0.376189 0.15557,-0.74519 0.28367,-1.10646 0.12747,-0.360887 0.28304,-0.694269 0.46673,-0.999602 0.184,-0.305111 0.3958,-0.541698 0.63571,-0.709539 0.23991,-0.167873 0.50314,-0.246458 0.78873,-0.236587 0.28591,0.01025 0.59227,0.152539 0.91907,0.427269 -0.0208,0.132446 -0.0562,0.348684 -0.10734,0.648587 z m 5.44477,1.167443 c -0.15845,-0.08133 -0.32169,-0.09893 -0.49004,-0.05325 -0.16836,0.04568 -0.28847,0.200968 -0.35971,0.465444 -0.0409,0.284985 -0.13289,0.620507 -0.27569,1.00711 -0.14311,0.386634 -0.31945,0.753143 -0.52837,1.098728 -0.20956,0.345969 -0.44947,0.633477 -0.72005,0.862302 -0.27058,0.229048 -0.55905,0.333413 -0.86508,0.312681 -0.25556,-0.02013 -0.43446,-0.149856 -0.53604,-0.388935 -0.10255,-0.239111 -0.1559,-0.539014 -0.16101,-0.900476 -0.005,-0.360887 0.0307,-0.767839 0.10702,-1.220664 0.0767,-0.452666 0.16867,-0.902808 0.27569,-1.35081 0.10733,-0.447427 0.21722,-0.877411 0.32967,-1.289411 0.11213,-0.411967 0.20381,-0.760459 0.27569,-1.045252 0.0815,-0.254413 0.0559,-0.470459 -0.0767,-0.648778 -0.13289,-0.177744 -0.29869,-0.305142 -0.49771,-0.381396 -0.19934,-0.07628 -0.40123,-0.09664 -0.60536,-0.06101 -0.20413,0.03565 -0.33671,0.145031 -0.39804,0.327983 -0.60249,-0.518857 -1.18198,-0.798634 -1.73815,-0.839269 -0.55681,-0.04067 -1.06985,0.08149 -1.53944,0.366286 -0.46992,0.284792 -0.88585,0.696792 -1.24811,1.236189 -0.36258,0.539366 -0.65616,1.126777 -0.88105,1.762586 -0.22458,0.635776 -0.36482,1.284555 -0.42104,1.945728 -0.0562,0.661333 -0.0128,1.264237 0.13033,1.808459 0.14312,0.544221 0.39549,0.989507 0.75807,1.335092 0.36226,0.345968 0.85517,0.51908 1.47811,0.51908 0.27569,0 0.54115,-0.05597 0.7964,-0.167872 0.25492,-0.112097 0.49004,-0.244319 0.70439,-0.39689 0.21436,-0.152571 0.40315,-0.312873 0.56703,-0.480713 0.16292,-0.167873 0.29071,-0.307634 0.38271,-0.419731 0.0712,0.366286 0.1888,0.676827 0.35236,0.931048 0.16292,0.254189 0.34948,0.46308 0.55872,0.625522 0.20924,0.162634 0.42903,0.282269 0.65871,0.358747 0.22969,0.07628 0.45203,0.114428 0.66606,0.114428 0.48014,0 0.92897,-0.162826 1.3481,-0.488477 0.41848,-0.325235 0.79384,-0.72484 1.12575,-1.197823 0.3316,-0.473175 0.60505,-0.971522 0.81908,-1.495618 0.21467,-0.523872 0.35747,-0.989316 0.42903,-1.39646 0.0716,-0.152571 0.0585,-0.312681 -0.0383,-0.480522 -0.0971,-0.167873 -0.22457,-0.292364 -0.38302,-0.374048 z"
     fill="#0d0c23"
     id="path19"
     style="stroke-width:0.319454" />
  <path
     fill-rule="evenodd"
     clip-rule="evenodd"
     d="m 142.07317,33.725038 c -0.0866,0.345649 -0.22202,0.638588 -0.40603,0.877539 -0.18369,0.238952 -0.41337,0.363539 -0.68906,0.374081 -0.17346,0.0099 -0.30636,-0.08178 -0.39836,-0.274731 -0.0917,-0.193588 -0.15557,-0.442762 -0.19135,-0.74784 -0.0358,-0.305398 -0.0511,-0.646255 -0.046,-1.022571 0.005,-0.376317 0.0204,-0.747841 0.046,-1.114063 0.0252,-0.366094 0.0562,-0.707238 0.092,-1.022411 0.0355,-0.315589 0.0636,-0.559332 0.084,-0.732412 0.34724,0.04064 0.63603,0.19049 0.8654,0.45011 0.22968,0.259429 0.40602,0.567095 0.52837,0.923317 0.12267,0.356031 0.19391,0.74027 0.21468,1.152046 0.0201,0.412095 -0.0131,0.790967 -0.0997,1.136935 z m -5.54444,0 c -0.0866,0.345649 -0.22202,0.638588 -0.40571,0.877539 -0.18368,0.238952 -0.41369,0.363539 -0.68938,0.374081 -0.17346,0.0099 -0.30603,-0.08178 -0.39804,-0.274731 -0.092,-0.193588 -0.15589,-0.442762 -0.19135,-0.74784 -0.0361,-0.305398 -0.0514,-0.646255 -0.046,-1.022571 0.005,-0.376317 0.0201,-0.747841 0.046,-1.114063 0.0252,-0.366094 0.0559,-0.707238 0.0917,-1.022411 0.0358,-0.315589 0.0636,-0.559332 0.0843,-0.732412 0.34693,0.04064 0.63571,0.19049 0.86508,0.45011 0.23001,0.259429 0.40602,0.567095 0.52869,0.923317 0.12268,0.356031 0.19391,0.74027 0.21436,1.152046 0.0201,0.412095 -0.0131,0.790967 -0.0997,1.136935 z m -5.68947,-8.667895 c -0.0105,0.243935 -0.0335,0.460205 -0.0693,0.648395 -0.0358,0.188574 -0.084,0.307826 -0.14535,0.358747 -0.11245,-0.06118 -0.25045,-0.21857 -0.4137,-0.473175 -0.16324,-0.254189 -0.2907,-0.541889 -0.38302,-0.862333 -0.0917,-0.320412 -0.12011,-0.635585 -0.084,-0.946126 0.0355,-0.310157 0.19647,-0.5516 0.48238,-0.724872 0.11213,-0.06098 0.20924,-0.03814 0.29102,0.06875 0.0818,0.106858 0.14791,0.26192 0.19934,0.465412 0.0508,0.203684 0.0862,0.437556 0.10702,0.702032 0.0204,0.264635 0.0256,0.518856 0.0156,0.763174 z M 129.4835,28.1016 c -0.15845,0.16765 -0.33479,0.31265 -0.52838,0.434841 -0.19423,0.122159 -0.39325,0.213714 -0.59738,0.27473 -0.20445,0.06118 -0.38813,0.07625 -0.55137,0.04568 -0.45938,-0.0914 -0.81173,-0.290032 -1.05676,-0.595143 -0.24502,-0.305142 -0.40091,-0.663696 -0.46704,-1.075664 -0.0664,-0.412191 -0.0591,-0.85227 0.023,-1.320206 0.0815,-0.467935 0.21915,-0.902776 0.41338,-1.304712 0.19391,-0.401937 0.42902,-0.747905 0.70439,-1.037713 0.27569,-0.290032 0.57694,-0.47046 0.90374,-0.541922 -0.12267,0.518857 -0.16324,1.055731 -0.12267,1.610047 0.0409,0.554475 0.17378,1.075856 0.39835,1.564109 0.1428,0.295462 0.31403,0.564762 0.51305,0.808888 0.19934,0.24435 0.4418,0.452858 0.72771,0.625746 -0.0818,0.17308 -0.20189,0.343444 -0.36002,0.511317 z m 16.94701,-2.891886 c 0.0307,-0.233872 0.0763,-0.480937 0.13801,-0.740365 0.061,-0.259237 0.13768,-0.511094 0.22936,-0.755253 0.092,-0.244318 0.19934,-0.455349 0.32201,-0.633284 0.12267,-0.177904 0.25237,-0.305302 0.39038,-0.381588 0.138,-0.07628 0.27824,-0.06871 0.42104,0.02284 0.15333,0.09178 0.24757,0.284985 0.28335,0.57984 0.0358,0.295271 0,0.610444 -0.10702,0.94635 -0.10733,0.335714 -0.29868,0.65111 -0.57437,0.945966 -0.27537,0.295431 -0.64849,0.488476 -1.11809,0.580032 -0.0204,-0.142285 -0.0153,-0.330475 0.0153,-0.564539 z m 6.17249,0 c 0.0307,-0.233872 0.0763,-0.480937 0.13768,-0.740365 0.0613,-0.259237 0.138,-0.511094 0.23001,-0.755253 0.0917,-0.244318 0.1987,-0.455349 0.32137,-0.633284 0.12267,-0.177904 0.253,-0.305302 0.39069,-0.381588 0.138,-0.07628 0.27824,-0.06871 0.42104,0.02284 0.15334,0.09178 0.24758,0.284985 0.28335,0.57984 0.0358,0.295271 0,0.610444 -0.10701,0.94635 -0.10734,0.335714 -0.29869,0.65111 -0.57438,0.945966 -0.27569,0.295431 -0.64849,0.488476 -1.11809,0.580032 -0.0204,-0.142285 -0.0153,-0.330475 0.0153,-0.564539 z m 5.73579,0.892714 c -0.11756,-0.127015 -0.26036,-0.216079 -0.42871,-0.267191 -0.16867,-0.05073 -0.32936,-0.05575 -0.4827,-0.01508 -0.15301,0.04063 -0.25045,0.147524 -0.29102,0.320412 -0.0818,0.325651 -0.2118,0.658842 -0.39037,0.999379 -0.17889,0.341145 -0.39836,0.66408 -0.65871,0.96919 -0.26036,0.305111 -0.55394,0.575017 -0.88042,0.808889 -0.32712,0.234064 -0.66893,0.401937 -1.02608,0.503363 -0.35779,0.112288 -0.65392,0.124874 -0.88872,0.03833 -0.2348,-0.08635 -0.42104,-0.233872 -0.55905,-0.442379 -0.13768,-0.208699 -0.23703,-0.460396 -0.29869,-0.755636 -0.061,-0.294855 -0.0971,-0.599997 -0.10701,-0.915554 0.58204,0.04083 1.1002,-0.06332 1.55446,-0.312872 0.45426,-0.249174 0.83984,-0.580064 1.15674,-0.992032 0.31626,-0.411807 0.55617,-0.874728 0.71941,-1.388537 0.16324,-0.513841 0.25524,-1.024967 0.27601,-1.533761 0.01,-0.47819 -0.0617,-0.88265 -0.21467,-1.213316 -0.15302,-0.330475 -0.35971,-0.587603 -0.62006,-0.770555 -0.26068,-0.183334 -0.55905,-0.290031 -0.89639,-0.320603 -0.33671,-0.0306 -0.67884,0.01549 -1.02609,0.137269 -0.4188,0.142668 -0.77339,0.374048 -1.0641,0.69446 -0.29102,0.320604 -0.5338,0.692128 -0.72771,1.113999 -0.19423,0.422445 -0.34725,0.877411 -0.4597,1.365888 -0.11244,0.488285 -0.1939,0.96919 -0.2447,1.442173 -0.0498,0.459023 -0.0767,0.898336 -0.0827,1.318833 -0.0387,0.08382 -0.0799,0.168064 -0.12426,0.252847 -0.1789,0.341145 -0.39836,0.66408 -0.65872,0.96919 -0.26003,0.305111 -0.55393,0.575017 -0.88041,0.808889 -0.3268,0.234064 -0.66894,0.401937 -1.02609,0.503363 -0.35778,0.112288 -0.6536,0.124874 -0.8884,0.03833 -0.23511,-0.08635 -0.42136,-0.233872 -0.55904,-0.442379 -0.13768,-0.208699 -0.23735,-0.460396 -0.29869,-0.755636 -0.0613,-0.294855 -0.0971,-0.599997 -0.10734,-0.915554 0.58205,0.04083 1.1002,-0.06332 1.55479,-0.312872 0.45394,-0.249174 0.83952,-0.580064 1.1561,-0.992032 0.31658,-0.411807 0.55649,-0.874728 0.71973,-1.388537 0.16324,-0.513841 0.25556,-1.024967 0.27569,-1.533761 0.0102,-0.47819 -0.061,-0.88265 -0.21404,-1.213316 -0.15334,-0.330475 -0.36034,-0.587603 -0.6207,-0.770555 -0.26035,-0.183334 -0.55872,-0.290031 -0.89574,-0.320603 -0.33703,-0.0306 -0.67916,0.01549 -1.02609,0.137269 -0.41912,0.142668 -0.77372,0.374048 -1.06442,0.69446 -0.29102,0.320604 -0.53381,0.692128 -0.72771,1.113999 -0.19391,0.422445 -0.34693,0.877411 -0.45938,1.365888 -0.11245,0.488285 -0.19423,0.96919 -0.24502,1.442173 -0.0291,0.266776 -0.0482,0.525438 -0.0626,0.779435 -0.0987,0.08366 -0.19487,0.167873 -0.29741,0.250548 -0.35204,0.284984 -0.72261,0.541697 -1.11042,0.770745 -0.38814,0.229017 -0.79161,0.417207 -1.20978,0.56473 -0.41912,0.147524 -0.84783,0.236588 -1.28675,0.267 l 0.94973,-10.133133 c 0.0613,-0.213746 0.0307,-0.401713 -0.092,-0.564539 -0.12235,-0.162825 -0.2808,-0.27473 -0.47471,-0.335713 -0.19391,-0.06118 -0.40091,-0.05597 -0.62038,0.01511 -0.21978,0.07143 -0.40059,0.234255 -0.54371,0.488253 -0.0716,0.386826 -0.14567,0.915746 -0.22202,1.587173 -0.0767,0.671428 -0.15334,1.404031 -0.22969,2.197617 -0.0767,0.793587 -0.15333,1.612538 -0.22968,2.456854 -0.0767,0.8447 -0.14312,1.633079 -0.19934,2.365491 -0.003,0.03252 -0.004,0.06194 -0.007,0.09408 -0.0894,0.07552 -0.17602,0.15158 -0.26866,0.226333 -0.35204,0.284984 -0.72261,0.541697 -1.11042,0.770745 -0.38814,0.229017 -0.79129,0.417207 -1.20977,0.56473 -0.41881,0.147524 -0.84783,0.236588 -1.28676,0.267 l 0.94973,-10.133133 c 0.0613,-0.213746 0.0307,-0.401713 -0.0917,-0.564539 -0.12267,-0.162825 -0.28112,-0.27473 -0.47503,-0.335713 -0.19391,-0.06118 -0.40091,-0.05597 -0.62038,0.01511 -0.21946,0.07143 -0.40059,0.234255 -0.54371,0.488253 -0.0716,0.386826 -0.14535,0.915746 -0.2217,1.587173 -0.077,0.671428 -0.15333,1.404031 -0.23,2.197617 -0.0767,0.793587 -0.15302,1.612538 -0.22969,2.456854 -0.0763,0.8447 -0.14312,1.633079 -0.19902,2.365491 -0.001,0.01469 -0.002,0.02805 -0.004,0.04277 -0.16037,0.07415 -0.33511,0.139218 -0.52519,0.193813 -0.1939,0.05613 -0.41337,0.08922 -0.65839,0.09932 0.0409,-0.183366 0.0738,-0.386826 0.0994,-0.610636 0.0256,-0.223617 0.0463,-0.457681 0.0616,-0.702031 0.0153,-0.243935 0.0201,-0.488253 0.0153,-0.732411 -0.005,-0.244318 -0.0182,-0.467936 -0.0383,-0.671619 -0.0514,-0.437141 -0.14567,-0.851855 -0.28335,-1.243697 -0.13801,-0.391491 -0.32425,-0.719442 -0.55905,-0.984301 -0.23511,-0.264475 -0.52837,-0.442571 -0.88105,-0.533967 -0.35204,-0.09159 -0.76317,-0.06118 -1.23245,0.0914 -0.69481,-0.0914 -1.31998,-0.0277 -1.87647,0.190874 -0.55649,0.218985 -1.03918,0.536682 -1.44745,0.953697 -0.40826,0.41743 -0.74272,0.908015 -1.00308,1.472777 -0.26035,0.564538 -0.43414,1.144602 -0.52071,1.739552 -0.0367,0.252241 -0.0546,0.503363 -0.0601,0.753879 -0.15813,0.322552 -0.33127,0.604438 -0.52198,0.841026 -0.27058,0.335713 -0.55138,0.610443 -0.8424,0.823998 -0.29102,0.213715 -0.57949,0.37654 -0.86508,0.488445 -0.28623,0.112096 -0.54148,0.188382 -0.76605,0.228856 -0.26547,0.05092 -0.52071,0.05613 -0.76573,0.0153 -0.24502,-0.04048 -0.46992,-0.157618 -0.67373,-0.351015 -0.16356,-0.142317 -0.28879,-0.371333 -0.37536,-0.68673 -0.0869,-0.315365 -0.13768,-0.673728 -0.15302,-1.075856 -0.0153,-0.401936 0,-0.821666 0.0457,-1.25903 0.046,-0.437332 0.12491,-0.852047 0.23736,-1.243697 0.11245,-0.391682 0.25492,-0.742666 0.42902,-1.053239 0.17315,-0.309934 0.3776,-0.531443 0.61272,-0.663665 0.13225,0.02051 0.21435,0.09913 0.24502,0.236396 0.0307,0.137461 0.038,0.300286 0.0227,0.488476 -0.015,0.18835 -0.038,0.381588 -0.0687,0.579841 -0.0307,0.198444 -0.046,0.363985 -0.046,0.496015 0.0511,0.27473 0.15046,0.488477 0.29868,0.641016 0.14791,0.152571 0.31403,0.241826 0.49771,0.266999 0.18369,0.02556 0.36482,-0.01763 0.54403,-0.12973 0.17826,-0.111713 0.32361,-0.289808 0.43638,-0.534158 0.01,0.01025 0.0252,0.0153 0.0457,0.0153 l 0.21467,-1.937998 c 0.061,-0.264667 0.0201,-0.498539 -0.12267,-0.701999 -0.14311,-0.203492 -0.33191,-0.320604 -0.56671,-0.351016 -0.29613,-0.427301 -0.69705,-0.653602 -1.20242,-0.679158 -0.50538,-0.02536 -1.02353,0.139953 -1.55446,0.496016 -0.32681,0.234255 -0.61527,0.556999 -0.8654,0.968998 -0.25046,0.412191 -0.45427,0.869872 -0.6124,1.373427 -0.15877,0.503555 -0.27089,1.035413 -0.33702,1.594936 -0.0664,0.559491 -0.0792,1.103936 -0.0386,1.632664 0.0409,0.529303 0.13544,1.027842 0.28367,1.495586 0.14791,0.468159 0.35459,0.859809 0.62038,1.175014 0.22458,0.27473 0.4795,0.475858 0.76541,0.603065 0.28591,0.127206 0.5846,0.205824 0.89607,0.236395 0.31146,0.03041 0.62038,0.01763 0.92673,-0.03814 0.30636,-0.05575 0.59738,-0.134554 0.87307,-0.236588 0.35715,-0.13203 0.72516,-0.300094 1.10275,-0.503554 0.3776,-0.203301 0.74018,-0.447619 1.08742,-0.732603 0.18273,-0.149856 0.35843,-0.313257 0.52838,-0.488477 0.0773,0.191289 0.16388,0.37638 0.26802,0.549652 0.27569,0.457681 0.64817,0.829206 1.11809,1.113999 0.46928,0.284793 1.04653,0.42187 1.73048,0.411999 0.73538,-0.01025 1.41422,-0.195729 2.03715,-0.556999 0.62294,-0.360887 1.13343,-0.892905 1.53178,-1.594745 0.59642,0 1.18326,-0.09794 1.76019,-0.292523 -0.005,0.06156 -0.01,0.126407 -0.0144,0.185858 -0.0406,0.539205 -0.0613,0.905299 -0.0613,1.098696 -0.01,0.335714 -0.0329,0.750237 -0.0687,1.243538 -0.0358,0.493492 -0.0588,1.01238 -0.069,1.556473 -0.01,0.544349 0.0102,1.09381 0.0613,1.648381 0.0511,0.554252 0.15813,1.058031 0.32169,1.511016 0.16293,0.452346 0.39517,0.836649 0.69673,1.152269 0.30093,0.314981 0.69673,0.503459 1.18709,0.564475 0.52071,0.07092 0.96986,-0.02044 1.34778,-0.274731 0.37759,-0.254604 0.68395,-0.602808 0.91907,-1.045252 0.23479,-0.442762 0.40027,-0.953888 0.4977,-1.533697 0.0968,-0.580127 0.12491,-1.162491 0.0843,-1.74773 -0.0412,-0.584952 -0.14855,-1.136744 -0.32201,-1.655409 -0.17346,-0.519048 -0.41369,-0.946349 -0.71973,-1.282255 0.18401,-0.05054 0.40315,-0.14714 0.65871,-0.289808 0.25493,-0.142317 0.51784,-0.302619 0.78874,-0.480746 0.0664,-0.04373 0.13193,-0.08983 0.19838,-0.134746 -0.0249,0.360504 -0.0377,0.6176 -0.0377,0.768222 -0.01,0.335714 -0.0329,0.750237 -0.069,1.243538 -0.0355,0.493492 -0.0585,1.01238 -0.0687,1.556473 -0.0102,0.544349 0.0102,1.09381 0.0613,1.648381 0.0508,0.554252 0.15813,1.058031 0.32137,1.511016 0.16324,0.452346 0.39581,0.836649 0.69673,1.152269 0.30125,0.314981 0.69705,0.503459 1.18741,0.564475 0.52039,0.07092 0.96954,-0.02044 1.34745,-0.274731 0.37792,-0.254604 0.68427,-0.602808 0.91907,-1.045252 0.2348,-0.442762 0.4006,-0.953888 0.49771,-1.533697 0.0971,-0.580127 0.12491,-1.162491 0.0843,-1.74773 -0.0409,-0.584952 -0.14823,-1.136744 -0.32137,-1.655409 -0.17411,-0.519048 -0.4137,-0.946349 -0.72037,-1.282255 0.184,-0.05054 0.40347,-0.14714 0.65871,-0.289808 0.25525,-0.142317 0.51816,-0.302619 0.78905,-0.480746 0.14056,-0.09251 0.28016,-0.187967 0.41977,-0.286135 0.0524,0.497549 0.16547,0.933955 0.34564,1.301039 0.21979,0.44781 0.51816,0.793587 0.89607,1.037905 0.3776,0.243935 0.82196,0.378872 1.33276,0.404237 0.51049,0.02517 1.06666,-0.06871 1.66947,-0.282461 0.44915,-0.162634 0.83952,-0.366094 1.17143,-0.610253 0.3316,-0.244318 0.63028,-0.541889 0.89607,-0.892713 0.0153,-0.02032 0.0297,-0.04239 0.0447,-0.0629 0.0473,0.142476 0.0997,0.279362 0.16197,0.406185 0.21978,0.44781 0.51847,0.793587 0.89606,1.037905 0.3776,0.243935 0.82196,0.378872 1.33245,0.404237 0.51048,0.02517 1.06697,-0.06871 1.66946,-0.282461 0.44947,-0.162634 0.83984,-0.366094 1.17176,-0.610253 0.33159,-0.244318 0.63028,-0.541889 0.89606,-0.892713 0.26547,-0.351175 0.50762,-0.755635 0.7274,-1.213317 0.21946,-0.457872 0.44148,-0.981585 0.66638,-1.571871 0.0406,-0.162634 0.002,-0.307634 -0.115,-0.43484 z"
     fill="#0d0c23"
     id="path20"
     style="stroke-width:0.319454" />
  <metadata
     id="metadata23">
    <rdf:RDF>
      <cc:Work
         rdf:about="" />
    </rdf:RDF>
  </metadata>
</svg>
