<?xml version="1.0" encoding="UTF-8" standalone="no"?>
<svg
   width="174"
   height="37"
   version="1.1"
   id="svg3"
   sodipodi:docname="gh-button-medium.svg"
   inkscape:version="1.4 (e7c3feb100, 2024-10-09)"
   viewBox="0 0 174 37"
   xmlns:inkscape="http://www.inkscape.org/namespaces/inkscape"
   xmlns:sodipodi="http://sodipodi.sourceforge.net/DTD/sodipodi-0.dtd"
   xmlns="http://www.w3.org/2000/svg"
   xmlns:svg="http://www.w3.org/2000/svg"
   xmlns:rdf="http://www.w3.org/1999/02/22-rdf-syntax-ns#"
   xmlns:cc="http://creativecommons.org/ns#"
   xmlns:dc="http://purl.org/dc/elements/1.1/">
  <defs
     id="defs3">
    <svg id="gh-heart-240" xmlns="http://www.w3.org/2000/svg" width="240" height="240" viewBox="0 0 240 240">
      <path
         fill="#c96198"
         d="m 120,215.61817 3.74182,7.27636 a 8.1599986,8.1599986 0 0 1 -7.48364,0 l -0.0327,-0.0218 -0.0764,-0.0327 -0.27273,-0.14181 A 339.68721,339.68721 0 0 1 58.7891,183.68726 C 30.54547,159.65454 2e-5,124.29818 2e-5,82.647283 v -0.01091 c 0,-37.745449 30.86181,-65.596353 62.57453,-65.596353 25.02546,0 45.21818,13.374543 57.42545,33.872722 12.21818,-20.498179 32.39999,-33.872722 57.42545,-33.872722 31.70181,0 62.57453,27.839995 62.57453,65.607262 0,41.650898 -30.55636,77.018168 -58.78908,101.039978 a 339.79631,339.79631 0 0 1 -57.08726,39.01091 l -0.27273,0.14181 -0.0764,0.0327 -0.0218,0.0109 z M 62.57455,33.403655 c -22.67999,0 -46.2109,20.509087 -46.2109,49.243628 0,33.894537 25.35273,65.018167 53.02909,88.581797 a 323.50904,323.50904 0 0 0 49.8109,34.63636 l 0.79636,0.44727 0.79636,-0.43636 c 2.95637,-1.66909 7.21091,-4.14545 12.32727,-7.35273 10.25455,-6.41454 23.89091,-15.71999 37.48363,-27.29454 27.67636,-23.56363 53.02909,-54.68726 53.02909,-88.581797 0,-28.734541 -23.53091,-49.243628 -46.21091,-49.243628 -22.97454,0 -41.46544,15.152724 -49.66908,39.741811 a 8.1927259,8.1927259 0 0 1 -15.51272,0 C 104.04,48.556379 85.53819,33.403655 62.57455,33.403655 Z"
         id="path143"
         style="stroke-width:10.9091" />
    </svg>
  </defs>
  <sodipodi:namedview
     id="namedview3"
     pagecolor="#505050"
     bordercolor="#ffffff"
     borderopacity="1"
     inkscape:showpageshadow="0"
     inkscape:pageopacity="0"
     inkscape:pagecheckerboard="1"
     inkscape:deskcolor="#d1d1d1"
     showgrid="false"
     inkscape:zoom="1.168217"
     inkscape:cx="433.99471"
     inkscape:cy="90.308564"
     inkscape:window-width="1920"
     inkscape:window-height="1010"
     inkscape:window-x="0"
     inkscape:window-y="0"
     inkscape:window-maximized="0"
     inkscape:current-layer="svg3" />
  <rect
     id="back"
     fill="#202730"
     stroke="#3d444d"
     x="0"
     y="0"
     width="174"
     height="37"
     rx="15.6097556"
     style="stroke-width:1.33333" />
<!--  <image
     x="5"
     y="1"
     width="35px"
     height="35px"
     href="gh-heart-240.svg"
     preserveAspectRatio="XMinYMin meet"
     clip-path="url(#satori_cp-id-0-0-1-0-0)"
     mask="url(#satori_om-id-0-0-1-0-0)"
     id="image14" />
-->
  <use href="#gh-heart-240" x="5" y="1" width="35px" height="35px" />
  <text
     fill="#f0f6fc"
     text-anchor="middle"
     font-family="BlinkMacSystemFont, 'Segoe UI', 'Noto Sans', 'Helvetica Neue', Helvetica, Arial, sans-serif"
     font-weight="700"
     font-size="30px"
     x="107.066878425"
     y="26.6082413022"
     id="text2"
     style="stroke-width:1.00461"
     transform="scale(0.97112789,1.0297305)">Sponsor</text>
  <metadata
     id="metadata3">
    <rdf:RDF>
      <cc:Work
         rdf:about="">
        <cc:license
           rdf:resource="http://creativecommons.org/publicdomain/zero/1.0/" />
        <dc:rights>
          <cc:Agent>
            <dc:title>CC0 Public Domain</dc:title>
          </cc:Agent>
        </dc:rights>
        <dc:publisher>
          <cc:Agent>
            <dc:title>LiberaPay W144000981</dc:title>
          </cc:Agent>
        </dc:publisher>
        <dc:identifier>lp-donate-button</dc:identifier>
        <dc:source>https://liberapay.com/assets/widgets/donate.svg</dc:source>
        <dc:language>en_US</dc:language>
        <dc:contributor>
          <cc:Agent>
            <dc:title>James Cuzella (@trinitronx) - Added metadata, Resized viewbox &amp; viewport, adapted for GitHub Colorscheme, fonts, &amp; Sponsors heart button</dc:title>
          </cc:Agent>
        </dc:contributor>
      </cc:Work>
      <cc:License
         rdf:about="http://creativecommons.org/publicdomain/zero/1.0/">
        <cc:permits
           rdf:resource="http://creativecommons.org/ns#Reproduction" />
        <cc:permits
           rdf:resource="http://creativecommons.org/ns#Distribution" />
        <cc:permits
           rdf:resource="http://creativecommons.org/ns#DerivativeWorks" />
      </cc:License>
    </rdf:RDF>
  </metadata>
</svg>
