<?xml version="1.0" encoding="UTF-8" standalone="no"?>
<svg xmlns="http://www.w3.org/2000/svg" width="240" height="240" viewBox="0 0 240 240">
  <path
     fill="#c96198"
     d="m 120,215.61817 3.74182,7.27636 a 8.1599986,8.1599986 0 0 1 -7.48364,0 l -0.0327,-0.0218 -0.0764,-0.0327 -0.27273,-0.14181 A 339.68721,339.68721 0 0 1 58.7891,183.68726 C 30.54547,159.65454 2e-5,124.29818 2e-5,82.647283 v -0.01091 c 0,-37.745449 30.86181,-65.596353 62.57453,-65.596353 25.02546,0 45.21818,13.374543 57.42545,33.872722 12.21818,-20.498179 32.39999,-33.872722 57.42545,-33.872722 31.70181,0 62.57453,27.839995 62.57453,65.607262 0,41.650898 -30.55636,77.018168 -58.78908,101.039978 a 339.79631,339.79631 0 0 1 -57.08726,39.01091 l -0.27273,0.14181 -0.0764,0.0327 -0.0218,0.0109 z M 62.57455,33.403655 c -22.67999,0 -46.2109,20.509087 -46.2109,49.243628 0,33.894537 25.35273,65.018167 53.02909,88.581797 a 323.50904,323.50904 0 0 0 49.8109,34.63636 l 0.79636,0.44727 0.79636,-0.43636 c 2.95637,-1.66909 7.21091,-4.14545 12.32727,-7.35273 10.25455,-6.41454 23.89091,-15.71999 37.48363,-27.29454 27.67636,-23.56363 53.02909,-54.68726 53.02909,-88.581797 0,-28.734541 -23.53091,-49.243628 -46.21091,-49.243628 -22.97454,0 -41.46544,15.152724 -49.66908,39.741811 a 8.1927259,8.1927259 0 0 1 -15.51272,0 C 104.04,48.556379 85.53819,33.403655 62.57455,33.403655 Z"
     id="path143"
     style="stroke-width:10.9091" />
</svg>
