<?xml version="1.0" encoding="UTF-8" standalone="no"?>
<svg
   viewBox="0 0 310 400"
   height="80"
   width="62"
   x="0"
   y="0"
   version="1.1"
   id="svg2"
   sodipodi:docname="lp-logo-notransform-test.svg"
   inkscape:version="1.4 (e7c3feb100, 2024-10-09)"
   xmlns:inkscape="http://www.inkscape.org/namespaces/inkscape"
   xmlns:sodipodi="http://sodipodi.sourceforge.net/DTD/sodipodi-0.dtd"
   xmlns="http://www.w3.org/2000/svg"
   xmlns:svg="http://www.w3.org/2000/svg">
  <defs
     id="defs1" />
  <sodipodi:namedview
     id="namedview1"
     pagecolor="#505050"
     bordercolor="#ffffff"
     borderopacity="1"
     inkscape:showpageshadow="0"
     inkscape:pageopacity="0"
     inkscape:pagecheckerboard="1"
     inkscape:deskcolor="#d1d1d1"
     showgrid="false"
     inkscape:zoom="3.0585937"
     inkscape:cx="63.75479"
     inkscape:cy="63.264369"
     inkscape:window-width="1920"
     inkscape:window-height="1010"
     inkscape:window-x="0"
     inkscape:window-y="0"
     inkscape:window-maximized="0"
     inkscape:current-layer="svg2" />
  <g
     fill="#1a171b"
     id="g2">
    <path
       d="m 76.857224,323.88188 c -19.50916,0 -34.81712,-2.54586 -45.945699,-7.62668 -11.12857,-5.0808 -19.09394,-12.01361 -23.9015643,-20.80937 -4.807633,-8.79037 -7.14590897,-18.88644 -7.00385897,-30.28815 0.13659,-11.39629 1.70998597,-23.55198 4.74206797,-36.46703 L 57.080374,9.88843 120.94542,0 63.669024,237.32255 c -1.10358,4.94422 -1.71544,9.47866 -1.85207,13.59799 -0.14202,4.11923 0.61737,7.76319 2.26727,10.92098 1.6499,3.16316 4.46349,5.70354 8.44615,7.62115 3.98269,1.92857 9.54427,3.16318 16.69013,3.70956 l -12.36328,50.6878"
       id="path1"
       style="stroke-width:5.46324" />
    <path
       d="m 307.62388,187.51977 c 0,20.05552 -3.29978,38.40647 -9.8939,55.01464 -6.59409,16.62465 -15.72863,30.97106 -27.37077,43.05571 -11.68034,12.09017 -25.68806,21.49778 -42.02857,28.2285 -16.34603,6.72517 -34.13423,10.09608 -53.35933,10.09608 -9.34213,0 -18.68429,-0.82505 -28.02093,-2.47491 l -18.54219,74.57855 H 67.427724 L 135.82729,110.89252 c 10.98106,-3.29428 23.55198,-6.24445 37.70169,-8.86131 14.14429,-2.60597 29.46323,-3.91168 45.94576,-3.91168 15.37894,0 28.63824,2.33824 39.76133,7.00381 11.12859,4.67111 20.2577,11.0576 27.42541,19.15955 7.14046,8.10742 12.42341,17.58614 15.8652,28.43617 3.42544,10.85536 5.14642,22.4538 5.14642,34.8171 M 158.10084,272.0031 c 4.6656,1.10358 10.43481,1.64989 17.30208,1.64989 10.71339,0 20.4652,-1.98861 29.25551,-5.97677 8.7904,-3.97728 16.27503,-9.54428 22.45937,-16.69015 6.17886,-7.14047 10.98104,-15.7177 14.42288,-25.75369 3.43098,-10.02499 5.15182,-21.07709 5.15182,-33.16723 0,-11.80603 -2.61687,-21.84195 -7.8288,-30.08052 -5.2228,-8.23851 -14.28632,-12.36328 -27.1959,-12.36328 -8.79579,0 -17.03432,0.82496 -24.72112,2.47484 L 158.10084,272.0031"
       id="path2"
       style="display:inline;stroke-width:5.46324" />
  </g>
</svg>
