<?xml version="1.0" encoding="UTF-8" standalone="no"?>
<!-- Generator: Adobe Illustrator 22.0.1, SVG Export Plug-In . SVG Version: 6.00 Build 0)  -->

<svg
   version="1.1"
   x="0px"
   y="0px"
   viewBox="0 0 174 33.143002"
   xml:space="preserve"
   id="svg13"
   sodipodi:docname="paypal-button-medium-blue.svg"
   inkscape:version="1.4 (e7c3feb100, 2024-10-09)"
   width="174"
   height="33.143002"
   xmlns:inkscape="http://www.inkscape.org/namespaces/inkscape"
   xmlns:sodipodi="http://sodipodi.sourceforge.net/DTD/sodipodi-0.dtd"
   xmlns="http://www.w3.org/2000/svg"
   xmlns:svg="http://www.w3.org/2000/svg"
   xmlns:rdf="http://www.w3.org/1999/02/22-rdf-syntax-ns#"
   xmlns:cc="http://creativecommons.org/ns#"
   xmlns:dc="http://purl.org/dc/elements/1.1/"><defs
   id="defs13" /><sodipodi:namedview
   id="namedview13"
   pagecolor="#505050"
   bordercolor="#ffffff"
   borderopacity="1"
   inkscape:showpageshadow="0"
   inkscape:pageopacity="0"
   inkscape:pagecheckerboard="1"
   inkscape:deskcolor="#d1d1d1"
   inkscape:zoom="1.0857143"
   inkscape:cx="281.38158"
   inkscape:cy="99.934209"
   inkscape:window-width="1920"
   inkscape:window-height="1010"
   inkscape:window-x="0"
   inkscape:window-y="0"
   inkscape:window-maximized="0"
   inkscape:current-layer="svg13" />
<style
   type="text/css"
   id="style1">
	.st0{fill:#009CDE;}
	.st1{fill:#FFFFFF;}
	.st2{filter:url(#Adobe_OpacityMaskFilter);}
	.st3{opacity:0.678;mask:url(#e_1_);fill:#FFFFFF;enable-background:new    ;}
	.st4{filter:url(#Adobe_OpacityMaskFilter_1_);}
	.st5{opacity:0.696;mask:url(#g_1_);fill:#FFFFFF;enable-background:new    ;}
	.st6{filter:url(#Adobe_OpacityMaskFilter_2_);}
	.st7{mask:url(#i_1_);fill:#FFFFFF;}
</style>
<g
   id="button"
   transform="scale(0.16571429)">
	<path
   id="blue"
   class="st0"
   d="M 1018,200 H 32 C 14.3,200 0,185.7 0,168 V 32 C 0,14.3 14.3,0 32,0 h 986 c 17.7,0 32,14.3 32,32 v 136 c 0,17.7 -14.3,32 -32,32 z" />
</g>
<g
   id="donate"
   transform="scale(0.16571429)">
	<g
   id="g9">
		<path
   class="st1"
   d="m 73.3,110.6 c 0,-13.1 6.8,-21.4 17.2,-21.4 5.9,0 10.6,3.1 12.8,7.7 h 0.2 V 79.3 c 0,-3.3 2,-5.1 4.8,-5.1 2.8,0 4.9,1.8 4.9,5.1 v 47.9 c 0,3.1 -2,4.9 -4.8,4.9 -2.8,0 -4.9,-1.7 -4.9,-4.9 V 124 h -0.2 c -2,4.8 -6.4,8 -12.9,8 -10.4,0 -17.1,-8.2 -17.1,-21.4 z m 30.2,0 c 0,-8.1 -4,-13.4 -10.2,-13.4 -6.3,0 -10.2,5.2 -10.2,13.4 0,8.2 3.9,13.4 10.2,13.4 6.2,0 10.2,-5.2 10.2,-13.4 z"
   id="path1" />
		<path
   class="st1"
   d="m 205.5,131.7 c -3.3,0 -5.2,-2 -5.2,-5.7 v -19.7 c 0,-5.4 -2.7,-8.5 -7.5,-8.5 -5.4,0 -8.7,3.9 -8.7,10.4 V 126 c 0,3.6 -1.9,5.7 -5.2,5.7 -3.3,0 -5.2,-2 -5.2,-5.7 V 95 c 0,-3.4 2,-5.5 5.1,-5.5 3.1,0 4.9,1.8 5,5.2 v 2.5 h 0.5 c 1.6,-4.9 6.3,-8 12.3,-8 8.8,0 13.8,5.2 13.8,14.3 V 126 c 0.2,3.7 -1.6,5.7 -4.9,5.7 z"
   id="path2" />
		<path
   class="st1"
   d="m 232,131.9 c -8.1,0 -13.6,-5.1 -13.6,-12.6 0,-7.7 5.7,-12.4 15.1,-12.4 h 9.8 v -3.4 c 0,-4.2 -2.6,-6.4 -7.3,-6.4 -3.1,0 -5.4,1.2 -7.7,3.2 -1.2,0.9 -2.3,1.4 -3.9,1.4 -2.3,0 -3.7,-1.5 -3.7,-3.6 0,-2.4 1.7,-4.9 5.3,-6.7 2.6,-1.4 6.1,-2.1 10.6,-2.1 10.9,0 17,5.2 17,14.3 v 22.7 c 0,3.5 -1.8,5.5 -5,5.5 -2.7,0 -4.5,-1.5 -4.8,-4.2 v -1.4 h -0.5 c -2.2,3.6 -6.3,5.7 -11.3,5.7 z m 3.4,-7.4 c 4.5,0 7.9,-3 7.9,-7 v -4.3 h -8 c -4.2,0 -6.7,2 -6.7,5.4 0,3.5 2.8,5.9 6.8,5.9 z"
   id="path3" />
		<path
   class="st1"
   d="m 266.3,98.3 h -2.1 c -2.8,0 -4.4,-1.5 -4.4,-4 0,-2.5 1.6,-4 4.4,-4 h 2.3 v -5.4 c 0,-3.6 1.8,-5.5 5,-5.5 3.2,0 5,2 5,5.5 v 5.4 h 4.1 c 2.8,0 4.4,1.5 4.4,4 0,2.5 -1.6,4 -4.4,4 h -4 v 20.9 c 0,3.8 1,5 4.1,5 1.1,0 1.8,-0.2 2.7,-0.2 1.8,0 3,1.2 3,3.1 0,1.5 -0.7,2.8 -2.1,3.7 -1.4,0.9 -3.6,1.4 -6.4,1.4 -8.2,0 -11.7,-3.4 -11.7,-11.9 v -22 z"
   id="path4" />
		<path
   class="st1"
   d="m 291.3,108 c 0,-11.3 7.5,-19 18.6,-19 10.5,0 18,7.5 18,17.7 0,4.6 -1.3,6.2 -5.2,6.2 h -21 v 1.8 c 0,5.8 3.7,9.5 9.8,9.5 3.2,0 5.5,-0.8 7.3,-2.3 2,-1.5 2.7,-2.1 4.3,-2.1 2.1,0 3.6,1.5 3.6,3.8 0,1.8 -1.1,3.6 -3.1,5 -2.7,2.3 -7.5,3.7 -12.8,3.7 -12.1,0 -19.6,-7.1 -19.6,-18.9 V 108 Z m 26.8,-1.6 v 0 c 0,-5.7 -3.1,-9.4 -8,-9.4 -5.1,0 -8.3,3.8 -8.3,9.3 v 0.1 z"
   id="path5" />
		<path
   class="st1"
   d="m 359.5,97.1 c -0.3,-1.2 -0.4,-1.9 -0.4,-2.5 0,-2.9 2.1,-5 5.2,-5 2.7,0 4.5,1.8 5,5.1 l 5.2,25.9 h 0.5 l 6.2,-24.5 c 1.2,-4.8 2.9,-6.6 6.3,-6.6 3.4,0 5.2,1.8 6.4,6.6 l 6.3,24.5 h 0.5 l 5.4,-25.9 c 0.6,-3.2 2.4,-5.1 5,-5.1 3.1,0 5,2 5,4.7 0,0.6 -0.2,1.5 -0.5,2.7 l -7.2,26.5 c -1.7,6.2 -3.7,8.2 -7.3,8.2 -3.9,0 -5.9,-2 -7.5,-8.2 l -6,-21.8 h -0.4 l -5.8,21.8 c -1.6,6.3 -3.4,8.2 -7.3,8.2 -3.8,0 -5.9,-2.1 -7.5,-8.2 z"
   id="path6" />
		<path
   class="st1"
   d="m 426.9,74 c 3.4,0 5.9,2.3 5.9,5.4 0,3.1 -2.5,5.4 -5.9,5.4 -3.3,0 -5.8,-2.3 -5.8,-5.4 0,-3.1 2.5,-5.4 5.8,-5.4 z m 0,57.7 c -3.2,0 -5.1,-2 -5.1,-5.7 V 95.2 c 0,-3.8 2,-5.7 5.2,-5.7 3.2,0 5.1,2 5.1,5.7 v 30.9 c 0,3.7 -2,5.6 -5.2,5.6 z"
   id="path7" />
		<path
   class="st1"
   d="m 444,98.3 h -2.1 c -2.8,0 -4.4,-1.5 -4.4,-4 0,-2.5 1.6,-4 4.4,-4 h 2.3 v -5.4 c 0,-3.6 1.8,-5.5 5,-5.5 3.2,0 5,2 5,5.5 v 5.4 h 4.1 c 2.8,0 4.4,1.5 4.4,4 0,2.5 -1.6,4 -4.4,4 h -4 v 20.9 c 0,3.8 1,5 4.1,5 1.1,0 1.8,-0.2 2.7,-0.2 1.8,0 3,1.2 3,3.1 0,1.5 -0.7,2.8 -2.1,3.7 -1.4,0.9 -3.6,1.4 -6.4,1.4 -8.2,0 -11.7,-3.4 -11.7,-11.9 v -22 z"
   id="path8" />
		<path
   class="st1"
   d="m 501.1,131.7 c -3.3,0 -5.2,-2 -5.2,-5.7 v -19.6 c 0,-5.4 -2.8,-8.5 -7.6,-8.5 -5.3,0 -8.8,4 -8.8,10.4 v 17.8 c 0,3.6 -1.9,5.7 -5.2,5.7 -3.3,0 -5.1,-2 -5.1,-5.7 V 80.6 c 0,-3.6 1.8,-5.7 5.2,-5.7 3.3,0 5.1,2.1 5.1,5.7 v 16.6 h 0.5 c 1.4,-4.7 6.5,-8 12.4,-8 8.6,0 13.8,5.4 13.8,14.4 V 126 c 0.1,3.7 -1.8,5.7 -5.1,5.7 z"
   id="path9" />
	</g>
	<path
   id="heart_2_"
   class="st1"
   d="m 154.3,89.2 c -4.3,0 -8.5,2.1 -10.8,6.7 -2.3,-4.6 -6.5,-6.7 -10.8,-6.7 -6.7,0 -12.7,4.7 -12.7,13.1 0,14.2 19.4,21.4 23.5,29.9 4.1,-8.5 23.5,-15.7 23.5,-29.9 0,-9 -6.7,-13.1 -12.7,-13.1 z m -4.1,10 c 3,0 5.7,2 5.7,6 0,6.3 -8.3,10.6 -12.8,15.2 -4.4,-4.6 -12.8,-8.9 -12.8,-15.2 0,-3.9 2.6,-6 5.7,-6 4.1,0 6.2,4.6 7,6.8 1,-2.2 3.2,-6.8 7.2,-6.8 z" />
</g>
<g
   id="PayPal"
   transform="scale(0.16571429)">
	<path
   class="st1"
   d="m 888.7,89.7 c -1.2,8 -7.3,8 -13.2,8 h -3.4 l 2.4,-14.9 c 0.1,-0.9 0.9,-1.6 1.8,-1.6 h 1.5 c 4,0 7.8,0 9.7,2.3 1.3,1.4 1.6,3.4 1.2,6.2 m -2.6,-20.8 h -22.2 c -1.5,0 -2.8,1.1 -3,2.6 l -9,56.9 c -0.2,1 0.5,2 1.5,2.1 0.1,0 0.2,0 0.3,0 h 11.4 c 1.1,0 2,-0.8 2.1,-1.8 l 2.5,-16.1 c 0.2,-1.5 1.5,-2.6 3.1,-2.6 h 7 c 14.6,0 23.1,-7.1 25.3,-21.1 1,-6.1 0,-11 -2.8,-14.3 -3.1,-3.7 -8.7,-5.7 -16.2,-5.7 M 730.2,89.7 c -1.2,8 -7.3,8 -13.2,8 h -3.4 L 716,82.8 c 0.1,-0.9 0.9,-1.6 1.8,-1.6 h 1.5 c 4,0 7.8,0 9.7,2.3 1.3,1.4 1.7,3.4 1.2,6.2 m -2.5,-20.8 h -22.2 c -1.5,0 -2.8,1.1 -3.1,2.6 l -9,56.9 c -0.2,1 0.5,2 1.5,2.1 0.1,0 0.2,0 0.3,0 h 10.6 c 1.5,0 2.8,-1.1 3,-2.6 l 2.4,-15.4 c 0.2,-1.5 1.5,-2.6 3,-2.6 h 7 c 14.6,0 23.1,-7.1 25.3,-21.1 1,-6.1 0,-11 -2.8,-14.3 -3,-3.6 -8.6,-5.6 -16,-5.6 m 51.6,41.3 c -1,6.1 -5.9,10.2 -12,10.2 -3.1,0 -5.6,-1 -7.1,-2.9 -1.6,-1.9 -2.2,-4.5 -1.7,-7.5 1,-6 5.9,-10.2 11.9,-10.2 3,0 5.5,1 7.1,2.9 1.6,1.8 2.2,4.5 1.8,7.5 m 14.8,-20.7 h -10.6 c -0.9,0 -1.7,0.7 -1.8,1.6 l -0.5,3 -0.7,-1.1 c -2.3,-3.3 -7.4,-4.5 -12.6,-4.5 -11.8,0 -21.8,8.9 -23.7,21.4 -1,6.2 0.4,12.2 4,16.3 3.2,3.8 7.9,5.4 13.4,5.4 9.5,0 14.7,-6.1 14.7,-6.1 l -0.5,3 c -0.2,1 0.5,2 1.5,2.1 0.1,0 0.2,0 0.3,0 h 9.6 c 1.5,0 2.8,-1.1 3,-2.6 L 796,91.6 c 0.2,-1 -0.5,-2 -1.5,-2.1 -0.2,0 -0.3,0 -0.4,0 m 143.6,20.7 c -1,6.1 -5.9,10.2 -12,10.2 -3.1,0 -5.6,-1 -7.1,-2.9 -1.6,-1.9 -2.2,-4.5 -1.7,-7.5 1,-6 5.9,-10.2 11.9,-10.2 3,0 5.5,1 7.1,2.9 1.6,1.8 2.3,4.5 1.8,7.5 m 14.8,-20.7 h -10.6 c -0.9,0 -1.7,0.7 -1.8,1.6 l -0.5,3 -0.7,-1.1 c -2.3,-3.3 -7.4,-4.5 -12.6,-4.5 -11.8,0 -21.8,8.9 -23.7,21.4 -1,6.2 0.4,12.2 4,16.3 3.2,3.8 7.9,5.4 13.4,5.4 9.5,0 14.7,-6.1 14.7,-6.1 l -0.5,3 c -0.2,1 0.5,2 1.5,2.1 0.1,0 0.2,0 0.3,0 h 9.6 c 1.5,0 2.8,-1.1 3,-2.6 l 5.8,-36.4 c 0.2,-1 -0.5,-2 -1.5,-2.1 -0.2,0 -0.3,0 -0.4,0 m -101.8,0 H 840 c -1,0 -2,0.5 -2.6,1.4 l -14.7,21.7 -6.3,-20.9 c -0.4,-1.3 -1.6,-2.2 -3,-2.2 H 803 c -1,0 -1.9,0.8 -1.9,1.9 0,0.2 0,0.4 0.1,0.6 l 11.8,34.5 -11,15.6 c -0.9,1.2 0,2.9 1.5,2.9 h 10.7 c 1,0 2,-0.5 2.5,-1.3 l 35.6,-51.3 c 0.8,-1.3 -0.1,-2.9 -1.6,-2.9 m 114.4,-19 -9.1,58 c -0.2,1 0.5,2 1.5,2.1 0.1,0 0.2,0 0.3,0 h 9.2 c 1.5,0 2.8,-1.1 3,-2.6 l 9,-56.9 c 0.2,-1 -0.5,-2 -1.5,-2.1 -0.1,0 -0.2,0 -0.3,0 h -10.3 c -0.9,-0.1 -1.7,0.6 -1.8,1.5"
   id="path10" />
	<g
   id="g13">
		<defs
   id="defs10">
			<filter
   id="Adobe_OpacityMaskFilter"
   filterUnits="userSpaceOnUse"
   x="575"
   y="47"
   width="83.099998"
   height="98">
				<feColorMatrix
   type="matrix"
   values="1 0 0 0 0  0 1 0 0 0  0 0 1 0 0  0 0 0 1 0"
   id="feColorMatrix10" />
			</filter>
		</defs>
		<mask
   maskUnits="userSpaceOnUse"
   x="575"
   y="47"
   width="83.1"
   height="98"
   id="e_1_">
			<g
   class="st2"
   id="g10">
				<path
   id="d_1_"
   class="st1"
   d="m 575,47 h 83.1 v 98 H 575 Z" />
			</g>
		</mask>
		<path
   class="st3"
   d="m 649.9,71.9 c 1.2,-7.6 0,-12.8 -4.1,-17.5 C 641.3,49.2 633.1,47 622.6,47 H 592 c -2.1,0 -4,1.6 -4.3,3.7 L 575,131.1 c -0.2,1.4 0.7,2.8 2.2,3 0.1,0 0.3,0 0.4,0 h 18.8 l -1.3,8.2 c -0.2,1.2 0.7,2.4 1.9,2.6 0.1,0 0.2,0 0.4,0 h 15.9 c 1.9,0 3.5,-1.4 3.8,-3.2 l 0.2,-0.8 3,-18.9 0.2,-1 c 0.3,-1.9 1.9,-3.2 3.8,-3.2 h 2.4 c 15.4,0 27.4,-6.2 30.9,-24.3 1.5,-7.5 0.7,-13.8 -3.2,-18.3 -1.4,-1.3 -2.8,-2.4 -4.5,-3.3"
   mask="url(#e_1_)"
   id="path11" />
		<defs
   id="defs11">
			<filter
   id="Adobe_OpacityMaskFilter_1_"
   filterUnits="userSpaceOnUse"
   x="575"
   y="47"
   width="75.300003"
   height="87.099998">
				<feColorMatrix
   type="matrix"
   values="1 0 0 0 0  0 1 0 0 0  0 0 1 0 0  0 0 0 1 0"
   id="feColorMatrix11" />
			</filter>
		</defs>
		<mask
   maskUnits="userSpaceOnUse"
   x="575"
   y="47"
   width="75.3"
   height="87.1"
   id="g_1_">
			<g
   class="st4"
   id="g11">
				<path
   id="f_1_"
   class="st1"
   d="m 575,47 h 75.3 v 87.1 H 575 Z" />
			</g>
		</mask>
		<path
   class="st5"
   d="m 649.9,71.9 c 1.2,-7.6 0,-12.8 -4.1,-17.5 C 641.3,49.2 633.1,47 622.6,47 H 592 c -2.1,0 -4,1.6 -4.3,3.7 L 575,131.1 c -0.2,1.4 0.7,2.8 2.2,3 0.1,0 0.3,0 0.4,0 h 18.8 l 4.7,-30 -0.1,0.9 c 0.3,-2.1 2.1,-3.7 4.3,-3.7 h 8.9 c 17.6,0 31.3,-7.1 35.3,-27.8 0.2,-0.4 0.3,-1 0.4,-1.6"
   mask="url(#g_1_)"
   id="path12" />
		<defs
   id="defs12">
			<filter
   id="Adobe_OpacityMaskFilter_2_"
   filterUnits="userSpaceOnUse"
   x="575"
   y="47"
   width="75.300003"
   height="87.099998">
				<feColorMatrix
   type="matrix"
   values="1 0 0 0 0  0 1 0 0 0  0 0 1 0 0  0 0 0 1 0"
   id="feColorMatrix12" />
			</filter>
		</defs>
		<mask
   maskUnits="userSpaceOnUse"
   x="575"
   y="47"
   width="75.3"
   height="87.1"
   id="i_1_">
			<g
   class="st6"
   id="g12">
				<path
   id="h_1_"
   class="st1"
   d="m 575,47 h 75.3 v 87.1 H 575 Z" />
			</g>
		</mask>
		<path
   class="st7"
   d="m 606.2,72 c 0.3,-1.9 1.9,-3.2 3.8,-3.2 h 23.9 c 2.8,0 5.5,0.2 7.9,0.6 0.7,0.1 1.4,0.2 2,0.4 0.9,0.2 1.9,0.5 2.8,0.8 1.1,0.4 2.2,0.8 3.3,1.4 1.2,-7.6 0,-12.8 -4.1,-17.5 -4.5,-5.2 -12.7,-7.4 -23.2,-7.4 H 592 c -2.1,0 -4,1.6 -4.3,3.7 L 575,131.1 c -0.2,1.4 0.7,2.8 2.2,3 0.1,0 0.3,0 0.4,0 h 18.8 l 4.7,-30 z"
   mask="url(#i_1_)"
   id="path13" />
	</g>
</g>
<metadata
   id="metadata1"><rdf:RDF><cc:Work
       rdf:about=""><dc:date>Nov 19, 2019</dc:date><dc:creator><cc:Agent><dc:title>Andre Ostrovsky</dc:title></cc:Agent></dc:creator><dc:rights><cc:Agent><dc:title>WTFPL</dc:title></cc:Agent></dc:rights><dc:source>https://github.com/andreostrovsky/donate-with-paypal</dc:source><dc:language>en_US</dc:language><dc:contributor><cc:Agent><dc:title>James Cuzella (@trinitronx) - Resized viewbox &amp; viewport</dc:title></cc:Agent></dc:contributor><cc:license
         rdf:resource="https://choosealicense.com/licenses/wtfpl/" /></cc:Work></rdf:RDF></metadata></svg>
