<?xml version="1.0" encoding="UTF-8" standalone="no"?>
<svg
   width="174"
   height="44"
   viewBox="0 0 174 44"
   version="1.1"
   id="svg22"
   sodipodi:docname="polar-button-medium-dark.svg"
   inkscape:version="1.4 (e7c3feb100, 2024-10-09)"
   xmlns:inkscape="http://www.inkscape.org/namespaces/inkscape"
   xmlns:sodipodi="http://sodipodi.sourceforge.net/DTD/sodipodi-0.dtd"
   xmlns="http://www.w3.org/2000/svg"
   xmlns:svg="http://www.w3.org/2000/svg">
  <sodipodi:namedview
     id="namedview22"
     pagecolor="#505050"
     bordercolor="#ffffff"
     borderopacity="1"
     inkscape:showpageshadow="0"
     inkscape:pageopacity="0"
     inkscape:pagecheckerboard="1"
     inkscape:deskcolor="#d1d1d1"
     showgrid="false"
     inkscape:zoom="6.2643678"
     inkscape:cx="87"
     inkscape:cy="21.949541"
     inkscape:window-width="1920"
     inkscape:window-height="1010"
     inkscape:window-x="0"
     inkscape:window-y="0"
     inkscape:window-maximized="0"
     inkscape:current-layer="svg22" />
  <mask
     id="satori_om-id">
    <rect
       x="0"
       y="0"
       width="174"
       height="44"
       fill="#fff"
       id="rect1" />
  </mask>
  <defs
     id="defs1">
    <clipPath
       id="satori_bc-id-0">
      <path
         x="0"
         y="0"
         width="174"
         height="42"
         d="M11,0 h152 a11,11 0 0 1 11,11 v20 a11,11 0 0 1 -11,11 h-152 a11,11 0 0 1 -11,-11 v-20 a11,11 0 0 1 11,-11"
         id="path1" />
    </clipPath>
  </defs>
  <mask
     id="satori_ms-id-0-0"
     maskUnits="userSpaceOnUse">
    <rect
       x="0"
       y="0"
       width="100%"
       height="100%"
       fill="#fff"
       id="rect2" />
    <path
       x="0"
       y="0"
       width="174"
       height="42"
       fill="#000"
       stroke-width="0"
       d="M11,0 h152 a11,11 0 0 1 11,11 v20 a11,11 0 0 1 -11,11 h-152 a11,11 0 0 1 -11,-11 v-20 a11,11 0 0 1 11,-11"
       id="path2" />
  </mask>
  <defs
     id="defs2">
    <filter
       id="satori_s-id-0-0"
       x="-0.013793103"
       y="-0.057142857"
       width="1.0275862"
       height="1.1142857">
      <feGaussianBlur
         stdDeviation="1"
         result="b"
         id="feGaussianBlur2" />
      <feFlood
         flood-color="rgba(0, 0, 0, 0.06)"
         in="SourceGraphic"
         result="f"
         id="feFlood2" />
      <feComposite
         in="f"
         in2="b"
         operator="in"
         id="feComposite2" />
    </filter>
  </defs>
  <defs
     id="defs3">
    <svg
       width="58.00000000000001"
       height="17"
       viewBox="0 0 58 17"
       version="1.1"
       id="polar-logo-white"
       sodipodi:docname="polar-logo-white.svg"
       inkscape:version="1.4 (e7c3feb100, 2024-10-09)"
       xmlns:inkscape="http://www.inkscape.org/namespaces/inkscape"
       xmlns:sodipodi="http://sodipodi.sourceforge.net/DTD/sodipodi-0.dtd"
       xmlns="http://www.w3.org/2000/svg"
       xmlns:svg="http://www.w3.org/2000/svg">
      <defs
         id="defs8" />
      <sodipodi:namedview
         id="namedview8"
         pagecolor="#505050"
         bordercolor="#ffffff"
         borderopacity="1"
         inkscape:showpageshadow="0"
         inkscape:pageopacity="0"
         inkscape:pagecheckerboard="1"
         inkscape:deskcolor="#d1d1d1"
         showgrid="false"
         inkscape:zoom="18.793103"
         inkscape:cx="29"
         inkscape:cy="8.487156"
         inkscape:window-width="1920"
         inkscape:window-height="1010"
         inkscape:window-x="0"
         inkscape:window-y="0"
         inkscape:window-maximized="0"
         inkscape:current-layer="svg8" />
      <path
         d="M22.432 13.5423V2.73291H26.7403C27.3065 2.73291 27.8212 2.87704 28.2845 3.16529C28.7478 3.44325 29.1132 3.8293 29.3809 4.32344C29.6588 4.81759 29.7978 5.36835 29.7978 5.97574C29.7978 6.60372 29.6588 7.16992 29.3809 7.67436C29.1132 8.1788 28.7478 8.5803 28.2845 8.87884C27.8212 9.17739 27.3065 9.32666 26.7403 9.32666H23.7754V13.5423H22.432ZM23.7754 8.01409H26.7712C27.08 8.01409 27.358 7.92658 27.6051 7.75157C27.8521 7.56627 28.0477 7.3192 28.1919 7.01036C28.336 6.70152 28.408 6.35664 28.408 5.97574C28.408 5.60513 28.336 5.2757 28.1919 4.98745C28.0477 4.6992 27.8521 4.46757 27.6051 4.29256C27.358 4.11755 27.08 4.03004 26.7712 4.03004H23.7754V8.01409Z"
         fill="#FDFDFC"
         id="path1" />
      <path
         d="M34.7734 13.6968C33.9807 13.6968 33.2704 13.5166 32.6424 13.1563C32.0247 12.7857 31.5357 12.2864 31.1754 11.6584C30.8151 11.0201 30.635 10.2944 30.635 9.48108C30.635 8.6678 30.8151 7.94717 31.1754 7.3192C31.5357 6.69122 32.0247 6.19708 32.6424 5.83676C33.2704 5.47645 33.9807 5.29629 34.7734 5.29629C35.5661 5.29629 36.2713 5.47645 36.889 5.83676C37.517 6.19708 38.0059 6.69122 38.356 7.3192C38.7163 7.94717 38.8964 8.6678 38.8964 9.48108C38.8964 10.2944 38.7163 11.0201 38.356 11.6584C38.0059 12.2864 37.517 12.7857 36.889 13.1563C36.2713 13.5166 35.5661 13.6968 34.7734 13.6968ZM34.7734 12.4923C35.319 12.4923 35.8029 12.3636 36.225 12.1062C36.6471 11.8386 36.9765 11.4783 37.2133 11.0253C37.4603 10.5723 37.5787 10.0576 37.5684 9.48108C37.5787 8.90458 37.4603 8.39499 37.2133 7.95232C36.9765 7.49935 36.6471 7.14419 36.225 6.88682C35.8029 6.62945 35.319 6.50077 34.7734 6.50077C34.2278 6.50077 33.7388 6.62945 33.3064 6.88682C32.8843 7.14419 32.5549 7.49935 32.3181 7.95232C32.0814 8.40529 31.963 8.91487 31.963 9.48108C31.963 10.0576 32.0814 10.5723 32.3181 11.0253C32.5549 11.4783 32.8843 11.8386 33.3064 12.1062C33.7388 12.3636 34.2278 12.4923 34.7734 12.4923Z"
         fill="#FDFDFC"
         id="path2" />
      <path
         d="M40.3075 13.5423V2.11523H41.6046V13.5423H40.3075Z"
         fill="#FDFDFC"
         id="path3" />
      <path
         d="M46.722 13.6968C46.0323 13.6968 45.4043 13.5166 44.8381 13.1563C44.2822 12.7857 43.8395 12.2812 43.5101 11.643C43.1807 11.0047 43.016 10.2841 43.016 9.48108C43.016 8.6678 43.1858 7.94717 43.5255 7.3192C43.8653 6.69122 44.3182 6.19708 44.8844 5.83676C45.4609 5.47645 46.1044 5.29629 46.8147 5.29629C47.2368 5.29629 47.6228 5.35806 47.9729 5.4816C48.3332 5.60513 48.6523 5.78014 48.9303 6.00662C49.2082 6.22281 49.4398 6.48018 49.6252 6.77873C49.8105 7.06698 49.934 7.37582 49.9958 7.70525L49.656 7.55083L49.6715 5.46615H50.9686V13.5423H49.6715V11.5812L49.9958 11.4113C49.9237 11.7099 49.7847 11.9981 49.5788 12.2761C49.3832 12.554 49.1362 12.8011 48.8376 13.0173C48.5494 13.2232 48.2251 13.3879 47.8648 13.5114C47.5044 13.635 47.1235 13.6968 46.722 13.6968ZM47.0309 12.4768C47.5559 12.4768 48.0192 12.3482 48.4207 12.0908C48.8222 11.8334 49.1413 11.4834 49.3781 11.0407C49.6149 10.5878 49.7332 10.0679 49.7332 9.48108C49.7332 8.90458 49.6149 8.39499 49.3781 7.95232C49.1516 7.50965 48.8325 7.15963 48.4207 6.90226C48.0192 6.6449 47.5559 6.51621 47.0309 6.51621C46.5059 6.51621 46.0426 6.6449 45.6411 6.90226C45.2396 7.15963 44.9205 7.50965 44.6837 7.95232C44.4572 8.39499 44.344 8.90458 44.344 9.48108C44.344 10.0576 44.4572 10.5723 44.6837 11.0253C44.9205 11.4783 45.2396 11.8334 45.6411 12.0908C46.0426 12.3482 46.5059 12.4768 47.0309 12.4768Z"
         fill="#FDFDFC"
         id="path4" />
      <path
         d="M52.6352 13.5423V5.46615H53.9323L53.9632 7.73613L53.8242 7.35008C53.9375 6.96918 54.1228 6.62431 54.3802 6.31547C54.6375 6.00663 54.9412 5.75955 55.2912 5.57425C55.6515 5.38894 56.0325 5.29629 56.4339 5.29629C56.609 5.29629 56.7737 5.31173 56.9281 5.34262C57.0928 5.36321 57.2266 5.39409 57.3296 5.43527L56.9744 6.87138C56.8406 6.80961 56.7016 6.76328 56.5575 6.7324C56.4134 6.70152 56.2795 6.68607 56.156 6.68607C55.8266 6.68607 55.5229 6.74784 55.2449 6.87138C54.9772 6.99492 54.7456 7.16478 54.55 7.38097C54.3647 7.58686 54.2154 7.82878 54.1022 8.10674C53.9993 8.3847 53.9478 8.68324 53.9478 9.00238V13.5423H52.6352Z"
         fill="#FDFDFC"
         id="path5" />
      <path
         fill-rule="evenodd"
         clip-rule="evenodd"
         d="M3.59585 14.9566C7.33746 17.4894 12.4239 16.5094 14.9566 12.7678C17.4894 9.02622 16.5094 3.93982 12.7678 1.40705C9.02622 -1.12573 3.93982 -0.145767 1.40705 3.59585C-1.12573 7.33746 -0.145767 12.4239 3.59585 14.9566ZM4.6799 15.0233C8.10255 16.7743 12.4443 15.1307 14.3775 11.352C16.3107 7.57339 15.1033 3.09067 11.6806 1.3396C8.25798 -0.411473 3.91621 1.2322 1.98301 5.01084C0.049806 8.78948 1.25724 13.2722 4.6799 15.0233Z"
         fill="#FDFDFC"
         id="path6" />
      <path
         fill-rule="evenodd"
         clip-rule="evenodd"
         d="M5.64001 15.9169C8.72958 16.9225 12.3641 14.266 13.758 9.98345C15.1518 5.70093 13.7772 1.41408 10.6876 0.408493C7.59809 -0.597091 3.96355 2.05939 2.56968 6.34191C1.17582 10.6244 2.55045 14.9113 5.64001 15.9169ZM6.58615 15.5916C9.20086 16.1493 12.0281 13.2837 12.901 9.19119C13.7739 5.09866 12.3619 1.3289 9.74722 0.771202C7.13251 0.213505 4.30525 3.07906 3.43234 7.17159C2.55944 11.2641 3.97145 15.0339 6.58615 15.5916Z"
         fill="#FDFDFC"
         id="path7" />
      <path
         fill-rule="evenodd"
         clip-rule="evenodd"
         d="M7.31552 16.2665C9.38276 16.4873 11.4459 13.0392 11.9236 8.56507C12.4014 4.09092 11.1128 0.284969 9.04558 0.0642329C6.97834 -0.156503 4.91523 3.29157 4.43749 7.76571C3.95975 12.2399 5.24829 16.0458 7.31552 16.2665ZM8.28426 14.9048C9.78033 14.8811 10.9456 11.8525 10.8869 8.14017C10.8283 4.42782 9.56793 1.43753 8.07186 1.46116C6.57579 1.4848 5.41053 4.51342 5.46918 8.22577C5.52784 11.9381 6.78819 14.9284 8.28426 14.9048Z"
         fill="#FDFDFC"
         id="path8" />
    </svg>
  </defs>
  <g
     mask="url(#satori_ms-id-0-0)"
     filter="url(#satori_s-id-0-0)"
     opacity="1"
     id="g3">
    <path
       x="0"
       y="1"
       width="174"
       height="42"
       fill="#fff"
       stroke="#fff"
       stroke-width="0"
       d="M11,1 h152 a11,11 0 0 1 11,11 v20 a11,11 0 0 1 -11,11 h-152 a11,11 0 0 1 -11,-11 v-20 a11,11 0 0 1 11,-11"
       id="path3" />
  </g>
  <clipPath
     id="satori_cp-id-0">
    <path
       x="0"
       y="0"
       width="174"
       height="42"
       d="M11,0 h152 a11,11 0 0 1 11,11 v20 a11,11 0 0 1 -11,11 h-152 a11,11 0 0 1 -11,-11 v-20 a11,11 0 0 1 11,-11"
       id="path4" />
  </clipPath>
  <mask
     id="satori_om-id-0">
    <rect
       x="1"
       y="1"
       width="172"
       height="40"
       fill="#fff"
       id="rect4" />
    <path
       width="174"
       height="42"
       fill="none"
       stroke="#000"
       stroke-width="2"
       d="M3.2220000000000004,3.2220000000000004 A11,11 0 0 1 11,0 h152 a11,11 0 0 1 11,11 v20 a11,11 0 0 1 -11,11 h-152 a11,11 0 0 1 -11,-11 v-20 A11,11 0 0 1 3.2220000000000004,3.2220000000000004"
       id="path5" />
  </mask>
  <path
     x="0"
     y="0"
     width="174"
     height="42"
     fill="#1D1E27"
     d="M11,0 h152 a11,11 0 0 1 11,11 v20 a11,11 0 0 1 -11,11 h-152 a11,11 0 0 1 -11,-11 v-20 a11,11 0 0 1 11,-11"
     id="path6" />
  <path
     width="174"
     height="42"
     clip-path="url(#satori_bc-id-0)"
     fill="none"
     stroke="rgba(255, 255, 255, 0.05)"
     stroke-width="2"
     d="M3.2220000000000004,3.2220000000000004 A11,11 0 0 1 11,0 h152 a11,11 0 0 1 11,11 v20 a11,11 0 0 1 -11,11 h-152 a11,11 0 0 1 -11,-11 v-20 A11,11 0 0 1 3.2220000000000004,3.2220000000000004"
     id="path7" />
  <mask
     id="satori_om-id-0-0">
    <rect
       x="1"
       y="1"
       width="172"
       height="40"
       fill="#fff"
       mask="url(#satori_om-id-0)"
       id="rect7" />
  </mask>
  <mask
     id="satori_om-id-0-0-0">
    <rect
       x="1"
       y="7"
       width="84"
       height="28"
       fill="#fff"
       mask="url(#satori_om-id-0)"
       id="rect8" />
  </mask>
  <mask
     id="satori_om-id-0-0-0-0">
    <rect
       x="7"
       y="7"
       width="72"
       height="28"
       fill="#fff"
       mask="url(#satori_om-id-0)"
       id="rect9" />
  </mask>
  <path
     x="7"
     y="7"
     width="72"
     height="28"
     fill="#0062FF"
     d="M13,7 h60 a6,6 0 0 1 6,6 v16 a6,6 0 0 1 -6,6 h-60 a6,6 0 0 1 -6,-6 v-16 a6,6 0 0 1 6,-6"
     clip-path="url(#satori_cp-id-0)"
     mask="url(#satori_om-id-0)"
     id="path9" />
  <path
     fill="white"
     d="M25.4 18.6L24.3 18.6Q24.2 17.9 23.6 17.5Q23.1 17.2 22.2 17.2L22.2 17.2Q21.6 17.2 21.1 17.4Q20.6 17.6 20.4 17.9Q20.1 18.3 20.1 18.7L20.1 18.7Q20.1 19.1 20.3 19.4Q20.5 19.6 20.8 19.8Q21.0 20.0 21.4 20.1Q21.7 20.2 21.9 20.3L21.9 20.3L22.9 20.6Q23.3 20.7 23.7 20.8Q24.2 21.0 24.6 21.3Q25.0 21.6 25.3 22.0Q25.6 22.5 25.6 23.2L25.6 23.2Q25.6 23.9 25.2 24.5Q24.8 25.2 24.0 25.5Q23.2 25.9 22.1 25.9L22.1 25.9Q21.1 25.9 20.4 25.6Q19.6 25.2 19.2 24.7Q18.8 24.1 18.7 23.3L18.7 23.3L19.9 23.3Q20.0 23.8 20.3 24.2Q20.6 24.5 21.1 24.7Q21.6 24.9 22.1 24.9L22.1 24.9Q22.8 24.9 23.3 24.6Q23.8 24.4 24.1 24.0Q24.4 23.7 24.4 23.1L24.4 23.1Q24.4 22.7 24.2 22.4Q23.9 22.1 23.5 21.9Q23.1 21.7 22.6 21.6L22.6 21.6L21.4 21.2Q20.3 20.9 19.6 20.3Q19.0 19.7 19.0 18.8L19.0 18.8Q19.0 18.0 19.4 17.4Q19.9 16.8 20.6 16.5Q21.3 16.1 22.2 16.1L22.2 16.1Q23.1 16.1 23.9 16.5Q24.6 16.8 25.0 17.4Q25.4 17.9 25.4 18.6L25.4 18.6ZM31.8 22.8L31.8 22.8L31.8 18.6L32.8 18.6L32.8 25.7L31.8 25.7L31.8 24.5L31.7 24.5Q31.4 25.1 30.9 25.4Q30.4 25.8 29.6 25.8L29.6 25.8Q28.9 25.8 28.4 25.5Q27.9 25.2 27.6 24.6Q27.3 24.0 27.3 23.1L27.3 23.1L27.3 18.6L28.4 18.6L28.4 23.1Q28.4 23.8 28.8 24.3Q29.3 24.8 29.9 24.8L29.9 24.8Q30.3 24.8 30.8 24.6Q31.2 24.4 31.5 23.9Q31.8 23.5 31.8 22.8ZM35.9 28.4L34.8 28.4L34.8 18.6L35.9 18.6L35.9 19.8L36.0 19.8Q36.1 19.6 36.4 19.3Q36.6 19.0 37.0 18.8Q37.4 18.5 38.1 18.5L38.1 18.5Q39.0 18.5 39.7 19.0Q40.3 19.4 40.7 20.3Q41.1 21.1 41.1 22.2L41.1 22.2Q41.1 23.3 40.7 24.2Q40.3 25.0 39.7 25.4Q39.0 25.9 38.1 25.9L38.1 25.9Q37.4 25.9 37.0 25.6Q36.6 25.4 36.4 25.1Q36.1 24.8 36.0 24.6L36.0 24.6L35.9 24.6L35.9 28.4ZM35.9 22.2L35.9 22.2Q35.9 23.0 36.1 23.6Q36.4 24.2 36.8 24.6Q37.3 24.9 37.9 24.9L37.9 24.9Q38.6 24.9 39.1 24.5Q39.5 24.2 39.8 23.6Q40.0 22.9 40.0 22.2L40.0 22.2Q40.0 21.4 39.8 20.8Q39.6 20.2 39.1 19.9Q38.6 19.5 37.9 19.5L37.9 19.5Q37.3 19.5 36.8 19.9Q36.4 20.2 36.1 20.8Q35.9 21.4 35.9 22.2ZM43.9 28.4L42.8 28.4L42.8 18.6L43.8 18.6L43.8 19.8L43.9 19.8Q44.1 19.6 44.3 19.3Q44.5 19.0 44.9 18.8Q45.3 18.5 46.0 18.5L46.0 18.5Q46.9 18.5 47.6 19.0Q48.3 19.4 48.6 20.3Q49.0 21.1 49.0 22.2L49.0 22.2Q49.0 23.3 48.6 24.2Q48.3 25.0 47.6 25.4Q46.9 25.9 46.0 25.9L46.0 25.9Q45.3 25.9 44.9 25.6Q44.5 25.4 44.3 25.1Q44.1 24.8 43.9 24.6L43.9 24.6L43.9 24.6L43.9 28.4ZM43.8 22.2L43.8 22.2Q43.8 23.0 44.1 23.6Q44.3 24.2 44.8 24.6Q45.2 24.9 45.9 24.9L45.9 24.9Q46.5 24.9 47.0 24.5Q47.5 24.2 47.7 23.6Q47.9 22.9 47.9 22.2L47.9 22.2Q47.9 21.4 47.7 20.8Q47.5 20.2 47.0 19.9Q46.6 19.5 45.9 19.5L45.9 19.5Q45.2 19.5 44.7 19.9Q44.3 20.2 44.1 20.8Q43.8 21.4 43.8 22.2ZM53.6 25.9L53.6 25.9Q52.6 25.9 51.9 25.4Q51.2 25.0 50.8 24.1Q50.4 23.3 50.4 22.2L50.4 22.2Q50.4 21.1 50.8 20.3Q51.2 19.5 51.9 19.0Q52.6 18.5 53.6 18.5L53.6 18.5Q54.5 18.5 55.2 19.0Q56.0 19.5 56.4 20.3Q56.8 21.1 56.8 22.2L56.8 22.2Q56.8 23.3 56.4 24.1Q56.0 25.0 55.2 25.4Q54.5 25.9 53.6 25.9ZM53.6 24.9L53.6 24.9Q54.3 24.9 54.8 24.5Q55.2 24.1 55.5 23.5Q55.7 22.9 55.7 22.2L55.7 22.2Q55.7 21.5 55.5 20.9Q55.2 20.3 54.8 19.9Q54.3 19.5 53.6 19.5L53.6 19.5Q52.8 19.5 52.4 19.9Q51.9 20.3 51.7 20.9Q51.4 21.5 51.4 22.2L51.4 22.2Q51.4 22.9 51.7 23.5Q51.9 24.1 52.4 24.5Q52.8 24.9 53.6 24.9ZM59.5 25.7L58.4 25.7L58.4 18.6L59.5 18.6L59.5 19.7L59.6 19.7Q59.8 19.2 60.3 18.9Q60.8 18.5 61.4 18.5L61.4 18.5Q61.5 18.5 61.7 18.5Q61.9 18.5 62.0 18.5L62.0 18.5L62.0 19.7Q61.9 19.6 61.7 19.6Q61.5 19.6 61.3 19.6L61.3 19.6Q60.8 19.6 60.4 19.8Q60.0 20.0 59.8 20.4Q59.5 20.8 59.5 21.2L59.5 21.2L59.5 25.7ZM63.1 18.6L66.8 18.6L66.8 19.6L63.1 19.6L63.1 18.6ZM64.2 24.0L64.2 16.9L65.3 16.9L65.3 23.7Q65.3 24.2 65.4 24.4Q65.6 24.6 65.8 24.7Q66.0 24.8 66.2 24.8L66.2 24.8Q66.4 24.8 66.5 24.7Q66.6 24.7 66.7 24.7L66.7 24.7L66.9 25.7Q66.8 25.7 66.6 25.8Q66.4 25.8 66.1 25.8L66.1 25.8Q65.7 25.8 65.2 25.6Q64.8 25.4 64.5 25.0Q64.2 24.6 64.2 24.0L64.2 24.0Z "
     clip-path="url(#satori_cp-id-0)"
     mask="url(#satori_om-id-0)"
     id="path10" />
  <mask
     id="satori_om-id-0-0-1">
    <rect
       x="91"
       y="1"
       width="82"
       height="40"
       fill="#fff"
       mask="url(#satori_om-id-0)"
       id="rect10" />
  </mask>
  <mask
     id="satori_om-id-0-0-1-0">
    <rect
       x="91"
       y="1"
       width="82"
       height="40"
       fill="#fff"
       mask="url(#satori_om-id-0)"
       id="rect11" />
  </mask>
  <rect
     x="91"
     y="1"
     width="82"
     height="40"
     fill="#343748"
     clip-path="url(#satori_cp-id-0)"
     mask="url(#satori_om-id-0)"
     id="rect12" />
<!--  <image
     x="103"
     y="13"
     width="58"
     height="17"
     href="./polar-logo-white.svg"
     preserveAspectRatio="none"
     clip-path="url(#satori_cp-id-0-0-1-0-0)"
     mask="url(#satori_om-id-0-0-1-0-0)"
     id="image14" />
-->
  <use href="#polar-logo-white"
     x="103" y="13"
     width="58" height="17"
     preserveAspectRatio="none" />
</svg>
