<?xml version="1.0" encoding="UTF-8" standalone="no"?>
<svg
   width="175"
   height="44"
   viewBox="0 0 175 44"
   version="1.1"
   id="svg23"
   sodipodi:docname="polar-button-medium-light.svg"
   inkscape:version="1.4 (e7c3feb100, 2024-10-09)"
   xmlns:inkscape="http://www.inkscape.org/namespaces/inkscape"
   xmlns:sodipodi="http://sodipodi.sourceforge.net/DTD/sodipodi-0.dtd"
   xmlns="http://www.w3.org/2000/svg"
   xmlns:svg="http://www.w3.org/2000/svg">
  <sodipodi:namedview
     id="namedview23"
     pagecolor="#505050"
     bordercolor="#ffffff"
     borderopacity="1"
     inkscape:showpageshadow="0"
     inkscape:pageopacity="0"
     inkscape:pagecheckerboard="1"
     inkscape:deskcolor="#d1d1d1"
     showgrid="false"
     inkscape:zoom="6.2285714"
     inkscape:cx="87.580276"
     inkscape:cy="22.075688"
     inkscape:window-width="1920"
     inkscape:window-height="1010"
     inkscape:window-x="0"
     inkscape:window-y="0"
     inkscape:window-maximized="0"
     inkscape:current-layer="svg23" />
  <mask
     id="satori_om-id">
    <rect
       x="0"
       y="0"
       width="175"
       height="44"
       fill="#fff"
       id="rect1" />
  </mask>
  <defs
     id="defs1">
    <clipPath
       id="satori_bc-id-0">
      <path
         x="0"
         y="0"
         width="175"
         height="42"
         d="M11,0 h153 a11,11 0 0 1 11,11 v20 a11,11 0 0 1 -11,11 h-153 a11,11 0 0 1 -11,-11 v-20 a11,11 0 0 1 11,-11"
         id="path1" />
    </clipPath>
  </defs>
  <mask
     id="satori_ms-id-0-0"
     maskUnits="userSpaceOnUse">
    <rect
       x="0"
       y="0"
       width="100%"
       height="100%"
       fill="#fff"
       id="rect2" />
    <path
       x="0"
       y="0"
       width="175"
       height="42"
       fill="#000"
       stroke-width="0"
       d="M11,0 h153 a11,11 0 0 1 11,11 v20 a11,11 0 0 1 -11,11 h-153 a11,11 0 0 1 -11,-11 v-20 a11,11 0 0 1 11,-11"
       id="path2" />
  </mask>
  <defs
     id="defs2">
    <filter
       id="satori_s-id-0-0"
       x="-0.013714286"
       y="-0.057142857"
       width="1.0274286"
       height="1.1142857">
      <feGaussianBlur
         stdDeviation="1"
         result="b"
         id="feGaussianBlur2" />
      <feFlood
         flood-color="rgba(0, 0, 0, 0.06)"
         in="SourceGraphic"
         result="f"
         id="feFlood2" />
      <feComposite
         in="f"
         in2="b"
         operator="in"
         id="feComposite2" />
    </filter>
  </defs>
  <g
     mask="url(#satori_ms-id-0-0)"
     filter="url(#satori_s-id-0-0)"
     opacity="1"
     id="g3">
    <path
       x="0"
       y="1"
       width="175"
       height="42"
       fill="#fff"
       stroke="#fff"
       stroke-width="0"
       d="M11,1 h153 a11,11 0 0 1 11,11 v20 a11,11 0 0 1 -11,11 h-153 a11,11 0 0 1 -11,-11 v-20 a11,11 0 0 1 11,-11"
       id="path3" />
  </g>
  <clipPath
     id="satori_cp-id-0">
    <path
       x="0"
       y="0"
       width="175"
       height="42"
       d="M11,0 h153 a11,11 0 0 1 11,11 v20 a11,11 0 0 1 -11,11 h-153 a11,11 0 0 1 -11,-11 v-20 a11,11 0 0 1 11,-11"
       id="path4" />
  </clipPath>
  <mask
     id="satori_om-id-0">
    <rect
       x="1"
       y="1"
       width="173"
       height="40"
       fill="#fff"
       id="rect4" />
    <path
       width="175"
       height="42"
       fill="none"
       stroke="#000"
       stroke-width="2"
       d="M3.2220000000000004,3.2220000000000004 A11,11 0 0 1 11,0 h153 a11,11 0 0 1 11,11 v20 a11,11 0 0 1 -11,11 h-153 a11,11 0 0 1 -11,-11 v-20 A11,11 0 0 1 3.2220000000000004,3.2220000000000004"
       id="path5" />
  </mask>
  <path
     x="0"
     y="0"
     width="175"
     height="42"
     fill="white"
     d="M11,0 h153 a11,11 0 0 1 11,11 v20 a11,11 0 0 1 -11,11 h-153 a11,11 0 0 1 -11,-11 v-20 a11,11 0 0 1 11,-11"
     id="path6" />
  <path
     width="175"
     height="42"
     clip-path="url(#satori_bc-id-0)"
     fill="none"
     stroke="rgba(0, 0, 0, 0.11)"
     stroke-width="2"
     d="M3.2220000000000004,3.2220000000000004 A11,11 0 0 1 11,0 h153 a11,11 0 0 1 11,11 v20 a11,11 0 0 1 -11,11 h-153 a11,11 0 0 1 -11,-11 v-20 A11,11 0 0 1 3.2220000000000004,3.2220000000000004"
     id="path7" />
  <mask
     id="satori_om-id-0-0">
    <rect
       x="1"
       y="1"
       width="173"
       height="40"
       fill="#fff"
       mask="url(#satori_om-id-0)"
       id="rect7" />
  </mask>
  <mask
     id="satori_om-id-0-0-0">
    <rect
       x="1"
       y="7"
       width="84"
       height="28"
       fill="#fff"
       mask="url(#satori_om-id-0)"
       id="rect8" />
  </mask>
  <mask
     id="satori_om-id-0-0-0-0">
    <rect
       x="7"
       y="7"
       width="72"
       height="28"
       fill="#fff"
       mask="url(#satori_om-id-0)"
       id="rect9" />
  </mask>
  <path
     x="7"
     y="7"
     width="72"
     height="28"
     fill="#0062FF"
     d="M13,7 h60 a6,6 0 0 1 6,6 v16 a6,6 0 0 1 -6,6 h-60 a6,6 0 0 1 -6,-6 v-16 a6,6 0 0 1 6,-6"
     clip-path="url(#satori_cp-id-0)"
     mask="url(#satori_om-id-0)"
     id="path9" />
  <path
     fill="white"
     d="M25.4 18.6L24.3 18.6Q24.2 17.9 23.6 17.5Q23.1 17.2 22.2 17.2L22.2 17.2Q21.6 17.2 21.1 17.4Q20.6 17.6 20.4 17.9Q20.1 18.3 20.1 18.7L20.1 18.7Q20.1 19.1 20.3 19.4Q20.5 19.6 20.8 19.8Q21.0 20.0 21.4 20.1Q21.7 20.2 21.9 20.3L21.9 20.3L22.9 20.6Q23.3 20.7 23.7 20.8Q24.2 21.0 24.6 21.3Q25.0 21.6 25.3 22.0Q25.6 22.5 25.6 23.2L25.6 23.2Q25.6 23.9 25.2 24.5Q24.8 25.2 24.0 25.5Q23.2 25.9 22.1 25.9L22.1 25.9Q21.1 25.9 20.4 25.6Q19.6 25.2 19.2 24.7Q18.8 24.1 18.7 23.3L18.7 23.3L19.9 23.3Q20.0 23.8 20.3 24.2Q20.6 24.5 21.1 24.7Q21.6 24.9 22.1 24.9L22.1 24.9Q22.8 24.9 23.3 24.6Q23.8 24.4 24.1 24.0Q24.4 23.7 24.4 23.1L24.4 23.1Q24.4 22.7 24.2 22.4Q23.9 22.1 23.5 21.9Q23.1 21.7 22.6 21.6L22.6 21.6L21.4 21.2Q20.3 20.9 19.6 20.3Q19.0 19.7 19.0 18.8L19.0 18.8Q19.0 18.0 19.4 17.4Q19.9 16.8 20.6 16.5Q21.3 16.1 22.2 16.1L22.2 16.1Q23.1 16.1 23.9 16.5Q24.6 16.8 25.0 17.4Q25.4 17.9 25.4 18.6L25.4 18.6ZM31.8 22.8L31.8 22.8L31.8 18.6L32.8 18.6L32.8 25.7L31.8 25.7L31.8 24.5L31.7 24.5Q31.4 25.1 30.9 25.4Q30.4 25.8 29.6 25.8L29.6 25.8Q28.9 25.8 28.4 25.5Q27.9 25.2 27.6 24.6Q27.3 24.0 27.3 23.1L27.3 23.1L27.3 18.6L28.4 18.6L28.4 23.1Q28.4 23.8 28.8 24.3Q29.3 24.8 29.9 24.8L29.9 24.8Q30.3 24.8 30.8 24.6Q31.2 24.4 31.5 23.9Q31.8 23.5 31.8 22.8ZM35.9 28.4L34.8 28.4L34.8 18.6L35.9 18.6L35.9 19.8L36.0 19.8Q36.1 19.6 36.4 19.3Q36.6 19.0 37.0 18.8Q37.4 18.5 38.1 18.5L38.1 18.5Q39.0 18.5 39.7 19.0Q40.3 19.4 40.7 20.3Q41.1 21.1 41.1 22.2L41.1 22.2Q41.1 23.3 40.7 24.2Q40.3 25.0 39.7 25.4Q39.0 25.9 38.1 25.9L38.1 25.9Q37.4 25.9 37.0 25.6Q36.6 25.4 36.4 25.1Q36.1 24.8 36.0 24.6L36.0 24.6L35.9 24.6L35.9 28.4ZM35.9 22.2L35.9 22.2Q35.9 23.0 36.1 23.6Q36.4 24.2 36.8 24.6Q37.3 24.9 37.9 24.9L37.9 24.9Q38.6 24.9 39.1 24.5Q39.5 24.2 39.8 23.6Q40.0 22.9 40.0 22.2L40.0 22.2Q40.0 21.4 39.8 20.8Q39.6 20.2 39.1 19.9Q38.6 19.5 37.9 19.5L37.9 19.5Q37.3 19.5 36.8 19.9Q36.4 20.2 36.1 20.8Q35.9 21.4 35.9 22.2ZM43.9 28.4L42.8 28.4L42.8 18.6L43.8 18.6L43.8 19.8L43.9 19.8Q44.1 19.6 44.3 19.3Q44.5 19.0 44.9 18.8Q45.3 18.5 46.0 18.5L46.0 18.5Q46.9 18.5 47.6 19.0Q48.3 19.4 48.6 20.3Q49.0 21.1 49.0 22.2L49.0 22.2Q49.0 23.3 48.6 24.2Q48.3 25.0 47.6 25.4Q46.9 25.9 46.0 25.9L46.0 25.9Q45.3 25.9 44.9 25.6Q44.5 25.4 44.3 25.1Q44.1 24.8 43.9 24.6L43.9 24.6L43.9 24.6L43.9 28.4ZM43.8 22.2L43.8 22.2Q43.8 23.0 44.1 23.6Q44.3 24.2 44.8 24.6Q45.2 24.9 45.9 24.9L45.9 24.9Q46.5 24.9 47.0 24.5Q47.5 24.2 47.7 23.6Q47.9 22.9 47.9 22.2L47.9 22.2Q47.9 21.4 47.7 20.8Q47.5 20.2 47.0 19.9Q46.6 19.5 45.9 19.5L45.9 19.5Q45.2 19.5 44.7 19.9Q44.3 20.2 44.1 20.8Q43.8 21.4 43.8 22.2ZM53.6 25.9L53.6 25.9Q52.6 25.9 51.9 25.4Q51.2 25.0 50.8 24.1Q50.4 23.3 50.4 22.2L50.4 22.2Q50.4 21.1 50.8 20.3Q51.2 19.5 51.9 19.0Q52.6 18.5 53.6 18.5L53.6 18.5Q54.5 18.5 55.2 19.0Q56.0 19.5 56.4 20.3Q56.8 21.1 56.8 22.2L56.8 22.2Q56.8 23.3 56.4 24.1Q56.0 25.0 55.2 25.4Q54.5 25.9 53.6 25.9ZM53.6 24.9L53.6 24.9Q54.3 24.9 54.8 24.5Q55.2 24.1 55.5 23.5Q55.7 22.9 55.7 22.2L55.7 22.2Q55.7 21.5 55.5 20.9Q55.2 20.3 54.8 19.9Q54.3 19.5 53.6 19.5L53.6 19.5Q52.8 19.5 52.4 19.9Q51.9 20.3 51.7 20.9Q51.4 21.5 51.4 22.2L51.4 22.2Q51.4 22.9 51.7 23.5Q51.9 24.1 52.4 24.5Q52.8 24.9 53.6 24.9ZM59.5 25.7L58.4 25.7L58.4 18.6L59.5 18.6L59.5 19.7L59.6 19.7Q59.8 19.2 60.3 18.9Q60.8 18.5 61.4 18.5L61.4 18.5Q61.5 18.5 61.7 18.5Q61.9 18.5 62.0 18.5L62.0 18.5L62.0 19.7Q61.9 19.6 61.7 19.6Q61.5 19.6 61.3 19.6L61.3 19.6Q60.8 19.6 60.4 19.8Q60.0 20.0 59.8 20.4Q59.5 20.8 59.5 21.2L59.5 21.2L59.5 25.7ZM63.1 18.6L66.8 18.6L66.8 19.6L63.1 19.6L63.1 18.6ZM64.2 24.0L64.2 16.9L65.3 16.9L65.3 23.7Q65.3 24.2 65.4 24.4Q65.6 24.6 65.8 24.7Q66.0 24.8 66.2 24.8L66.2 24.8Q66.4 24.8 66.5 24.7Q66.6 24.7 66.7 24.7L66.7 24.7L66.9 25.7Q66.8 25.7 66.6 25.8Q66.4 25.8 66.1 25.8L66.1 25.8Q65.7 25.8 65.2 25.6Q64.8 25.4 64.5 25.0Q64.2 24.6 64.2 24.0L64.2 24.0Z "
     clip-path="url(#satori_cp-id-0)"
     mask="url(#satori_om-id-0)"
     id="path10" />
  <mask
     id="satori_om-id-0-0-1">
    <rect
       x="91"
       y="1"
       width="83"
       height="40"
       fill="#fff"
       mask="url(#satori_om-id-0)"
       id="rect10" />
  </mask>
  <defs
     id="defs11">
    <clipPath
       id="satori_bc-id-0-0-1-0"
       clip-path="url(#satori_cp-id-0)">
      <rect
         x="91"
         y="1"
         width="83"
         height="40"
         id="rect11" />
    </clipPath>
  </defs>
  <mask
     id="satori_om-id-0-0-1-0">
    <rect
       x="92"
       y="1"
       width="82"
       height="40"
       fill="#fff"
       mask="url(#satori_om-id-0)"
       id="rect12" />
    <path
       width="83"
       height="40"
       fill="none"
       stroke="#000"
       stroke-width="2"
       d="M91,41 A0,0 0 0 1 91,41 v-40 A0,0 0 0 1 91,1"
       id="path12" />
  </mask>
  <rect
     x="91"
     y="1"
     width="83"
     height="40"
     fill="#FDFDFC"
     clip-path="url(#satori_cp-id-0)"
     mask="url(#satori_om-id-0)"
     id="rect13" />
  <path
     width="83"
     height="40"
     clip-path="url(#satori_bc-id-0-0-1-0)"
     fill="none"
     stroke="rgba(0, 0, 0, 0.05)"
     stroke-width="2"
     d="M91,41 A0,0 0 0 1 91,41 v-40 A0,0 0 0 1 91,1"
     id="path13" />
  <clipPath
     id="satori_cp-id-0-0-1-0-0"
     clip-path="url(#satori_cp-id-0)">
    <rect
       x="104"
       y="13"
       width="58"
       height="17"
       id="rect14" />
  </clipPath>
  <mask
     id="satori_om-id-0-0-1-0-0">
    <rect
       x="104"
       y="13"
       width="58"
       height="17"
       fill="#fff"
       mask="url(#satori_om-id-0)"
       id="rect15" />
  </mask>
  <image
     x="104"
     y="13"
     width="58"
     height="17"
     href="polar-logo-blue.svg"
     preserveAspectRatio="none"
     clip-path="url(#satori_cp-id-0-0-1-0-0)"
     mask="url(#satori_om-id-0-0-1-0-0)"
     id="image15" />
  <mask
     id="satori_om-id-0-0-1-0-0-0">
    <rect
       x="104"
       y="13"
       width="0"
       height="17"
       fill="#fff"
       mask="url(#satori_om-id-0)"
       id="rect16" />
  </mask>
  <mask
     id="satori_om-id-0-0-1-0-0-1">
    <rect
       x="104"
       y="13"
       width="0"
       height="17"
       fill="#fff"
       mask="url(#satori_om-id-0)"
       id="rect17" />
  </mask>
  <mask
     id="satori_om-id-0-0-1-0-0-2">
    <rect
       x="104"
       y="13"
       width="0"
       height="17"
       fill="#fff"
       mask="url(#satori_om-id-0)"
       id="rect18" />
  </mask>
  <mask
     id="satori_om-id-0-0-1-0-0-3">
    <rect
       x="104"
       y="13"
       width="0"
       height="17"
       fill="#fff"
       mask="url(#satori_om-id-0)"
       id="rect19" />
  </mask>
  <mask
     id="satori_om-id-0-0-1-0-0-4">
    <rect
       x="104"
       y="13"
       width="0"
       height="17"
       fill="#fff"
       mask="url(#satori_om-id-0)"
       id="rect20" />
  </mask>
  <mask
     id="satori_om-id-0-0-1-0-0-5">
    <rect
       x="104"
       y="13"
       width="0"
       height="17"
       fill="#fff"
       mask="url(#satori_om-id-0)"
       id="rect21" />
  </mask>
  <mask
     id="satori_om-id-0-0-1-0-0-6">
    <rect
       x="104"
       y="13"
       width="0"
       height="17"
       fill="#fff"
       mask="url(#satori_om-id-0)"
       id="rect22" />
  </mask>
  <mask
     id="satori_om-id-0-0-1-0-0-7">
    <rect
       x="104"
       y="13"
       width="0"
       height="17"
       fill="#fff"
       mask="url(#satori_om-id-0)"
       id="rect23" />
  </mask>
</svg>
