<?xml version="1.0" encoding="UTF-8" standalone="no"?>
<svg
   width="83"
   height="20.989"
   viewBox="0 0 83 20.989"
   version="1.1"
   id="svg23"
   sodipodi:docname="polar-button-small-light.svg"
   inkscape:version="1.4 (e7c3feb100, 2024-10-09)"
   xmlns:inkscape="http://www.inkscape.org/namespaces/inkscape"
   xmlns:sodipodi="http://sodipodi.sourceforge.net/DTD/sodipodi-0.dtd"
   xmlns="http://www.w3.org/2000/svg"
   xmlns:svg="http://www.w3.org/2000/svg">
  <sodipodi:namedview
     id="namedview23"
     pagecolor="#505050"
     bordercolor="#ffffff"
     borderopacity="1"
     inkscape:showpageshadow="0"
     inkscape:pageopacity="0"
     inkscape:pagecheckerboard="1"
     inkscape:deskcolor="#d1d1d1"
     showgrid="false"
     inkscape:zoom="6.2285714"
     inkscape:cx="87.580276"
     inkscape:cy="22.075688"
     inkscape:window-width="1920"
     inkscape:window-height="1010"
     inkscape:window-x="0"
     inkscape:window-y="0"
     inkscape:window-maximized="0"
     inkscape:current-layer="svg23" />
  <mask
     id="satori_om-id">
    <rect
       x="0"
       y="0"
       width="175"
       height="44"
       fill="#ffffff"
       id="rect1" />
  </mask>
  <defs
     id="defs1">
    <clipPath
       id="satori_bc-id-0">
      <path
         x="0"
         y="0"
         width="175"
         height="42"
         d="m 11,0 h 153 a 11,11 0 0 1 11,11 V 31 A 11,11 0 0 1 164,42 H 11 A 11,11 0 0 1 0,31 V 11 A 11,11 0 0 1 11,0"
         id="path1" />
    </clipPath>
  </defs>
  <mask
     id="satori_ms-id-0-0"
     maskUnits="userSpaceOnUse">
    <rect
       x="0"
       y="0"
       width="100%"
       height="100%"
       fill="#ffffff"
       id="rect2" />
    <path
       x="0"
       y="0"
       width="175"
       height="42"
       fill="#000000"
       stroke-width="0"
       d="m 11,0 h 153 a 11,11 0 0 1 11,11 V 31 A 11,11 0 0 1 164,42 H 11 A 11,11 0 0 1 0,31 V 11 A 11,11 0 0 1 11,0"
       id="path2" />
  </mask>
  <defs
     id="defs2">
    <filter
       id="satori_s-id-0-0"
       x="-0.013714286"
       y="-0.057142857"
       width="1.0274286"
       height="1.1142857">
      <feGaussianBlur
         stdDeviation="1"
         result="b"
         id="feGaussianBlur2" />
      <feFlood
         flood-color="rgba(0, 0, 0, 0.06)"
         in="SourceGraphic"
         result="f"
         id="feFlood2" />
      <feComposite
         in="f"
         in2="b"
         operator="in"
         id="feComposite2" />
    </filter>
  </defs>
  <g
     mask="url(#satori_ms-id-0-0)"
     filter="url(#satori_s-id-0-0)"
     opacity="1"
     id="g3"
     transform="scale(0.47428571,0.47702237)">
    <path
       x="0"
       y="1"
       width="175"
       height="42"
       fill="#ffffff"
       stroke="#ffffff"
       stroke-width="0"
       d="m 11,1 h 153 a 11,11 0 0 1 11,11 V 32 A 11,11 0 0 1 164,43 H 11 A 11,11 0 0 1 0,32 V 12 A 11,11 0 0 1 11,1"
       id="path3" />
  </g>
  <clipPath
     id="satori_cp-id-0">
    <path
       x="0"
       y="0"
       width="175"
       height="42"
       d="m 11,0 h 153 a 11,11 0 0 1 11,11 V 31 A 11,11 0 0 1 164,42 H 11 A 11,11 0 0 1 0,31 V 11 A 11,11 0 0 1 11,0"
       id="path4" />
  </clipPath>
  <mask
     id="satori_om-id-0">
    <rect
       x="1"
       y="1"
       width="173"
       height="40"
       fill="#ffffff"
       id="rect4" />
    <path
       width="175"
       height="42"
       fill="none"
       stroke="#000000"
       stroke-width="2"
       d="M 3.222,3.222 A 11,11 0 0 1 11,0 h 153 a 11,11 0 0 1 11,11 V 31 A 11,11 0 0 1 164,42 H 11 A 11,11 0 0 1 0,31 V 11 A 11,11 0 0 1 3.222,3.222"
       id="path5" />
  </mask>
  <path
     x="0"
     y="0"
     width="175"
     height="42"
     fill="#ffffff"
     d="M 5.217143,0 H 77.78286 A 5.2171429,5.2472461 0 0 1 83,5.2472465 V 14.787693 A 5.2171429,5.2472461 0 0 1 77.78286,20.03494 H 5.217143 A 5.2171429,5.2472461 0 0 1 0,14.787693 V 5.2472465 A 5.2171429,5.2472461 0 0 1 5.217143,0"
     id="path6"
     style="stroke-width:0.475652" />
  <path
     width="175"
     height="42"
     clip-path="url(#satori_bc-id-0)"
     fill="none"
     stroke="rgba(0, 0, 0, 0.11)"
     stroke-width="2"
     d="M 3.222,3.222 A 11,11 0 0 1 11,0 h 153 a 11,11 0 0 1 11,11 V 31 A 11,11 0 0 1 164,42 H 11 A 11,11 0 0 1 0,31 V 11 A 11,11 0 0 1 3.222,3.222"
     id="path7"
     transform="scale(0.47428571,0.47702237)" />
  <mask
     id="satori_om-id-0-0">
    <rect
       x="1"
       y="1"
       width="173"
       height="40"
       fill="#ffffff"
       mask="url(#satori_om-id-0)"
       id="rect7" />
  </mask>
  <mask
     id="satori_om-id-0-0-0">
    <rect
       x="1"
       y="7"
       width="84"
       height="28"
       fill="#ffffff"
       mask="url(#satori_om-id-0)"
       id="rect8" />
  </mask>
  <mask
     id="satori_om-id-0-0-0-0">
    <rect
       x="7"
       y="7"
       width="72"
       height="28"
       fill="#ffffff"
       mask="url(#satori_om-id-0)"
       id="rect9" />
  </mask>
  <path
     x="7"
     y="7"
     width="72"
     height="28"
     fill="#0062ff"
     d="m 13,7 h 60 a 6,6 0 0 1 6,6 v 16 a 6,6 0 0 1 -6,6 H 13 A 6,6 0 0 1 7,29 V 13 a 6,6 0 0 1 6,-6"
     clip-path="url(#satori_cp-id-0)"
     mask="url(#satori_om-id-0)"
     id="path9"
     transform="scale(0.47428571,0.47702237)" />
  <path
     fill="#ffffff"
     d="m 25.4,18.6 h -1.1 q -0.1,-0.7 -0.7,-1.1 -0.5,-0.3 -1.4,-0.3 v 0 q -0.6,0 -1.1,0.2 -0.5,0.2 -0.7,0.5 -0.3,0.4 -0.3,0.8 v 0 q 0,0.4 0.2,0.7 0.2,0.2 0.5,0.4 0.2,0.2 0.6,0.3 0.3,0.1 0.5,0.2 v 0 l 1,0.3 q 0.4,0.1 0.8,0.2 0.5,0.2 0.9,0.5 0.4,0.3 0.7,0.7 0.3,0.5 0.3,1.2 v 0 q 0,0.7 -0.4,1.3 -0.4,0.7 -1.2,1 -0.8,0.4 -1.9,0.4 v 0 q -1,0 -1.7,-0.3 -0.8,-0.4 -1.2,-0.9 -0.4,-0.6 -0.5,-1.4 v 0 h 1.2 q 0.1,0.5 0.4,0.9 0.3,0.3 0.8,0.5 0.5,0.2 1,0.2 v 0 q 0.7,0 1.2,-0.3 0.5,-0.2 0.8,-0.6 0.3,-0.3 0.3,-0.9 v 0 q 0,-0.4 -0.2,-0.7 -0.3,-0.3 -0.7,-0.5 -0.4,-0.2 -0.9,-0.3 v 0 L 21.4,21.2 Q 20.3,20.9 19.6,20.3 19,19.7 19,18.8 v 0 q 0,-0.8 0.4,-1.4 0.5,-0.6 1.2,-0.9 0.7,-0.4 1.6,-0.4 v 0 q 0.9,0 1.7,0.4 0.7,0.3 1.1,0.9 0.4,0.5 0.4,1.2 z m 6.4,4.2 v 0 -4.2 h 1 v 7.1 h -1 v -1.2 h -0.1 q -0.3,0.6 -0.8,0.9 -0.5,0.4 -1.3,0.4 v 0 q -0.7,0 -1.2,-0.3 -0.5,-0.3 -0.8,-0.9 -0.3,-0.6 -0.3,-1.5 v 0 -4.5 h 1.1 v 4.5 q 0,0.7 0.4,1.2 0.5,0.5 1.1,0.5 v 0 q 0.4,0 0.9,-0.2 0.4,-0.2 0.7,-0.7 0.3,-0.4 0.3,-1.1 z m 4.1,5.6 h -1.1 v -9.8 h 1.1 v 1.2 H 36 q 0.1,-0.2 0.4,-0.5 0.2,-0.3 0.6,-0.5 0.4,-0.3 1.1,-0.3 v 0 q 0.9,0 1.6,0.5 0.6,0.4 1,1.3 0.4,0.8 0.4,1.9 v 0 q 0,1.1 -0.4,2 -0.4,0.8 -1,1.2 -0.7,0.5 -1.6,0.5 v 0 Q 37.4,25.9 37,25.6 36.6,25.4 36.4,25.1 36.1,24.8 36,24.6 v 0 h -0.1 z m 0,-6.2 v 0 q 0,0.8 0.2,1.4 0.3,0.6 0.7,1 0.5,0.3 1.1,0.3 v 0 q 0.7,0 1.2,-0.4 0.4,-0.3 0.7,-0.9 0.2,-0.7 0.2,-1.4 v 0 q 0,-0.8 -0.2,-1.4 -0.2,-0.6 -0.7,-0.9 -0.5,-0.4 -1.2,-0.4 v 0 q -0.6,0 -1.1,0.4 -0.4,0.3 -0.7,0.9 -0.2,0.6 -0.2,1.4 z m 8,6.2 h -1.1 v -9.8 h 1 v 1.2 h 0.1 q 0.2,-0.2 0.4,-0.5 0.2,-0.3 0.6,-0.5 0.4,-0.3 1.1,-0.3 v 0 q 0.9,0 1.6,0.5 0.7,0.4 1,1.3 0.4,0.8 0.4,1.9 v 0 q 0,1.1 -0.4,2 -0.3,0.8 -1,1.2 -0.7,0.5 -1.6,0.5 v 0 q -0.7,0 -1.1,-0.3 -0.4,-0.2 -0.6,-0.5 -0.2,-0.3 -0.4,-0.5 v 0 0 z m -0.1,-6.2 v 0 q 0,0.8 0.3,1.4 0.2,0.6 0.7,1 0.4,0.3 1.1,0.3 v 0 q 0.6,0 1.1,-0.4 0.5,-0.3 0.7,-0.9 0.2,-0.7 0.2,-1.4 v 0 q 0,-0.8 -0.2,-1.4 -0.2,-0.6 -0.7,-0.9 -0.4,-0.4 -1.1,-0.4 v 0 q -0.7,0 -1.2,0.4 -0.4,0.3 -0.6,0.9 -0.3,0.6 -0.3,1.4 z m 9.8,3.7 v 0 q -1,0 -1.7,-0.5 -0.7,-0.4 -1.1,-1.3 -0.4,-0.8 -0.4,-1.9 v 0 q 0,-1.1 0.4,-1.9 0.4,-0.8 1.1,-1.3 0.7,-0.5 1.7,-0.5 v 0 q 0.9,0 1.6,0.5 0.8,0.5 1.2,1.3 0.4,0.8 0.4,1.9 v 0 q 0,1.1 -0.4,1.9 -0.4,0.9 -1.2,1.3 -0.7,0.5 -1.6,0.5 z m 0,-1 v 0 q 0.7,0 1.2,-0.4 0.4,-0.4 0.7,-1 0.2,-0.6 0.2,-1.3 v 0 q 0,-0.7 -0.2,-1.3 -0.3,-0.6 -0.7,-1 -0.5,-0.4 -1.2,-0.4 v 0 q -0.8,0 -1.2,0.4 -0.5,0.4 -0.7,1 -0.3,0.6 -0.3,1.3 v 0 q 0,0.7 0.3,1.3 0.2,0.6 0.7,1 0.4,0.4 1.2,0.4 z m 5.9,0.8 h -1.1 v -7.1 h 1.1 v 1.1 h 0.1 q 0.2,-0.5 0.7,-0.8 0.5,-0.4 1.1,-0.4 v 0 q 0.1,0 0.3,0 0.2,0 0.3,0 v 0 1.2 q -0.1,-0.1 -0.3,-0.1 -0.2,0 -0.4,0 v 0 q -0.5,0 -0.9,0.2 -0.4,0.2 -0.6,0.6 -0.3,0.4 -0.3,0.8 v 0 z m 3.6,-7.1 h 3.7 v 1 h -3.7 z m 1.1,5.4 v -7.1 h 1.1 v 6.8 q 0,0.5 0.1,0.7 0.2,0.2 0.4,0.3 0.2,0.1 0.4,0.1 v 0 q 0.2,0 0.3,-0.1 0.1,0 0.2,0 v 0 l 0.2,1 q -0.1,0 -0.3,0.1 -0.2,0 -0.5,0 v 0 q -0.4,0 -0.9,-0.2 -0.4,-0.2 -0.7,-0.6 -0.3,-0.4 -0.3,-1 z"
     clip-path="url(#satori_cp-id-0)"
     mask="url(#satori_om-id-0)"
     id="path10"
     transform="scale(0.47428571,0.47702237)" />
  <mask
     id="satori_om-id-0-0-1">
    <rect
       x="91"
       y="1"
       width="83"
       height="40"
       fill="#ffffff"
       mask="url(#satori_om-id-0)"
       id="rect10" />
  </mask>
  <defs
     id="defs11">
    <clipPath
       id="satori_bc-id-0-0-1-0"
       clip-path="url(#satori_cp-id-0)">
      <rect
         x="91"
         y="1"
         width="83"
         height="40"
         id="rect11" />
    </clipPath>
  </defs>
  <mask
     id="satori_om-id-0-0-1-0">
    <rect
       x="92"
       y="1"
       width="82"
       height="40"
       fill="#ffffff"
       mask="url(#satori_om-id-0)"
       id="rect12" />
    <path
       width="83"
       height="40"
       fill="none"
       stroke="#000000"
       stroke-width="2"
       d="M 91,41 V 1"
       id="path12" />
  </mask>
  <rect
     x="91"
     y="1"
     width="83"
     height="40"
     fill="#fdfdfc"
     clip-path="url(#satori_cp-id-0)"
     mask="url(#satori_om-id-0)"
     id="rect13"
     transform="scale(0.47428571,0.47702237)" />
  <path
     width="83"
     height="40"
     clip-path="url(#satori_bc-id-0-0-1-0)"
     fill="none"
     stroke="rgba(0, 0, 0, 0.05)"
     stroke-width="2"
     d="M 91,41 V 1"
     id="path13"
     transform="scale(0.47428571,0.47702237)" />
  <clipPath
     id="satori_cp-id-0-0-1-0-0"
     clip-path="url(#satori_cp-id-0)">
    <rect
       x="104"
       y="13"
       width="58"
       height="17"
       id="rect14" />
  </clipPath>
  <mask
     id="satori_om-id-0-0-1-0-0">
    <rect
       x="104"
       y="13"
       width="58"
       height="17"
       fill="#ffffff"
       mask="url(#satori_om-id-0)"
       id="rect15" />
  </mask>
  <image
     x="104"
     y="13"
     width="58"
     height="17"
     href="polar-logo-blue.svg"
     preserveAspectRatio="none"
     clip-path="url(#satori_cp-id-0-0-1-0-0)"
     mask="url(#satori_om-id-0-0-1-0-0)"
     id="image15"
     transform="scale(0.47428571,0.47702237)" />
  <mask
     id="satori_om-id-0-0-1-0-0-0">
    <rect
       x="104"
       y="13"
       width="0"
       height="17"
       fill="#ffffff"
       mask="url(#satori_om-id-0)"
       id="rect16" />
  </mask>
  <mask
     id="satori_om-id-0-0-1-0-0-1">
    <rect
       x="104"
       y="13"
       width="0"
       height="17"
       fill="#ffffff"
       mask="url(#satori_om-id-0)"
       id="rect17" />
  </mask>
  <mask
     id="satori_om-id-0-0-1-0-0-2">
    <rect
       x="104"
       y="13"
       width="0"
       height="17"
       fill="#ffffff"
       mask="url(#satori_om-id-0)"
       id="rect18" />
  </mask>
  <mask
     id="satori_om-id-0-0-1-0-0-3">
    <rect
       x="104"
       y="13"
       width="0"
       height="17"
       fill="#ffffff"
       mask="url(#satori_om-id-0)"
       id="rect19" />
  </mask>
  <mask
     id="satori_om-id-0-0-1-0-0-4">
    <rect
       x="104"
       y="13"
       width="0"
       height="17"
       fill="#ffffff"
       mask="url(#satori_om-id-0)"
       id="rect20" />
  </mask>
  <mask
     id="satori_om-id-0-0-1-0-0-5">
    <rect
       x="104"
       y="13"
       width="0"
       height="17"
       fill="#ffffff"
       mask="url(#satori_om-id-0)"
       id="rect21" />
  </mask>
  <mask
     id="satori_om-id-0-0-1-0-0-6">
    <rect
       x="104"
       y="13"
       width="0"
       height="17"
       fill="#ffffff"
       mask="url(#satori_om-id-0)"
       id="rect22" />
  </mask>
  <mask
     id="satori_om-id-0-0-1-0-0-7">
    <rect
       x="104"
       y="13"
       width="0"
       height="17"
       fill="#ffffff"
       mask="url(#satori_om-id-0)"
       id="rect23" />
  </mask>
</svg>
